<?xml version="1.0" encoding="utf-8"?>
<!-- Generator: Adobe Illustrator 18.0.0, SVG Export Plug-In . SVG Version: 6.00 Build 0)  -->
<!DOCTYPE svg PUBLIC "-//W3C//DTD SVG 1.1//EN" "http://www.w3.org/Graphics/SVG/1.1/DTD/svg11.dtd">
<svg version="1.1" id="Layer_1" xmlns="http://www.w3.org/2000/svg" xmlns:xlink="http://www.w3.org/1999/xlink" x="0px" y="0px"
	 viewBox="0 0 419.9 88.6" enable-background="new 0 0 419.9 88.6" xml:space="preserve">
<radialGradient id="Gold_2_" cx="-1400.0226" cy="578.8928" r="10.8486" gradientTransform="matrix(3.085 0 0 2.9457 4353.7856 -1663.8129)" gradientUnits="userSpaceOnUse">
	<stop  offset="0.1656" style="stop-color:#FFFFFF"/>
	<stop  offset="0.865" style="stop-color:#C9AB80"/>
</radialGradient>
<path id="Gold" fill="url(#Gold_2_)" d="M59.8,30.6c-0.4-4-1.4-7.6-2.6-10.6c0-0.1-0.2-0.4-0.2-0.5c-1.1-2.3-2.4-4.4-3.9-5.9
	c-2.8-2.9-6.2-4.5-10-4.6h-0.1c-0.6-1.3-2.3-2.2-3.7-2.4c0,0-0.9-3.4-4.5-3.4s-4.5,3.4-4.5,3.4c-1.5,0.2-3.1,1.1-3.7,2.4h-0.1
	c-3.8,0-7.2,1.6-10,4.6c-1.5,1.6-2.8,3.6-3.9,5.9c0,0-0.2,0.4-0.2,0.5c-1.3,3-2.3,6.6-2.6,10.6c-2.1,19.8,7.2,44.1,24,47.8
	c0.2,0.4,0.9,1.1,1.2,1.1c0.3,0,0.9-0.7,1.2-1.1C52.6,74.7,61.9,50.4,59.8,30.6L59.8,30.6z"/>
<path id="Crest" fill="#272425" d="M59.8,30.6c-0.4-4-1.4-7.6-2.6-10.6c0-0.1-0.2-0.4-0.2-0.5c-1.1-2.3-2.4-4.4-3.9-5.9
	c-2.8-2.9-6.2-4.5-10-4.6h-0.1c-0.6-1.3-2.3-2.2-3.7-2.4c0,0-0.9-3.4-4.5-3.4s-4.5,3.4-4.5,3.4c-1.5,0.2-3.1,1.1-3.7,2.4h-0.1
	c-3.8,0-7.2,1.6-10,4.6c-1.5,1.6-2.8,3.6-3.9,5.9c0,0-0.2,0.4-0.2,0.5c-1.3,3-2.3,6.6-2.6,10.6c-2.1,19.8,7.2,44.1,24,47.8
	c0.2,0.4,0.9,1.1,1.2,1.1c0.3,0,0.9-0.7,1.2-1.1C52.6,74.7,61.9,50.4,59.8,30.6L59.8,30.6z M59.1,30.7c0,0.2,0,0.5,0,0.7
	c-0.8,0-1.6,0.1-2.3,0.4c-0.5-6.1-2.3-11.2-4.9-14.7c0.5-0.6,1.2-1.1,2-1.4C56.6,19.4,58.4,24.5,59.1,30.7z M26.4,16.5
	c-0.6,0.1-0.6,1.1-0.5,1.8c0.1,0.7,0.5,1.5,0.9,1.4c0.8-0.1,1.5-1.8,1.4-3c-0.1-1.8-1.1-2.2-1.7-2.2c-1,0-1.8,1.5-1.8,3.5
	c0,2,0.7,3.5,1.8,3.5c0.4,0,8.1,1,7.4-5.4c-0.3-3-2.2-5.2-4-6.2c1.7-1,3.9,0.7,4.5,2.8c0.1,0.4,0.4,0.4,0.5,0
	c0.7-2.2,2.6-3.7,4.3-2.8c-1.8,1-3.5,3.2-3.8,6.2c-0.5,6.5,7.2,5.5,7.5,5.4c1,0,1.8-1.5,1.8-3.5c0-2-0.8-3.5-1.8-3.5
	c-0.6,0-1.6,0.5-1.7,2.2c0,1.3,0.6,2.9,1.4,3c0.4,0,0.8-0.7,0.9-1.4c0.1-0.7,0-1.6-0.5-1.8c-0.2,0-0.4,0-0.4,0.2
	c0,0.1,0.4,0.4,0.3,1.2c0,1.1-1.2,0.6-1-1.2c0.1-1.5,1-1.4,1-1.4c0.4,0,1.2,0.9,1.2,2.6c0,1.5-0.8,3.2-2.3,2.3
	c-1.2-0.9-1.7-2.9-1.4-4.4c0.1-0.7,0.8-2.6,2.9-2.6c2.9,0,5.7,1.4,7.9,4.2c0,0,0,0,0,0c-0.2,0.7-1.4,3.4-6.4,6.1
	c-1.7-1-3.6-1.4-5.3-1.4c-2.7,0-3.6,0.8-4.8,0.8h0h0c-1.2,0-2.1-0.8-4.8-0.8c-1.8,0-3.7,0.4-5.3,1.4c-4.9-2.7-6.1-5.3-6.4-6.1
	c2.2-2.8,5-4.3,8-4.3c2.1,0,2.7,1.9,2.8,2.6c0.3,1.5-0.1,3.6-1.4,4.4c-1.5,0.8-2.3-0.8-2.3-2.3c0-1.7,0.7-2.6,1.2-2.6
	c0,0,0.9-0.1,1,1.5c0.1,1.7-1,2.3-1,1.2c0-0.7,0.4-1,0.3-1.2C26.8,16.6,26.6,16.4,26.4,16.5L26.4,16.5z M51.6,17.9
	c2.5,3.4,4.3,8.4,4.6,14.8c-0.9,0.5-2.8,1.3-5.3,1.5c-0.6-3.3-2-7.8-5.5-10.3C49.8,21.3,51.2,19,51.6,17.9z M24,23.8
	c-3.5,2.5-4.9,7-5.5,10.3c-2.5-0.2-4.4-1-5.3-1.5c0.4-6.4,2.1-11.4,4.6-14.7C18.2,19,19.6,21.3,24,23.8L24,23.8z M18.5,34.6
	c-0.2,1.2-0.2,2.2-0.3,2.9c0,1,0,2.1,0,3.1c0,0.2,0,0.4,0,0.6v0.1c0.1,2,0.4,4,0.9,6l0,0.2c0.8,3.5,1.9,6.1,2.4,7
	c0.8,1.6,1.6,3.1,2.4,4.4c-1.6,1.4-3.9,1.9-4.7,2.1c-4.3-8-6.4-18.4-5.9-27.8C14.2,33.6,16,34.4,18.5,34.6L18.5,34.6z M24,59.4
	c2.8,4.6,5.6,7.4,7.7,8.8c-0.8,1.9-2.6,3.3-3.2,3.8c-3.7-2.3-6.8-6.1-9.2-10.6C20.3,61.2,22.5,60.7,24,59.4z M32.2,68.5
	c1.2,0.8,2.4,1.3,2.5,1.3c0.1,0,1.3-0.5,2.4-1.3l0,0c0.8,1.8,2.4,3.2,3.2,3.8c-1.1,0.7-2.2,1.2-3.3,1.6v-0.1
	c-0.2-1.2-1.9-1.4-2.4-1.4c-0.6,0-2.2,0.2-2.4,1.4v0.1c-1.1-0.4-2.2-0.9-3.3-1.5C29.7,71.7,31.4,70.3,32.2,68.5L32.2,68.5z
	 M37.6,68.2c2.1-1.5,4.9-4.3,7.7-8.8c1.5,1.3,3.6,1.9,4.7,2.1c-2.4,4.5-5.5,8.2-9.1,10.6C40.2,71.5,38.4,70,37.6,68.2z M45.6,58.9
	c0.8-1.3,1.6-2.8,2.3-4.3c0.4-0.9,1.6-3.5,2.4-7l0.1-0.2c0.4-2,0.7-4,0.9-6v-0.1c0-0.2,0-0.4,0-0.6c0-1,0-2.1,0-3.1
	c0-0.7-0.1-1.7-0.3-2.9c2.4-0.2,4.3-0.9,5.2-1.4c0.3,9.4-1.8,19.7-6,27.8C49.3,60.8,47.1,60.2,45.6,58.9z M42.8,9.9
	c4.3,0,8,2,10.8,5.5c-0.7,0.3-1.4,0.8-2,1.4c-2.3-2.8-5.1-4.4-8.3-4.4c-2,0-3.3,1.4-3.7,3.2c-0.3,1.4,0,3.3,1,4.4
	c0.5,0.5,0.2,0.7,0.1,0.7c-1.3,0-4.9-0.7-4.6-4.7c0.2-2.6,1.6-4.3,3-5.3C40.6,10,42.2,9.9,42.8,9.9L42.8,9.9z M34.7,3.9
	c2.9,0,3.6,2.7,3.6,2.8c-0.2,0-0.4,0-0.6,0.1l-0.5,0.1c-1,0.3-1.9,1-2.4,1.9c0,0,0,0.1-0.1,0.1l-0.1-0.1c-0.5-0.9-1.4-1.5-2.4-1.9
	l-0.5-0.1c-0.2,0-0.4,0-0.6-0.1C31.1,6.7,31.7,3.9,34.7,3.9z M30.8,7.2c1.7,0,3.1,1,3.6,2.5c0.1,0.4,0.3,0.4,0.5,0
	c0.5-1.5,2-2.5,3.6-2.5c1.4,0,2.7,0.8,3.4,2c-0.5,0.1-1,0.2-1.6,0.4c-1-0.8-1.9-0.8-2.5-0.6c-1.4,0.4-2.5,1.7-3.1,2.9c0,0,0,0,0,0
	c0,0,0,0,0,0c-0.6-1.1-1.7-2.4-3.1-2.9C30.9,8.8,30,8.8,29,9.6c-0.5-0.2-1.1-0.3-1.6-0.4C28.1,8,29.4,7.2,30.8,7.2L30.8,7.2z
	 M26.6,9.9c0.6,0,2.2,0.1,3.6,0.9c1.5,1,2.8,2.7,3,5.3c0.3,3.9-3.9,4.6-4.7,4.6c-0.1,0-0.2-0.1,0.2-0.5c1-1.2,1.3-3,1-4.4
	c-0.4-1.8-1.7-3.2-3.7-3.2c-3.2,0-6,1.6-8.3,4.4c-0.5-0.6-1.2-1.1-2-1.4C18.6,11.8,22.3,9.9,26.6,9.9L26.6,9.9z M10.3,30.7
	c0.7-6.3,2.5-11.4,5.2-15c0.7,0.3,1.4,0.8,2,1.5c-2.6,3.4-4.4,8.5-4.9,14.7c-0.7-0.3-1.5-0.4-2.3-0.4C10.2,31.3,10.3,31,10.3,30.7z
	 M15,60c-3.9-8.5-5.6-18.6-4.8-28c0.8,0,1.6,0.1,2.3,0.4c0,0.2,0,0.4,0,0.6c-0.6,9.4,1.6,19.7,5.7,27.9c-0.8,0.2-1.6,0.5-2.3,1
	L15,60z M16.1,62.2c0.7-0.5,1.5-0.8,2.3-1c2.4,4.6,5.6,8.5,9.3,11c-0.6,0.5-1.2,1.2-1.5,1.9C22.2,71.5,18.8,67.5,16.1,62.2
	L16.1,62.2z M26.5,74.5c0.3-0.8,0.9-1.4,1.5-1.9c1.3,0.8,2.7,1.5,4.1,2c0,1,0.2,2,0.6,2.7C30.6,76.7,28.5,75.8,26.5,74.5z M35,78.4
	c0,0-0.1,0.2-0.3,0.2c-0.1,0-0.3-0.2-0.3-0.2c-0.7-0.8-1.8-2.5-1.4-4.5c0.1-0.6,1.1-0.8,1.7-0.8c0.6,0,1.6,0.2,1.7,0.8
	C36.8,75.9,35.7,77.5,35,78.4z M36.6,77.3c0.4-0.7,0.6-1.7,0.6-2.7c1.4-0.5,2.8-1.2,4.1-2.1c0.6,0.5,1.2,1.2,1.5,1.9
	C40.8,75.8,38.7,76.7,36.6,77.3L36.6,77.3z M43.2,74.2c-0.3-0.7-0.9-1.4-1.5-1.9c3.7-2.5,6.8-6.4,9.2-11c0.8,0.1,1.6,0.5,2.3,1
	C50.5,67.4,47.1,71.5,43.2,74.2z M54.4,60c-0.3,0.6-0.6,1.2-0.9,1.8c-0.7-0.5-1.5-0.8-2.3-1c4.2-8.1,6.3-18.5,5.7-27.8
	c0-0.2,0-0.4,0-0.6c0.7-0.3,1.5-0.4,2.3-0.4C59.9,41.4,58.2,51.5,54.4,60L54.4,60z"/>
<linearGradient id="Red_2_" gradientUnits="userSpaceOnUse" x1="-1406.7345" y1="564.6326" x2="-1406.7345" y2="550.3771" gradientTransform="matrix(3.2037 0 0 3.2037 4541.4463 -1740.1875)">
	<stop  offset="0" style="stop-color:#781B21"/>
	<stop  offset="4.820000e-02" style="stop-color:#8A1E24"/>
	<stop  offset="0.1209" style="stop-color:#9D2228"/>
	<stop  offset="0.2052" style="stop-color:#AB252A"/>
	<stop  offset="0.3105" style="stop-color:#B3272C"/>
	<stop  offset="0.5021" style="stop-color:#B5272C"/>
	<stop  offset="0.6737" style="stop-color:#B2262C"/>
	<stop  offset="0.7831" style="stop-color:#AA252A"/>
	<stop  offset="0.875" style="stop-color:#9B2227"/>
	<stop  offset="0.9569" style="stop-color:#861E24"/>
	<stop  offset="1" style="stop-color:#781B21"/>
</linearGradient>
<path id="Red" fill="url(#Red_2_)" d="M50.3,37.7c-0.1-2.3-0.8-10.3-5.9-13.4c-1.1-0.7-2.5-1.2-4-1.2c-2.5-0.1-4.4,0.8-5.6,0.8h0
	c-1.3,0-3.1-1-5.6-0.8c-1.5,0.1-2.9,0.6-4,1.2c-5.1,3.1-5.8,11-5.9,13.4c-0.3,8.3,2.4,14.8,3.2,16.6c3.5,7.4,7.8,12.5,12,14.3
	l0.3,0.1l0.3-0.1c4.2-1.8,8.5-6.9,12-14.3C47.9,52.4,50.6,45.9,50.3,37.7z"/>
<path id="W" fill="#FFFFFF" d="M42.3,31.8v1.6l0.3,0h0.1c0.2,0,0.5,0,0.7,0.2s0.2,0.5,0.2,1c0,0-3.4,14.2-4.1,16.8
	c-0.7-3.4-4.8-22-4.8-22v-0.1H34v0.1c0,0-2.9,18.1-3.5,21.7c-0.8-3.1-4.1-16.6-4.1-16.6v-0.2c0-0.4,0.1-0.7,0.3-0.8
	c0.2-0.2,0.6-0.2,0.6-0.2l0.3,0v-1.6H22v1.5l0.2,0c0.1,0,0.8,0.2,0.9,0.7c0,0,6.7,27.4,7,28.5v0.1h1v-0.1c0.1-0.2,2.7-17.2,3.3-20.3
	c0.6,3.2,4.1,20.2,4.2,20.3v0.1h0.9L46,34.2c0.1-0.6,0.7-0.7,0.9-0.7h0l0.3,0v-1.6L42.3,31.8L42.3,31.8L42.3,31.8z"/>
<radialGradient id="Gold_3_" cx="-1400.0719" cy="578.8928" r="10.8485" gradientTransform="matrix(3.085 0 0 2.9457 4353.7856 -1663.8129)" gradientUnits="userSpaceOnUse">
	<stop  offset="0.1656" style="stop-color:#FFFFFF"/>
	<stop  offset="0.865" style="stop-color:#C9AB80"/>
</radialGradient>
<path id="Gold_1_" fill="url(#Gold_3_)" d="M59.6,30.6c-0.4-4-1.4-7.6-2.6-10.6c0-0.1-0.2-0.4-0.2-0.5c-1.1-2.3-2.4-4.4-3.9-5.9
	c-2.8-2.9-6.2-4.5-10-4.6h-0.1c-0.6-1.3-2.3-2.2-3.7-2.4c0,0-0.9-3.4-4.5-3.4s-4.5,3.4-4.5,3.4c-1.5,0.2-3.1,1.1-3.7,2.4h-0.1
	c-3.8,0-7.2,1.6-10,4.6c-1.5,1.6-2.8,3.6-3.9,5.9c0,0-0.2,0.4-0.2,0.5c-1.3,3-2.3,6.6-2.6,10.6c-2.1,19.8,7.2,44.1,24,47.8
	c0.2,0.4,0.9,1.1,1.2,1.1c0.3,0,0.9-0.7,1.2-1.1C52.4,74.7,61.8,50.4,59.6,30.6L59.6,30.6z"/>
<path id="Crest_1_" fill="#272425" d="M59.6,30.6c-0.4-4-1.4-7.6-2.6-10.6c0-0.1-0.2-0.4-0.2-0.5c-1.1-2.3-2.4-4.4-3.9-5.9
	c-2.8-2.9-6.2-4.5-10-4.6h-0.1c-0.6-1.3-2.3-2.2-3.7-2.4c0,0-0.9-3.4-4.5-3.4s-4.5,3.4-4.5,3.4c-1.5,0.2-3.1,1.1-3.7,2.4h-0.1
	c-3.8,0-7.2,1.6-10,4.6c-1.5,1.6-2.8,3.6-3.9,5.9c0,0-0.2,0.4-0.2,0.5c-1.3,3-2.3,6.6-2.6,10.6c-2.1,19.8,7.2,44.1,24,47.8
	c0.2,0.4,0.9,1.1,1.2,1.1c0.3,0,0.9-0.7,1.2-1.1C52.4,74.7,61.8,50.4,59.6,30.6L59.6,30.6z M58.9,30.7c0,0.2,0,0.5,0,0.7
	c-0.8,0-1.6,0.1-2.3,0.4c-0.5-6.1-2.3-11.2-4.9-14.7c0.5-0.6,1.2-1.1,2-1.4C56.4,19.4,58.3,24.5,58.9,30.7z M26.2,16.5
	c-0.6,0.1-0.6,1.1-0.5,1.8c0.1,0.7,0.5,1.5,0.9,1.4c0.8-0.1,1.5-1.8,1.4-3c-0.1-1.8-1.1-2.2-1.7-2.2c-1,0-1.8,1.5-1.8,3.5
	c0,2,0.7,3.5,1.8,3.5c0.4,0,8.1,1,7.4-5.4c-0.3-3-2.2-5.2-4-6.2c1.7-1,3.9,0.7,4.5,2.8c0.1,0.4,0.4,0.4,0.5,0
	c0.7-2.2,2.6-3.7,4.3-2.8c-1.8,1-3.5,3.2-3.8,6.2c-0.5,6.5,7.2,5.5,7.5,5.4c1,0,1.8-1.5,1.8-3.5c0-2-0.8-3.5-1.8-3.5
	c-0.6,0-1.6,0.5-1.7,2.2c0,1.3,0.6,2.9,1.4,3c0.4,0,0.8-0.7,0.9-1.4c0.1-0.7,0-1.6-0.5-1.8c-0.2,0-0.4,0-0.4,0.2
	c0,0.1,0.4,0.4,0.3,1.2c0,1.1-1.2,0.6-1-1.2c0.1-1.5,1-1.4,1-1.4c0.4,0,1.2,0.9,1.2,2.6c0,1.5-0.8,3.2-2.3,2.3
	c-1.2-0.9-1.7-2.9-1.4-4.4c0.1-0.7,0.8-2.6,2.9-2.6c2.9,0,5.7,1.4,7.9,4.2c0,0,0,0,0,0c-0.2,0.7-1.4,3.4-6.4,6.1
	c-1.7-1-3.6-1.4-5.3-1.4c-2.7,0-3.6,0.8-4.8,0.8h0h0c-1.2,0-2.1-0.8-4.8-0.8c-1.8,0-3.7,0.4-5.3,1.4c-4.9-2.7-6.1-5.3-6.4-6.1
	c2.2-2.8,5-4.3,8-4.3c2.1,0,2.7,1.9,2.8,2.6c0.3,1.5-0.1,3.6-1.4,4.4c-1.5,0.8-2.3-0.8-2.3-2.3c0-1.7,0.7-2.6,1.2-2.6
	c0,0,0.9-0.1,1,1.5c0.1,1.7-1,2.3-1,1.2c0-0.7,0.4-1,0.3-1.2C26.6,16.6,26.4,16.4,26.2,16.5L26.2,16.5z M51.4,17.9
	c2.5,3.4,4.3,8.4,4.6,14.8c-0.9,0.5-2.8,1.3-5.3,1.5c-0.6-3.3-2-7.8-5.5-10.3C49.6,21.3,51,19,51.4,17.9z M23.9,23.8
	c-3.5,2.5-4.9,7-5.5,10.3c-2.5-0.2-4.4-1-5.3-1.5c0.4-6.4,2.1-11.4,4.6-14.7C18.1,19,19.5,21.3,23.9,23.8L23.9,23.8z M18.3,34.6
	c-0.2,1.2-0.2,2.2-0.3,2.9c0,1,0,2.1,0,3.1c0,0.2,0,0.4,0,0.6v0.1c0.1,2,0.4,4,0.9,6l0,0.2c0.8,3.5,1.9,6.1,2.4,7
	c0.8,1.6,1.6,3.1,2.4,4.4c-1.6,1.4-3.9,1.9-4.7,2.1c-4.3-8-6.4-18.4-5.9-27.8C14,33.6,15.8,34.4,18.3,34.6L18.3,34.6z M23.9,59.4
	c2.8,4.6,5.6,7.4,7.7,8.8c-0.8,1.9-2.6,3.3-3.2,3.8c-3.7-2.3-6.8-6.1-9.2-10.6C20.1,61.2,22.3,60.7,23.9,59.4z M32.1,68.5
	c1.2,0.8,2.4,1.3,2.5,1.3c0.1,0,1.3-0.5,2.4-1.3l0,0c0.8,1.8,2.4,3.2,3.2,3.8c-1.1,0.7-2.2,1.2-3.3,1.6v-0.1
	c-0.2-1.2-1.9-1.4-2.4-1.4c-0.6,0-2.2,0.2-2.4,1.4v0.1c-1.1-0.4-2.2-0.9-3.3-1.5C29.6,71.7,31.2,70.3,32.1,68.5L32.1,68.5z
	 M37.5,68.2c2.1-1.5,4.9-4.3,7.7-8.8c1.5,1.3,3.6,1.9,4.7,2.1c-2.4,4.5-5.5,8.2-9.1,10.6C40,71.5,38.2,70,37.5,68.2z M45.4,58.9
	c0.8-1.3,1.6-2.8,2.3-4.3c0.4-0.9,1.6-3.5,2.4-7l0-0.2c0.4-2,0.7-4,0.9-6v-0.1c0-0.2,0-0.4,0-0.6c0-1,0-2.1,0-3.1
	c0-0.7-0.1-1.7-0.3-2.9c2.4-0.2,4.3-0.9,5.2-1.4c0.3,9.4-1.8,19.7-6,27.8C49.1,60.8,46.9,60.2,45.4,58.9z M42.6,9.9
	c4.3,0,8,2,10.8,5.5c-0.7,0.3-1.4,0.8-2,1.4c-2.3-2.8-5.1-4.4-8.3-4.4c-2,0-3.3,1.4-3.7,3.2c-0.3,1.4,0,3.3,1,4.4
	c0.5,0.5,0.2,0.7,0.1,0.7c-1.3,0-4.9-0.7-4.6-4.7c0.2-2.6,1.6-4.3,3-5.3C40.4,10,42,9.9,42.6,9.9L42.6,9.9z M34.5,3.9
	c2.9,0,3.6,2.7,3.6,2.8c-0.2,0-0.4,0-0.6,0.1L37,6.9c-1,0.3-1.9,1-2.4,1.9c0,0,0,0.1-0.1,0.1l-0.1-0.1C33.9,7.9,33,7.3,32,6.9
	l-0.5-0.1c-0.2,0-0.4,0-0.6-0.1C30.9,6.7,31.6,3.9,34.5,3.9z M30.6,7.2c1.7,0,3.1,1,3.6,2.5c0.1,0.4,0.3,0.4,0.5,0
	c0.5-1.5,2-2.5,3.6-2.5c1.4,0,2.7,0.8,3.4,2c-0.5,0.1-1,0.2-1.6,0.4c-1-0.8-1.9-0.8-2.5-0.6c-1.4,0.4-2.5,1.7-3.1,2.9c0,0,0,0,0,0
	c0,0,0,0,0,0c-0.6-1.1-1.7-2.4-3.1-2.9c-0.6-0.2-1.6-0.2-2.5,0.6c-0.5-0.2-1.1-0.3-1.6-0.4C27.9,8,29.2,7.2,30.6,7.2L30.6,7.2z
	 M26.4,9.9c0.6,0,2.2,0.1,3.6,0.9c1.5,1,2.8,2.7,3,5.3c0.3,3.9-3.9,4.6-4.7,4.6c-0.1,0-0.2-0.1,0.2-0.5c1-1.2,1.3-3,1-4.4
	c-0.4-1.8-1.7-3.2-3.7-3.2c-3.2,0-6,1.6-8.3,4.4c-0.5-0.6-1.2-1.1-2-1.4C18.4,11.8,22.1,9.9,26.4,9.9L26.4,9.9z M10.1,30.7
	c0.7-6.3,2.5-11.4,5.2-15c0.7,0.3,1.4,0.8,2,1.5c-2.6,3.4-4.4,8.5-4.9,14.7c-0.7-0.3-1.5-0.4-2.3-0.4C10.1,31.3,10.1,31,10.1,30.7z
	 M14.8,60C11,51.5,9.2,41.4,10,32c0.8,0,1.6,0.1,2.3,0.4c0,0.2,0,0.4,0,0.6c-0.6,9.4,1.6,19.7,5.7,27.9c-0.8,0.2-1.6,0.5-2.3,1
	L14.8,60z M15.9,62.2c0.7-0.5,1.5-0.8,2.3-1c2.4,4.6,5.6,8.5,9.3,11c-0.6,0.5-1.2,1.2-1.5,1.9C22.1,71.5,18.7,67.5,15.9,62.2
	L15.9,62.2z M26.4,74.5c0.3-0.8,0.9-1.4,1.5-1.9c1.3,0.8,2.7,1.5,4.1,2c0,1,0.2,2,0.6,2.7C30.4,76.7,28.4,75.8,26.4,74.5z
	 M34.8,78.4c0,0-0.1,0.2-0.3,0.2c-0.1,0-0.3-0.2-0.3-0.2c-0.7-0.8-1.8-2.5-1.4-4.5c0.1-0.6,1.1-0.8,1.7-0.8c0.6,0,1.6,0.2,1.7,0.8
	C36.6,75.9,35.5,77.5,34.8,78.4z M36.4,77.3c0.4-0.7,0.6-1.7,0.6-2.7c1.4-0.5,2.8-1.2,4.1-2.1c0.6,0.5,1.2,1.2,1.5,1.9
	C40.7,75.8,38.6,76.7,36.4,77.3L36.4,77.3z M43.1,74.2c-0.3-0.7-0.9-1.4-1.5-1.9c3.7-2.5,6.8-6.4,9.2-11c0.8,0.1,1.6,0.5,2.3,1
	C50.4,67.4,47,71.5,43.1,74.2z M54.2,60c-0.3,0.6-0.6,1.2-0.9,1.8c-0.7-0.5-1.5-0.8-2.3-1c4.2-8.1,6.3-18.5,5.7-27.8
	c0-0.2,0-0.4,0-0.6c0.7-0.3,1.5-0.4,2.3-0.4C59.8,41.4,58.1,51.5,54.2,60L54.2,60z"/>
<linearGradient id="Red_3_" gradientUnits="userSpaceOnUse" x1="-1406.7823" y1="564.6326" x2="-1406.7823" y2="550.3771" gradientTransform="matrix(3.2037 0 0 3.2037 4541.4463 -1740.1875)">
	<stop  offset="0" style="stop-color:#781B21"/>
	<stop  offset="4.820000e-02" style="stop-color:#8A1E24"/>
	<stop  offset="0.1209" style="stop-color:#9D2228"/>
	<stop  offset="0.2052" style="stop-color:#AB252A"/>
	<stop  offset="0.3105" style="stop-color:#B3272C"/>
	<stop  offset="0.5021" style="stop-color:#B5272C"/>
	<stop  offset="0.6737" style="stop-color:#B2262C"/>
	<stop  offset="0.7831" style="stop-color:#AA252A"/>
	<stop  offset="0.875" style="stop-color:#9B2227"/>
	<stop  offset="0.9569" style="stop-color:#861E24"/>
	<stop  offset="1" style="stop-color:#781B21"/>
</linearGradient>
<path id="Red_1_" fill="url(#Red_3_)" d="M50.1,37.7c-0.1-2.3-0.8-10.3-5.9-13.4c-1.1-0.7-2.5-1.2-4-1.2c-2.5-0.1-4.4,0.8-5.6,0.8h0
	c-1.3,0-3.1-1-5.6-0.8c-1.5,0.1-2.9,0.6-4,1.2c-5.1,3.1-5.8,11-5.9,13.4c-0.3,8.3,2.4,14.8,3.2,16.6c3.5,7.4,7.8,12.5,12,14.3
	l0.3,0.1l0.3-0.1c4.2-1.8,8.5-6.9,12-14.3C47.7,52.4,50.5,45.9,50.1,37.7z"/>
<path id="W_1_" fill="#FFFFFF" d="M42.1,31.8v1.6l0.3,0h0.1c0.2,0,0.5,0,0.7,0.2c0.2,0.2,0.2,0.5,0.2,1c0,0-3.4,14.2-4.1,16.8
	c-0.7-3.4-4.8-22-4.8-22v-0.1h-0.8v0.1c0,0-2.9,18.1-3.5,21.7c-0.8-3.1-4.1-16.6-4.1-16.6v-0.2c0-0.4,0.1-0.7,0.3-0.8
	c0.2-0.2,0.6-0.2,0.6-0.2l0.3,0v-1.6h-5.7v1.5l0.2,0c0.1,0,0.8,0.2,0.9,0.7c0,0,6.7,27.4,7,28.5v0.1h1v-0.1c0-0.2,2.7-17.2,3.3-20.3
	c0.6,3.2,4.1,20.2,4.2,20.3v0.1h0.9l6.6-28.6c0.1-0.6,0.7-0.7,0.9-0.7h0l0.3,0v-1.6L42.1,31.8L42.1,31.8L42.1,31.8z"/>
<g enable-background="new    ">
	<path fill="#DBA9A9" d="M76.9,65.4h-1.8v-0.9c-0.6,0.7-1.4,1.1-2.5,1.1c-0.7,0-1.2-0.1-1.7-0.4c-0.6-0.3-0.9-0.8-1.1-1.4
		c-0.1-0.3-0.1-0.8-0.1-1.4v-3.7c0-0.5,0-0.8,0-0.9c-0.1-0.3-0.2-0.6-0.5-0.7h2.4c-0.3,0.2-0.4,0.4-0.5,0.7c0,0.2,0,0.5,0,0.9v3.7
		c0,0.7,0.1,1.3,0.4,1.6c0.4,0.5,0.9,0.7,1.6,0.7c0.8,0,1.4-0.3,1.8-0.9c0.2-0.2,0.2-0.6,0.2-1v-4.1c0-0.5,0-0.8,0-0.9
		c-0.1-0.3-0.2-0.6-0.5-0.7h2.4c-0.3,0.2-0.4,0.4-0.5,0.7c0,0.2,0,0.5,0,0.9v5.1c0,0.5,0,0.8,0,0.9C76.5,65,76.6,65.2,76.9,65.4z"/>
	<path fill="#DBA9A9" d="M86.5,57c-0.3,0.2-0.5,0.4-0.5,0.6c-0.1,0.2-0.1,0.5-0.1,0.9v7.3c-0.6-0.2-1.2-0.6-1.7-1.3l-4.4-5.6v5.1
		c0,0.4,0,0.7,0.1,0.9s0.3,0.4,0.5,0.6h-2.3c0.3-0.2,0.5-0.4,0.5-0.6c0.1-0.2,0.1-0.5,0.1-0.9v-5.4c0-0.4,0-0.7-0.1-0.9
		c-0.1-0.2-0.3-0.4-0.5-0.6h1.8c0,0,0.1,0.2,0.3,0.5l4.7,6v-5c0-0.4,0-0.7-0.1-0.9c-0.1-0.2-0.3-0.4-0.5-0.6L86.5,57L86.5,57z"/>
	<path fill="#DBA9A9" d="M90,65.4h-2.4c0.3-0.1,0.4-0.4,0.5-0.7c0-0.1,0-0.4,0-0.9v-5.1c0-0.5,0-0.8,0-0.9c-0.1-0.3-0.2-0.6-0.5-0.7
		H90c-0.3,0.1-0.4,0.4-0.5,0.7c0,0.1,0,0.4,0,0.9v5.1c0,0.5,0,0.8,0,0.9C89.6,65,89.7,65.2,90,65.4z"/>
	<path fill="#DBA9A9" d="M98.4,57L95,65.8c-0.6-0.4-0.9-0.7-1.1-0.9c-0.1-0.2-0.3-0.5-0.5-1.1l-1.7-4.6c-0.3-0.8-0.5-1.4-0.6-1.5
		c-0.1-0.2-0.3-0.4-0.5-0.6h1.8c0,0,0,0.1,0,0.1c0,0.2,0.1,0.5,0.3,1l2.1,5.7l1.8-4.7c0.3-0.7,0.4-1.2,0.4-1.4
		c0-0.4-0.2-0.6-0.5-0.7C96.5,57.1,98.4,57.1,98.4,57z"/>
	<path fill="#DBA9A9" d="M105,63.7l-0.6,1.7h-5.3c0.3-0.1,0.4-0.4,0.5-0.7c0-0.2,0-0.5,0-0.9v-5.1c0-0.5,0-0.8,0-0.9
		c-0.1-0.3-0.2-0.6-0.5-0.7h4.2c0.2,0,0.3,0,0.5-0.1v1.5c-0.2-0.2-0.5-0.4-0.7-0.4c-0.2-0.1-0.5-0.1-0.8-0.1c-0.5,0-1,0-1.3,0.1v2.4
		h1.7c0.2,0,0.3,0,0.4-0.1v1.3c-0.2-0.2-0.5-0.3-1-0.3h-1.1v3c0.5,0.1,1.1,0.1,1.6,0.1C103.5,64.5,104.3,64.2,105,63.7z"/>
	<path fill="#DBA9A9" d="M113.2,65.4c-0.6,0-1,0.1-1.2,0.1c-0.4,0-0.7-0.1-0.9-0.3c-0.3-0.2-0.6-0.5-1-1c-0.8-1-1.5-2-2.2-3.1
		c1.4-0.2,2.1-0.8,2.1-1.8c0-0.4-0.1-0.8-0.4-1c-0.3-0.3-0.7-0.4-1.1-0.4c-0.2,0-0.5,0-0.9,0.1v5.8c0,0.5,0,0.8,0,0.9
		c0.1,0.3,0.2,0.6,0.5,0.7h-2.4c0.3-0.1,0.4-0.4,0.5-0.7c0-0.1,0-0.4,0-0.9v-5.1c0-0.5,0-0.8,0-0.9c-0.1-0.3-0.2-0.6-0.5-0.7h1.8
		c0.1,0,0.3,0,0.6,0s0.4,0,0.6,0c0.8,0,1.4,0.2,1.9,0.5c0.6,0.4,0.8,1,0.8,1.6c0,0.5-0.2,0.9-0.6,1.3c-0.4,0.4-0.9,0.7-1.5,0.8
		c0.9,1.3,1.7,2.2,2.3,2.8C112.2,64.7,112.7,65.1,113.2,65.4z"/>
	<path fill="#DBA9A9" d="M119.2,63c0,0.6-0.3,1.2-0.8,1.7c-0.6,0.6-1.5,0.9-2.7,0.9c-0.8,0-1.5-0.1-2.2-0.4l-0.4-1.6
		c0.9,0.7,1.8,1,2.8,1c0.5,0,1-0.1,1.3-0.4s0.5-0.6,0.5-0.9c0-0.4-0.1-0.7-0.4-0.9c-0.2-0.2-0.8-0.5-1.6-0.9c-0.8-0.4-1.4-0.7-1.7-1
		c-0.4-0.4-0.7-0.9-0.7-1.5c0-0.7,0.3-1.2,0.9-1.6c0.6-0.4,1.3-0.6,2.3-0.6c0.6,0,1.3,0.1,1.9,0.3v1.4c-0.6-0.6-1.2-0.8-2-0.8
		c-0.5,0-0.9,0.1-1.2,0.3s-0.5,0.5-0.5,0.9c0,0.3,0.1,0.6,0.4,0.8s0.7,0.5,1.5,0.8c0.9,0.4,1.5,0.8,1.8,1
		C119,61.9,119.2,62.4,119.2,63z"/>
	<path fill="#DBA9A9" d="M122.7,65.4h-2.4c0.3-0.1,0.4-0.4,0.5-0.7c0-0.1,0-0.4,0-0.9v-5.1c0-0.5,0-0.8,0-0.9
		c-0.1-0.3-0.2-0.6-0.5-0.7h2.4c-0.3,0.1-0.4,0.4-0.5,0.7c0,0.1,0,0.4,0,0.9v5.1c0,0.5,0,0.8,0,0.9C122.2,65,122.4,65.2,122.7,65.4z
		"/>
	<path fill="#DBA9A9" d="M129.8,57l-0.4,1.5c-0.1-0.2-0.3-0.4-0.5-0.4c-0.1,0-0.4-0.1-0.7-0.1c-0.1,0-0.2,0-0.3,0
		c-0.1,0-0.3,0-0.6,0h-0.2v5.9c0,0.4,0,0.7,0.1,0.9c0.1,0.2,0.3,0.4,0.5,0.6h-2.5c0.3-0.1,0.4-0.4,0.5-0.7c0-0.2,0-0.5,0-0.9V58
		c-0.2,0-0.6,0-1,0c-0.4,0-0.7,0-0.9,0.1c-0.2,0.1-0.5,0.2-0.8,0.4l0.5-1.5c0.2,0.1,0.4,0.1,0.6,0.1h4.8c0.1,0,0.3,0,0.5,0
		C129.6,57,129.7,57,129.8,57z"/>
	<path fill="#DBA9A9" d="M137.9,57l-3.1,4.7v2.2c0,0.4,0,0.7,0.1,0.8c0.1,0.2,0.3,0.4,0.5,0.7H133c0.3-0.2,0.4-0.4,0.5-0.7
		c0-0.1,0-0.4,0-0.9v-2l-2.2-3.5c-0.2-0.3-0.4-0.6-0.5-0.7c-0.1-0.1-0.3-0.3-0.6-0.5l1.4,0c0.2,0,0.3,0,0.4,0.1
		c0.1,0.1,0.2,0.2,0.4,0.5l1.9,3.1l1.6-2.4c0.2-0.2,0.2-0.4,0.2-0.6c0-0.3-0.2-0.5-0.5-0.6L137.9,57L137.9,57z"/>
	<path fill="#DBA9A9" d="M150.9,61.2c0,1.2-0.5,2.3-1.4,3.1c-0.9,0.9-2,1.3-3.3,1.3c-1.3,0-2.4-0.4-3.3-1.3
		c-0.9-0.8-1.3-1.9-1.3-3.1c0-1.3,0.5-2.3,1.4-3.2c0.9-0.8,2.1-1.3,3.4-1.3c1.3,0,2.4,0.4,3.2,1.2c0.4,0.4,0.7,0.9,0.9,1.4
		C150.7,60,150.9,60.6,150.9,61.2z M149.4,61.4c0-1-0.3-1.8-0.9-2.5c-0.6-0.7-1.4-1.1-2.4-1.1c-0.9,0-1.7,0.3-2.3,0.9
		c-0.6,0.6-0.9,1.4-0.9,2.4c0,1,0.3,1.9,1,2.7c0.6,0.6,1.3,0.9,2.2,0.9c0.9,0,1.7-0.3,2.3-0.9C149.1,63.2,149.4,62.4,149.4,61.4z"/>
	<path fill="#DBA9A9" d="M156.7,58.4c-0.2-0.2-0.5-0.3-0.7-0.4c-0.2,0-0.5-0.1-0.8-0.1c-0.5,0-1,0-1.3,0.1v2.4h1.7
		c0.2,0,0.3,0,0.4-0.1v1.3c-0.2-0.2-0.5-0.3-1-0.3h-1.1v2.5c0,0.5,0,0.8,0,0.9c0.1,0.3,0.2,0.6,0.5,0.7H152c0.3-0.1,0.4-0.4,0.5-0.7
		c0-0.1,0-0.4,0-0.9v-5.1c0-0.5,0-0.8,0-0.9c-0.1-0.3-0.2-0.6-0.5-0.7h4.2c0.2,0,0.3,0,0.5-0.1L156.7,58.4L156.7,58.4z"/>
	<path fill="#DBA9A9" d="M172,57l-2.7,8.7c-0.1,0-0.2-0.2-0.5-0.3c-0.4-0.3-0.6-0.5-0.8-0.6s-0.3-0.5-0.4-1l-1.4-4.5l-2,6.4
		c-0.2-0.1-0.3-0.2-0.6-0.4c-0.3-0.2-0.6-0.4-0.7-0.6c-0.1-0.2-0.2-0.5-0.4-0.9l-1.6-5c-0.2-0.6-0.4-1-0.5-1.2s-0.3-0.4-0.5-0.6h1.8
		c0,0.1,0,0.1,0,0.2c0,0.1,0,0.3,0.1,0.6l2,6.1l1.6-5c0.1-0.5,0.2-0.8,0.2-1.1c0-0.3-0.2-0.5-0.5-0.8h1.8c0,0.1,0,0.2,0,0.2
		c0,0.2,0.1,0.5,0.2,0.9l1.8,5.7l1.5-4.9c0.2-0.5,0.3-0.9,0.3-1.1c0-0.4-0.2-0.7-0.7-0.9L172,57L172,57z"/>
	<path fill="#DBA9A9" d="M175.2,65.4h-2.4c0.3-0.1,0.4-0.4,0.5-0.7c0-0.1,0-0.4,0-0.9v-5.1c0-0.5,0-0.8,0-0.9
		c-0.1-0.3-0.2-0.6-0.5-0.7h2.4c-0.3,0.1-0.4,0.4-0.5,0.7c0,0.1,0,0.4,0,0.9v5.1c0,0.5,0,0.8,0,0.9C174.7,65,174.9,65.2,175.2,65.4z
		"/>
	<path fill="#DBA9A9" d="M182.3,63c0,0.6-0.3,1.2-0.8,1.7c-0.6,0.6-1.5,0.9-2.7,0.9c-0.8,0-1.5-0.1-2.2-0.4l-0.4-1.6
		c0.9,0.7,1.8,1,2.8,1c0.5,0,1-0.1,1.4-0.4s0.5-0.6,0.5-0.9c0-0.4-0.1-0.7-0.4-0.9c-0.2-0.2-0.8-0.5-1.6-0.9c-0.8-0.4-1.4-0.7-1.7-1
		c-0.4-0.4-0.7-0.9-0.7-1.5c0-0.7,0.3-1.2,0.9-1.6c0.6-0.4,1.3-0.6,2.3-0.6c0.6,0,1.3,0.1,1.9,0.3v1.4c-0.6-0.6-1.2-0.8-2-0.8
		c-0.5,0-0.9,0.1-1.2,0.3c-0.3,0.2-0.5,0.5-0.5,0.9c0,0.3,0.1,0.6,0.4,0.8s0.7,0.5,1.5,0.8c0.9,0.4,1.5,0.8,1.8,1
		C182.1,61.9,182.3,62.4,182.3,63z"/>
	<path fill="#DBA9A9" d="M190.6,63.7l-0.6,1.5c-0.6,0.2-1.3,0.4-2,0.4c-1.4,0-2.6-0.4-3.5-1.2c-0.9-0.8-1.3-1.8-1.3-3.2
		c0-1.3,0.4-2.3,1.3-3.1c0.8-0.8,1.9-1.2,3.2-1.2c0.6,0,1.4,0.1,2.3,0.3v1.5c-0.8-0.5-1.6-0.7-2.3-0.7c-0.9,0-1.6,0.3-2.2,0.9
		c-0.6,0.6-0.8,1.3-0.8,2.2c0,1,0.3,1.8,0.9,2.5c0.6,0.7,1.4,1,2.3,1C188.7,64.6,189.6,64.3,190.6,63.7z"/>
	<path fill="#DBA9A9" d="M200.4,61.2c0,1.2-0.5,2.3-1.4,3.1c-0.9,0.9-2,1.3-3.3,1.3c-1.3,0-2.4-0.4-3.3-1.3
		c-0.9-0.8-1.3-1.9-1.3-3.1c0-1.3,0.5-2.3,1.4-3.2c0.9-0.8,2.1-1.3,3.4-1.3c1.3,0,2.4,0.4,3.2,1.2c0.4,0.4,0.7,0.9,0.9,1.4
		C200.2,60,200.4,60.6,200.4,61.2z M198.9,61.4c0-1-0.3-1.8-0.9-2.5c-0.6-0.7-1.4-1.1-2.4-1.1c-0.9,0-1.7,0.3-2.3,0.9
		c-0.6,0.6-0.9,1.4-0.9,2.4c0,1,0.3,1.9,1,2.7c0.6,0.6,1.3,0.9,2.2,0.9c0.9,0,1.7-0.3,2.3-0.9C198.6,63.2,198.9,62.4,198.9,61.4z"/>
	<path fill="#DBA9A9" d="M209.8,57c-0.3,0.2-0.5,0.4-0.5,0.6c-0.1,0.2-0.1,0.5-0.1,0.9v7.3c-0.6-0.2-1.2-0.6-1.7-1.3l-4.4-5.6v5.1
		c0,0.4,0,0.7,0.1,0.9c0.1,0.2,0.3,0.4,0.5,0.6h-2.3c0.3-0.2,0.5-0.4,0.5-0.6s0.1-0.5,0.1-0.9v-5.4c0-0.4,0-0.7-0.1-0.9
		c-0.1-0.2-0.3-0.4-0.5-0.6h1.8c0,0,0.1,0.2,0.3,0.5l4.7,6v-5c0-0.4,0-0.7-0.1-0.9s-0.3-0.4-0.5-0.6L209.8,57L209.8,57z"/>
	<path fill="#DBA9A9" d="M216.8,63c0,0.6-0.3,1.2-0.8,1.7c-0.6,0.6-1.5,0.9-2.7,0.9c-0.8,0-1.5-0.1-2.2-0.4l-0.4-1.6
		c0.9,0.7,1.8,1,2.8,1c0.5,0,1-0.1,1.4-0.4s0.5-0.6,0.5-0.9c0-0.4-0.1-0.7-0.4-0.9c-0.2-0.2-0.8-0.5-1.6-0.9c-0.8-0.4-1.4-0.7-1.7-1
		c-0.4-0.4-0.7-0.9-0.7-1.5c0-0.7,0.3-1.2,0.9-1.6c0.6-0.4,1.3-0.6,2.3-0.6c0.6,0,1.3,0.1,1.9,0.3v1.4c-0.6-0.6-1.2-0.8-2-0.8
		c-0.5,0-0.9,0.1-1.2,0.3s-0.5,0.5-0.5,0.9c0,0.3,0.1,0.6,0.4,0.8s0.7,0.5,1.5,0.8c0.9,0.4,1.5,0.8,1.8,1
		C216.6,61.9,216.8,62.4,216.8,63z"/>
	<path fill="#DBA9A9" d="M220.3,65.4h-2.4c0.3-0.1,0.4-0.4,0.5-0.7c0-0.1,0-0.4,0-0.9v-5.1c0-0.5,0-0.8,0-0.9
		c-0.1-0.3-0.2-0.6-0.5-0.7h2.4c-0.3,0.1-0.4,0.4-0.5,0.7c0,0.1,0,0.4,0,0.9v5.1c0,0.5,0,0.8,0,0.9C219.8,65,220,65.2,220.3,65.4z"
		/>
	<path fill="#DBA9A9" d="M229.9,57c-0.3,0.2-0.5,0.4-0.5,0.6c-0.1,0.2-0.1,0.5-0.1,0.9v7.3c-0.6-0.2-1.2-0.6-1.7-1.3l-4.4-5.6v5.1
		c0,0.4,0,0.7,0.1,0.9c0.1,0.2,0.3,0.4,0.5,0.6h-2.3c0.3-0.2,0.5-0.4,0.5-0.6s0.1-0.5,0.1-0.9v-5.4c0-0.4,0-0.7-0.1-0.9
		c-0.1-0.2-0.3-0.4-0.5-0.6h1.8c0,0,0.1,0.2,0.3,0.5l4.7,6v-5c0-0.4,0-0.7-0.1-0.9c-0.1-0.2-0.3-0.4-0.5-0.6L229.9,57L229.9,57z"/>
	<path fill="#DBA9A9" d="M234.7,61.6l-0.7,0.9c-0.1,0.2-0.3,0.2-0.5,0.2h-1.5c-0.5,0-0.8,0.1-1.2,0.2l0.7-0.9
		c0.1-0.1,0.3-0.2,0.6-0.2h1.3C233.9,61.8,234.4,61.7,234.7,61.6z"/>
	<path fill="#DBA9A9" d="M246.8,65.4h-2.4c0.4-0.2,0.5-0.5,0.5-1c0-0.2,0-0.4-0.1-0.7l-0.7-5.4l-2.8,7.3c-0.3-0.3-0.5-0.5-0.6-0.6
		c-0.1-0.2-0.3-0.4-0.4-0.8l-2.5-5.9l-0.7,5.6c0,0.3-0.1,0.5-0.1,0.7c0,0.3,0.2,0.6,0.5,0.8h-2.1c0.4-0.3,0.6-0.9,0.7-1.7l0.7-5.3
		c0-0.4,0.1-0.6,0.1-0.6c0-0.3-0.1-0.5-0.4-0.7h2.2c0,0.1,0,0.3,0.1,0.4l2.4,5.7l2.1-5.3c0.2-0.4,0.2-0.7,0.2-0.9h2.2
		c-0.3,0.1-0.4,0.4-0.4,0.8c0,0.1,0,0.3,0,0.5l0.8,5.6c0.1,0.4,0.1,0.8,0.2,0.9C246.4,65,246.6,65.2,246.8,65.4z"/>
	<path fill="#DBA9A9" d="M256.3,65.4h-2.6c0.3-0.2,0.5-0.4,0.5-0.5c0-0.1-0.1-0.3-0.2-0.7l-0.7-1.9H250l-0.7,1.9
		c-0.1,0.3-0.1,0.5-0.1,0.6c0,0.2,0.1,0.4,0.5,0.6h-2.3c0.3-0.2,0.5-0.4,0.6-0.6c0.1-0.2,0.3-0.6,0.5-1.1l2.2-5.6
		c0.1-0.2,0.1-0.4,0.1-0.6c0-0.2-0.1-0.4-0.4-0.5h2l2.7,6.6c0.2,0.5,0.4,0.9,0.6,1.1C255.8,65,256,65.2,256.3,65.4z M252.8,61.4
		l-1.3-3.3l-1.3,3.3H252.8z"/>
	<path fill="#DBA9A9" d="M264.8,61.1c0,0.8-0.2,1.6-0.7,2.3c-0.4,0.7-1,1.2-1.8,1.5c-0.6,0.3-1.7,0.4-3.4,0.4h-2
		c0.3-0.2,0.4-0.4,0.5-0.6c0.1-0.2,0.1-0.6,0.1-1.1v-5c0-0.5,0-0.8,0-0.9c-0.1-0.3-0.2-0.6-0.5-0.7h1.3c0.3,0,0.6,0,0.8,0
		c0.2,0,0.6,0,1,0c1.4,0,2.4,0.3,3.3,1C264.3,58.9,264.8,59.9,264.8,61.1z M263.4,61.3c0-1-0.3-1.8-0.9-2.4c-0.6-0.6-1.4-1-2.5-1
		c-0.3,0-0.7,0-1.2,0.1v6.3c0.3,0.1,0.6,0.1,0.9,0.1c1.1,0,1.9-0.2,2.4-0.6C263,63.2,263.4,62.4,263.4,61.3z"/>
	<path fill="#DBA9A9" d="M268.3,65.4h-2.4c0.3-0.1,0.4-0.4,0.5-0.7c0-0.1,0-0.4,0-0.9v-5.1c0-0.5,0-0.8,0-0.9
		c-0.1-0.3-0.2-0.6-0.5-0.7h2.4c-0.3,0.1-0.4,0.4-0.5,0.7c0,0.1,0,0.4,0,0.9v5.1c0,0.5,0,0.8,0,0.9C267.8,65,268,65.2,268.3,65.4z"
		/>
	<path fill="#DBA9A9" d="M275.4,63c0,0.6-0.3,1.2-0.8,1.7c-0.6,0.6-1.5,0.9-2.7,0.9c-0.8,0-1.5-0.1-2.2-0.4l-0.4-1.6
		c0.9,0.7,1.8,1,2.8,1c0.5,0,1-0.1,1.4-0.4c0.4-0.2,0.5-0.6,0.5-0.9c0-0.4-0.1-0.7-0.4-0.9c-0.2-0.2-0.8-0.5-1.6-0.9
		c-0.8-0.4-1.4-0.7-1.7-1c-0.4-0.4-0.7-0.9-0.7-1.5c0-0.7,0.3-1.2,0.9-1.6c0.6-0.4,1.3-0.6,2.3-0.6c0.6,0,1.3,0.1,1.9,0.3v1.4
		c-0.6-0.6-1.2-0.8-2-0.8c-0.5,0-0.9,0.1-1.2,0.3c-0.3,0.2-0.5,0.5-0.5,0.9c0,0.3,0.1,0.6,0.4,0.8s0.7,0.5,1.5,0.8
		c0.9,0.4,1.5,0.8,1.8,1C275.2,61.9,275.4,62.4,275.4,63z"/>
	<path fill="#DBA9A9" d="M285.6,61.2c0,1.2-0.5,2.3-1.4,3.1c-0.9,0.9-2,1.3-3.3,1.3c-1.3,0-2.4-0.4-3.3-1.3
		c-0.9-0.8-1.3-1.9-1.3-3.1c0-1.3,0.5-2.3,1.4-3.2c0.9-0.8,2.1-1.3,3.4-1.3c1.3,0,2.4,0.4,3.2,1.2c0.4,0.4,0.7,0.9,0.9,1.4
		C285.5,60,285.6,60.6,285.6,61.2z M284.2,61.4c0-1-0.3-1.8-0.9-2.5c-0.6-0.7-1.4-1.1-2.4-1.1c-0.9,0-1.7,0.3-2.3,0.9
		c-0.6,0.6-0.9,1.4-0.9,2.4c0,1,0.3,1.9,1,2.7c0.6,0.6,1.3,0.9,2.2,0.9c0.9,0,1.7-0.3,2.3-0.9C283.9,63.2,284.2,62.4,284.2,61.4z"/>
	<path fill="#DBA9A9" d="M295.1,57c-0.3,0.2-0.5,0.4-0.5,0.6c-0.1,0.2-0.1,0.5-0.1,0.9v7.3c-0.6-0.2-1.2-0.6-1.7-1.3l-4.4-5.6v5.1
		c0,0.4,0,0.7,0.1,0.9c0.1,0.2,0.3,0.4,0.5,0.6h-2.3c0.3-0.2,0.5-0.4,0.5-0.6s0.1-0.5,0.1-0.9v-5.4c0-0.4,0-0.7-0.1-0.9
		c-0.1-0.2-0.3-0.4-0.5-0.6h1.8c0,0,0.1,0.2,0.3,0.5l4.7,6v-5c0-0.4,0-0.7-0.1-0.9c-0.1-0.2-0.3-0.4-0.5-0.6L295.1,57L295.1,57z"/>
</g>
<g enable-background="new    ">
	<path fill="#FFFFFF" d="M92.6,42.7l-2.1,4.8c-2,0.8-4.1,1.2-6.4,1.2c-4.7,0-8.5-1.3-11.3-3.9c-2.8-2.6-4.3-6-4.3-10.3
		c0-4.1,1.4-7.5,4.1-10.2s6.2-4.1,10.5-4.1c2.1,0,4.5,0.4,7.4,1.1V26c-2.6-1.5-5.1-2.3-7.5-2.3c-2.9,0-5.2,0.9-7.1,2.8
		c-1.8,1.9-2.7,4.3-2.7,7.2c0,3.2,1,6,3,8.2c2,2.2,4.5,3.4,7.4,3.4C86.2,45.3,89.2,44.5,92.6,42.7z"/>
	<path fill="#FFFFFF" d="M122.9,48h-8.5c1-0.6,1.5-1.1,1.5-1.6c0-0.3-0.2-1.1-0.7-2.3l-2.4-6.3h-10.4l-2.3,6.3
		c-0.3,0.8-0.5,1.5-0.5,2.1c0,0.7,0.5,1.3,1.5,1.8h-7.6c0.9-0.6,1.6-1.2,2.1-1.9c0.4-0.6,1-1.9,1.8-3.7l7.3-18.1
		c0.3-0.8,0.5-1.4,0.5-1.9c0-0.6-0.4-1.2-1.2-1.6h6.6l8.7,21.6c0.6,1.6,1.2,2.8,1.8,3.6C121.3,46.8,122,47.5,122.9,48z M111.7,35.1
		l-4.2-10.8l-4.2,10.8H111.7z"/>
	<path fill="#FFFFFF" d="M144,42.5l-2.2,5.5H125c0.9-0.5,1.4-1.2,1.7-2.3c0.1-0.5,0.2-1.5,0.2-3V26.2c0-1.5-0.1-2.5-0.2-3
		c-0.2-1.1-0.8-1.8-1.7-2.3h7.8c-0.9,0.5-1.4,1.2-1.7,2.3c-0.1,0.5-0.2,1.5-0.2,3v18.5c1.9,0.3,3.8,0.4,5.5,0.4
		c1.5,0,2.8-0.2,3.8-0.5C141.4,44.2,142.6,43.5,144,42.5z"/>
	<path fill="#FFFFFF" d="M166.1,40.1c0,2.1-0.8,3.9-2.5,5.6c-2.1,2-5,3-8.6,3c-2.5,0-4.9-0.4-7.3-1.3l-1.2-5.1
		c2.8,2.2,5.8,3.3,9,3.3c1.7,0,3.2-0.4,4.4-1.2c1.2-0.8,1.8-1.8,1.8-3c0-1.1-0.5-2.1-1.4-2.9c-0.8-0.7-2.5-1.6-5.3-2.9
		c-2.7-1.2-4.6-2.3-5.7-3.3c-1.4-1.3-2.1-2.9-2.1-4.8c0-2.2,0.9-4,2.8-5.3c1.9-1.3,4.3-2,7.5-2c2.1,0,4.1,0.3,6.3,0.9v4.7
		c-1.8-1.8-4-2.7-6.5-2.7c-1.6,0-2.9,0.4-3.9,1.1c-1,0.7-1.5,1.6-1.5,2.8c0,1,0.4,1.9,1.2,2.6c0.8,0.7,2.4,1.6,4.9,2.8
		c2.9,1.4,4.9,2.5,6,3.3C165.4,36.8,166.1,38.3,166.1,40.1z"/>
</g>
<g enable-background="new    ">
	<path fill="#FFFFFF" d="M181.4,31.4h-2.8c0.3-0.2,0.5-0.4,0.6-0.8c0-0.2,0.1-0.5,0.1-1.1v-6c0-0.5,0-0.9-0.1-1.1
		c-0.1-0.4-0.3-0.7-0.6-0.8h2.8c-0.3,0.2-0.5,0.4-0.6,0.8c0,0.2-0.1,0.5-0.1,1.1v6c0,0.5,0,0.9,0.1,1.1
		C180.9,30.9,181.1,31.2,181.4,31.4z"/>
	<path fill="#FFFFFF" d="M189.9,31.4h-2.5c0.3-0.2,0.4-0.4,0.5-0.5c0.1-0.1,0.1-0.5,0.1-0.9v-2.4c0-0.7-0.1-1.2-0.3-1.5
		c-0.3-0.4-0.8-0.6-1.5-0.6c-0.3,0-0.6,0.1-0.9,0.2s-0.5,0.3-0.6,0.6c-0.1,0.1-0.1,0.4-0.1,0.7v3c0,0.5,0,0.8,0.1,0.9
		c0.1,0.1,0.2,0.3,0.5,0.5h-2.5c0.3-0.2,0.4-0.4,0.5-0.5c0.1-0.1,0.1-0.5,0.1-0.9V26c0-0.5,0-0.8-0.1-0.9s-0.2-0.3-0.5-0.5h1
		c0.4,0,0.7-0.1,0.9-0.3v1.2c0.7-0.8,1.4-1.1,2.2-1.1c0.5,0,1,0.1,1.4,0.3c0.5,0.3,0.8,0.6,1,1c0.1,0.3,0.2,0.9,0.2,1.7v2.5
		c0,0.5,0,0.8,0.1,0.9C189.5,31,189.7,31.2,189.9,31.4z"/>
	<path fill="#FFFFFF" d="M195.9,21.4l-1,1.1c-0.2-0.2-0.5-0.2-0.8-0.2c-0.4,0-0.7,0.1-0.9,0.4c-0.1,0.1-0.1,0.4-0.1,0.9v0.9h1.5
		c0.2,0,0.4,0,0.5-0.1v1.3c-0.1-0.2-0.4-0.2-0.8-0.2H193v3.9c0,0.7,0.1,1.2,0.2,1.5c0.1,0.2,0.3,0.4,0.4,0.5h-2.5
		c0.3-0.2,0.4-0.4,0.5-0.5c0.1-0.1,0.1-0.5,0.1-0.9v-4.4H191l0.7-1v-0.7c0-0.8,0.3-1.4,0.8-1.8c0.5-0.5,1.3-0.7,2.4-0.7
		C195.2,21.3,195.5,21.4,195.9,21.4z"/>
	<path fill="#FFFFFF" d="M203.2,27.9c0,1-0.4,1.9-1.1,2.6c-0.8,0.7-1.7,1.1-2.8,1.1c-1.1,0-2-0.3-2.7-1c-0.7-0.7-1.1-1.5-1.1-2.6
		c0-1.2,0.5-2.1,1.4-2.8c0.7-0.5,1.6-0.8,2.6-0.8c1,0,1.9,0.3,2.6,1C202.8,26,203.2,26.9,203.2,27.9z M201.7,28.1
		c0-0.8-0.2-1.5-0.7-2c-0.4-0.5-1-0.8-1.8-0.8c-0.7,0-1.2,0.2-1.6,0.7c-0.4,0.5-0.6,1.1-0.6,1.8c0,0.8,0.2,1.5,0.7,2s1,0.8,1.7,0.8
		c0.7,0,1.2-0.2,1.7-0.7S201.7,28.9,201.7,28.1z"/>
	<path fill="#FFFFFF" d="M208.6,25.8c-0.2-0.2-0.4-0.2-0.7-0.2c-0.6,0-1,0.2-1.3,0.6c-0.2,0.3-0.3,0.7-0.3,1.3v2.4
		c0,0.5,0,0.8,0.1,0.9c0.1,0.1,0.2,0.3,0.5,0.5h-2.5c0.3-0.2,0.4-0.4,0.5-0.5c0.1-0.1,0.1-0.5,0.1-0.9V26c0-0.5,0-0.8-0.1-0.9
		s-0.2-0.3-0.5-0.5h1c0.4,0,0.7-0.1,0.9-0.3v1.2c0.4-0.8,1-1.1,1.8-1.1c0.1,0,0.3,0,0.5,0.1V25.8z"/>
	<path fill="#FFFFFF" d="M221.3,31.4h-2.6c0.3-0.2,0.4-0.4,0.5-0.5c0.1-0.1,0.1-0.5,0.1-0.9v-2.3c0-0.8-0.1-1.3-0.4-1.6
		c-0.3-0.4-0.7-0.6-1.3-0.6c-0.7,0-1.2,0.3-1.5,0.8c-0.1,0.2-0.2,0.6-0.2,1.1v2.5c0,0.5,0,0.8,0.1,0.9c0.1,0.1,0.2,0.3,0.5,0.5h-2.5
		c0.3-0.2,0.4-0.4,0.5-0.5c0.1-0.1,0.1-0.5,0.1-0.9v-2.4c0-0.7-0.2-1.2-0.5-1.5c-0.3-0.3-0.7-0.5-1.2-0.5c-0.7,0-1.2,0.3-1.5,0.8
		c-0.1,0.2-0.2,0.5-0.2,1v2.6c0,0.5,0,0.8,0.1,0.9c0.1,0.1,0.2,0.3,0.5,0.5h-2.5c0.3-0.2,0.4-0.4,0.5-0.5c0.1-0.1,0.1-0.5,0.1-0.9
		V26c0-0.5,0-0.8-0.1-0.9s-0.2-0.3-0.5-0.5h1c0.4,0,0.6-0.1,0.8-0.3v1.2c0.6-0.8,1.3-1.2,2.2-1.2c1,0,1.7,0.4,2.3,1.3
		c0.4-0.5,0.7-0.8,1.1-1c0.3-0.2,0.8-0.3,1.3-0.3c0.5,0,1,0.1,1.4,0.3c0.5,0.2,0.8,0.6,1,1c0.1,0.3,0.2,0.8,0.2,1.6v2.6
		c0,0.4,0,0.7,0.1,0.9C220.8,31.1,221,31.3,221.3,31.4z"/>
	<path fill="#FFFFFF" d="M229.4,30.5l-0.7,1c-0.7,0-1.1-0.2-1.4-0.3c-0.3-0.2-0.4-0.4-0.5-0.7c0-0.2-0.1-0.5-0.1-0.9v-1.9
		c-0.3,0.2-1,0.3-1.9,0.6c-0.7,0.2-1.1,0.5-1.1,1.1c0,0.4,0.1,0.7,0.4,0.9s0.7,0.3,1.2,0.3c0.3,0,0.7-0.1,1.1-0.2l-0.9,1.1
		c-0.3,0.1-0.5,0.1-0.8,0.1c-0.7,0-1.3-0.2-1.8-0.6c-0.5-0.4-0.8-1-0.8-1.6c0-0.7,0.3-1.2,0.8-1.5c0.4-0.2,1-0.4,1.9-0.6
		c0.7-0.1,1.1-0.3,1.3-0.4c0.2-0.1,0.3-0.3,0.3-0.6c0-0.3-0.1-0.5-0.4-0.7c-0.3-0.2-0.6-0.3-1-0.3c-0.5,0-1.2,0.2-2,0.6l1-1.5
		c0.3-0.1,0.7-0.1,1-0.1c1.2,0,2.1,0.3,2.5,1c0.2,0.3,0.3,0.9,0.3,1.8V29c0,0.4,0,0.6,0,0.8c0.1,0.2,0.2,0.4,0.4,0.6
		C228.7,30.5,229,30.5,229.4,30.5z"/>
	<path fill="#FFFFFF" d="M234.2,30.4l-0.8,1.1c-0.2,0.1-0.3,0.1-0.5,0.1c-0.6,0-1.1-0.2-1.5-0.6c-0.3-0.3-0.4-0.6-0.5-1
		c0-0.2,0-0.6,0-1.1v-3.3h-1V25c0.5-0.1,0.9-0.3,1.2-0.6c0.4-0.4,0.5-1,0.5-1.8v-0.2h0.6v2.2h1.1c0.4,0,0.7,0,0.9-0.1v1.3
		c-0.2-0.2-0.5-0.3-0.9-0.3h-1.1v3.1c0,0.7,0.1,1.2,0.3,1.4c0.3,0.3,0.6,0.5,1.1,0.5C233.8,30.6,234,30.5,234.2,30.4z"/>
	<path fill="#FFFFFF" d="M237.3,31.4h-2.5c0.3-0.2,0.4-0.4,0.5-0.5c0.1-0.1,0.1-0.5,0.1-0.9V26c0-0.5,0-0.8-0.1-0.9
		c-0.1-0.1-0.2-0.3-0.5-0.5h1c0.4,0,0.7-0.1,0.9-0.3v5.6c0,0.5,0,0.8,0.1,0.9C236.9,31,237.1,31.2,237.3,31.4z M237,22.7
		c0,0.3-0.1,0.5-0.3,0.7c-0.2,0.2-0.4,0.3-0.7,0.3c-0.3,0-0.5-0.1-0.6-0.3c-0.2-0.2-0.3-0.4-0.3-0.7c0-0.3,0.1-0.5,0.3-0.6
		c0.2-0.2,0.4-0.3,0.7-0.3c0.2,0,0.5,0.1,0.6,0.3C236.9,22.3,237,22.5,237,22.7z"/>
	<path fill="#FFFFFF" d="M246.2,27.9c0,1-0.4,1.9-1.1,2.6c-0.8,0.7-1.7,1.1-2.8,1.1c-1.1,0-2-0.3-2.7-1c-0.7-0.7-1.1-1.5-1.1-2.6
		c0-1.2,0.5-2.1,1.4-2.8c0.7-0.5,1.6-0.8,2.6-0.8c1,0,1.9,0.3,2.6,1C245.8,26,246.2,26.9,246.2,27.9z M244.6,28.1
		c0-0.8-0.2-1.5-0.7-2c-0.4-0.5-1-0.8-1.8-0.8c-0.7,0-1.2,0.2-1.6,0.7c-0.4,0.5-0.6,1.1-0.6,1.8c0,0.8,0.2,1.5,0.7,2
		c0.5,0.5,1,0.8,1.7,0.8c0.7,0,1.2-0.2,1.7-0.7S244.6,28.9,244.6,28.1z"/>
	<path fill="#FFFFFF" d="M254.5,31.4H252c0.3-0.2,0.4-0.4,0.5-0.5c0.1-0.1,0.1-0.5,0.1-0.9v-2.4c0-0.7-0.1-1.2-0.3-1.5
		c-0.3-0.4-0.8-0.6-1.5-0.6c-0.3,0-0.6,0.1-0.9,0.2s-0.5,0.3-0.6,0.6c-0.1,0.1-0.1,0.4-0.1,0.7v3c0,0.5,0,0.8,0.1,0.9
		c0.1,0.1,0.2,0.3,0.5,0.5h-2.5c0.3-0.2,0.4-0.4,0.5-0.5c0.1-0.1,0.1-0.5,0.1-0.9V26c0-0.5,0-0.8-0.1-0.9c-0.1-0.1-0.2-0.3-0.5-0.5
		h1c0.4,0,0.7-0.1,0.9-0.3v1.2c0.7-0.8,1.4-1.1,2.2-1.1c0.5,0,1,0.1,1.4,0.3c0.5,0.3,0.8,0.6,1,1c0.1,0.3,0.2,0.9,0.2,1.7v2.5
		c0,0.5,0,0.8,0.1,0.9C254.1,31,254.2,31.2,254.5,31.4z"/>
	<path fill="#FFFFFF" d="M266.3,21.6l-0.5,1.8c-0.1-0.3-0.3-0.4-0.6-0.5c-0.2,0-0.4-0.1-0.8-0.1c-0.1,0-0.2,0-0.4,0
		c-0.2,0-0.4,0-0.7,0h-0.2v6.8c0,0.5,0.1,0.8,0.2,1.1s0.3,0.5,0.6,0.7H261c0.3-0.2,0.5-0.4,0.6-0.8c0-0.2,0.1-0.5,0.1-1.1v-6.7
		c-0.3,0-0.7,0-1.2,0c-0.4,0-0.8,0-1,0.1c-0.3,0.1-0.6,0.2-0.9,0.5l0.5-1.8c0.2,0.1,0.4,0.1,0.8,0.1h5.6c0.1,0,0.3,0,0.6,0
		C266.1,21.6,266.2,21.6,266.3,21.6z"/>
	<path fill="#FFFFFF" d="M272.9,29.8l-0.8,1.4c-0.6,0.2-1.3,0.4-2,0.4c-1.2,0-2.2-0.3-3-1c-0.8-0.7-1.2-1.5-1.2-2.6
		c0-1.1,0.4-2,1.2-2.7c0.6-0.6,1.4-0.9,2.5-0.9c1,0,1.8,0.3,2.4,0.9c0.6,0.6,1,1.4,1,2.3v0.2h-5.4c0,0.9,0.3,1.5,0.8,2
		c0.5,0.5,1.2,0.7,2.1,0.7C271.3,30.6,272.1,30.3,272.9,29.8z M271.3,26.9c-0.2-1.1-0.8-1.7-1.9-1.7c-1.1,0-1.7,0.6-1.9,1.7H271.3z"
		/>
	<path fill="#FFFFFF" d="M280.8,29.9l-0.9,1.4c-0.4,0.2-1.1,0.3-1.9,0.3c-1.2,0-2.1-0.3-2.9-1c-0.8-0.6-1.1-1.5-1.1-2.5
		c0-1.1,0.4-2,1.2-2.7c0.8-0.7,1.8-1,3-1c0.5,0,1.1,0.1,1.6,0.2v1.5c-0.5-0.5-1.1-0.7-1.8-0.7s-1.3,0.2-1.8,0.7
		c-0.4,0.4-0.7,1-0.7,1.8c0,0.8,0.3,1.5,0.9,2c0.6,0.5,1.3,0.8,2.2,0.8C279.3,30.6,280,30.4,280.8,29.9z"/>
	<path fill="#FFFFFF" d="M288.4,31.4H286c0.3-0.2,0.4-0.4,0.5-0.5s0.1-0.5,0.1-0.9v-2.6c0-0.6-0.1-1-0.3-1.3
		c-0.3-0.4-0.8-0.6-1.4-0.6c-0.6,0-1.1,0.2-1.4,0.6c-0.1,0.1-0.2,0.3-0.2,0.4s0,0.4,0,0.8v2.7c0,0.5,0,0.8,0.1,0.9
		c0.1,0.1,0.2,0.3,0.5,0.5h-2.5c0.3-0.2,0.4-0.4,0.5-0.5c0.1-0.1,0.1-0.5,0.1-0.9v-6.8c0-0.5,0-0.8-0.1-0.9
		c-0.1-0.1-0.2-0.3-0.5-0.5h1c0.4,0,0.7-0.1,0.9-0.3v3.9c0.5-0.6,1.2-0.9,2.2-0.9c1,0,1.7,0.3,2.1,1c0.2,0.3,0.4,0.8,0.4,1.5v3.1
		c0,0.5,0,0.8,0.1,0.9S288.2,31.2,288.4,31.4z"/>
	<path fill="#FFFFFF" d="M296.7,31.4h-2.5c0.3-0.2,0.4-0.4,0.5-0.5s0.1-0.5,0.1-0.9v-2.4c0-0.7-0.1-1.2-0.3-1.5
		c-0.3-0.4-0.8-0.6-1.5-0.6c-0.3,0-0.6,0.1-0.9,0.2s-0.5,0.3-0.6,0.6c-0.1,0.1-0.1,0.4-0.1,0.7v3c0,0.5,0,0.8,0.1,0.9
		c0.1,0.1,0.2,0.3,0.5,0.5h-2.5c0.3-0.2,0.4-0.4,0.5-0.5c0.1-0.1,0.1-0.5,0.1-0.9V26c0-0.5,0-0.8-0.1-0.9c-0.1-0.1-0.2-0.3-0.5-0.5
		h1c0.4,0,0.7-0.1,0.9-0.3v1.2c0.7-0.8,1.4-1.1,2.2-1.1c0.5,0,1,0.1,1.4,0.3c0.5,0.3,0.8,0.6,1,1c0.1,0.3,0.2,0.9,0.2,1.7v2.5
		c0,0.5,0,0.8,0.1,0.9C296.3,31,296.5,31.2,296.7,31.4z"/>
	<path fill="#FFFFFF" d="M305.5,27.9c0,1-0.4,1.9-1.1,2.6c-0.8,0.7-1.7,1.1-2.8,1.1c-1.1,0-2-0.3-2.7-1c-0.7-0.7-1.1-1.5-1.1-2.6
		c0-1.2,0.5-2.1,1.4-2.8c0.7-0.5,1.6-0.8,2.6-0.8c1,0,1.9,0.3,2.6,1C305.2,26,305.5,26.9,305.5,27.9z M304,28.1c0-0.8-0.2-1.5-0.7-2
		c-0.4-0.5-1-0.8-1.8-0.8c-0.7,0-1.2,0.2-1.6,0.7c-0.4,0.5-0.6,1.1-0.6,1.8c0,0.8,0.2,1.5,0.7,2c0.5,0.5,1,0.8,1.7,0.8
		c0.7,0,1.2-0.2,1.7-0.7S304,28.9,304,28.1z"/>
	<path fill="#FFFFFF" d="M309.1,31.4h-2.5c0.3-0.2,0.4-0.4,0.5-0.5c0.1-0.1,0.1-0.5,0.1-0.9v-6.8c0-0.5,0-0.8-0.1-0.9
		c-0.1-0.1-0.2-0.3-0.5-0.5h1c0.4,0,0.7-0.1,0.9-0.3v8.6c0,0.5,0,0.8,0.1,0.9C308.7,31,308.8,31.2,309.1,31.4z"/>
	<path fill="#FFFFFF" d="M317.9,27.9c0,1-0.4,1.9-1.1,2.6c-0.8,0.7-1.7,1.1-2.8,1.1c-1.1,0-2-0.3-2.7-1c-0.7-0.7-1.1-1.5-1.1-2.6
		c0-1.2,0.5-2.1,1.4-2.8c0.7-0.5,1.6-0.8,2.6-0.8c1,0,1.9,0.3,2.6,1C317.5,26,317.9,26.9,317.9,27.9z M316.4,28.1
		c0-0.8-0.2-1.5-0.7-2c-0.4-0.5-1-0.8-1.8-0.8c-0.7,0-1.2,0.2-1.6,0.7c-0.4,0.5-0.6,1.1-0.6,1.8c0,0.8,0.2,1.5,0.7,2
		c0.5,0.5,1,0.8,1.7,0.8c0.7,0,1.2-0.2,1.7-0.7S316.4,28.9,316.4,28.1z"/>
	<path fill="#FFFFFF" d="M327.1,24.4l-0.4,1c-0.1,0.1-0.2,0.2-0.4,0.2c-0.3,0-0.8-0.1-1.6-0.2c0.7,0.5,1.1,1.1,1.1,1.8
		c0,0.9-0.6,1.6-1.7,2c-0.4,0.1-0.9,0.2-1.5,0.3c-0.4,0.1-0.6,0.2-0.6,0.4c0,0.2,0.2,0.3,0.6,0.3c1.1,0,2,0.1,2.5,0.2
		c0.6,0.2,1.1,0.5,1.4,0.9c0.2,0.3,0.3,0.6,0.3,1.1c0,0.9-0.5,1.5-1.4,2c-0.8,0.4-1.6,0.6-2.6,0.6c-1.1,0-2.1-0.2-2.9-0.6
		c-0.8-0.4-1.2-0.9-1.2-1.5c0-0.4,0.1-0.7,0.4-0.9c0.2-0.2,0.6-0.3,1-0.3c0.3,0,0.5,0.1,0.8,0.2c-0.4,0.1-0.7,0.3-0.7,0.7
		c0,0.5,0.2,0.9,0.7,1.2c0.5,0.3,1.1,0.4,1.8,0.4c0.8,0,1.4-0.1,1.9-0.4s0.7-0.7,0.7-1.2c0-0.9-1-1.4-3-1.4c-0.3,0-0.6,0-0.7,0
		s-0.2,0-0.3,0c-0.3,0-0.5-0.1-0.7-0.3c-0.2-0.2-0.3-0.5-0.3-0.8c0-0.1,0.1-0.3,0.2-0.4s0.5-0.2,1-0.4c-0.4-0.1-0.8-0.3-1.1-0.5
		c-0.5-0.5-0.8-1.1-0.8-1.8c0-0.7,0.3-1.3,0.9-1.8s1.3-0.7,2.2-0.7c0.2,0,0.6,0,1.3,0.1c0.5,0,1,0.1,1.4,0.1
		C325.8,24.5,326.4,24.5,327.1,24.4z M324.3,27c0-0.5-0.2-0.9-0.5-1.3c-0.4-0.3-0.8-0.5-1.3-0.5c-0.4,0-0.8,0.1-1.1,0.4
		c-0.3,0.3-0.4,0.6-0.4,1c0,0.5,0.2,1,0.6,1.3s0.8,0.6,1.3,0.6c0.4,0,0.8-0.1,1.1-0.4S324.3,27.5,324.3,27z"/>
	<path fill="#FFFFFF" d="M334.9,24.6l-3.2,7.5c-0.3,0.8-0.7,1.3-1.1,1.7c-0.5,0.4-1.2,0.6-2,0.6c-0.5,0-1.1-0.1-1.8-0.4l1.3-1
		c0.3,0.2,0.6,0.3,0.8,0.3c0.8,0,1.3-0.6,1.7-1.7l0.1-0.4c-0.3-0.3-0.6-0.7-0.8-1.1l-2-4.3c-0.2-0.4-0.4-0.7-0.5-0.9
		s-0.4-0.3-0.6-0.4l1.4-0.1c0.2,0,0.4,0,0.4,0c0.1,0,0.2,0.2,0.3,0.5l2.3,5.1l1.6-3.9c0.1-0.4,0.2-0.7,0.2-0.9
		c0-0.3-0.1-0.5-0.4-0.7H334.9z"/>
</g>
<g enable-background="new    ">
	<path fill="#FFFFFF" d="M187.9,46h-3.1c0.4-0.2,0.5-0.4,0.5-0.6c0-0.1-0.1-0.4-0.3-0.8l-0.9-2.3h-3.7l-0.8,2.3
		c-0.1,0.3-0.2,0.6-0.2,0.8c0,0.3,0.2,0.5,0.5,0.7h-2.7c0.3-0.2,0.6-0.4,0.7-0.7c0.2-0.2,0.4-0.7,0.6-1.3l2.6-6.5
		c0.1-0.3,0.2-0.5,0.2-0.7c0-0.2-0.1-0.4-0.4-0.6h2.4l3.1,7.7c0.2,0.6,0.4,1,0.6,1.3C187.3,45.6,187.6,45.8,187.9,46z M183.9,41.4
		l-1.5-3.9l-1.5,3.9H183.9z"/>
	<path fill="#FFFFFF" d="M195.8,46h-1.9v-3.4c0-0.5,0-0.8,0-1c-0.1-0.3-0.2-0.6-0.4-0.9c-0.4-0.5-1-0.8-1.7-0.8
		c-0.6,0-1.2,0.2-1.6,0.7c-0.4,0.5-0.6,1-0.6,1.7c0,0.8,0.2,1.5,0.7,2s1.1,0.8,1.8,0.8c0.4,0,0.9-0.1,1.3-0.4l-0.9,1.3
		c-0.2,0.1-0.5,0.1-0.7,0.1c-0.9,0-1.6-0.2-2.2-0.6c-1-0.7-1.6-1.7-1.6-3c0-1,0.3-1.9,1-2.6c0.7-0.7,1.5-1,2.5-1
		c0.8,0,1.6,0.3,2.3,0.9v-2.1c0-0.5,0-0.8-0.1-0.9c-0.1-0.1-0.2-0.3-0.5-0.5h1c0.4,0,0.7-0.1,0.9-0.3v8.6c0,0.5,0,0.8,0.1,0.9
		C195.4,45.6,195.5,45.8,195.8,46z"/>
	<path fill="#FFFFFF" d="M208.7,46h-2.6c0.3-0.2,0.4-0.4,0.5-0.5c0.1-0.1,0.1-0.5,0.1-0.9v-2.3c0-0.8-0.1-1.3-0.4-1.6
		c-0.3-0.4-0.7-0.6-1.3-0.6c-0.7,0-1.2,0.3-1.5,0.8c-0.1,0.2-0.2,0.6-0.2,1.1v2.5c0,0.5,0,0.8,0.1,0.9c0.1,0.1,0.2,0.3,0.5,0.5h-2.5
		c0.3-0.2,0.4-0.4,0.5-0.5s0.1-0.5,0.1-0.9v-2.4c0-0.7-0.2-1.2-0.5-1.5s-0.7-0.5-1.2-0.5c-0.7,0-1.2,0.3-1.5,0.8
		c-0.1,0.2-0.2,0.5-0.2,1v2.6c0,0.5,0,0.8,0.1,0.9s0.2,0.3,0.5,0.5h-2.5c0.3-0.2,0.4-0.4,0.5-0.5c0.1-0.1,0.1-0.5,0.1-0.9v-3.9
		c0-0.5,0-0.8-0.1-0.9s-0.2-0.3-0.5-0.5h1c0.4,0,0.6-0.1,0.8-0.3v1.2c0.6-0.8,1.3-1.2,2.2-1.2c1,0,1.7,0.4,2.3,1.3
		c0.4-0.5,0.7-0.8,1.1-1c0.4-0.2,0.8-0.3,1.3-0.3c0.5,0,1,0.1,1.4,0.3c0.5,0.2,0.8,0.6,1,1c0.1,0.3,0.2,0.8,0.2,1.6v2.6
		c0,0.4,0,0.7,0.1,0.9C208.2,45.7,208.4,45.9,208.7,46z"/>
	<path fill="#FFFFFF" d="M212.3,46h-2.5c0.3-0.2,0.4-0.4,0.5-0.5c0.1-0.1,0.1-0.5,0.1-0.9v-3.9c0-0.5,0-0.8-0.1-0.9
		s-0.2-0.3-0.5-0.5h1c0.4,0,0.7-0.1,0.9-0.3v5.6c0,0.5,0,0.8,0.1,0.9C211.9,45.6,212,45.8,212.3,46z M212,37.4
		c0,0.3-0.1,0.5-0.3,0.7c-0.2,0.2-0.4,0.3-0.7,0.3c-0.3,0-0.5-0.1-0.6-0.3c-0.2-0.2-0.3-0.4-0.3-0.7c0-0.3,0.1-0.5,0.3-0.6
		c0.2-0.2,0.4-0.3,0.7-0.3c0.2,0,0.5,0.1,0.6,0.3C211.9,36.9,212,37.1,212,37.4z"/>
	<path fill="#FFFFFF" d="M220.6,46h-2.5c0.3-0.2,0.4-0.4,0.5-0.5c0.1-0.1,0.1-0.5,0.1-0.9v-2.4c0-0.7-0.1-1.2-0.3-1.5
		c-0.3-0.4-0.8-0.6-1.5-0.6c-0.3,0-0.6,0.1-0.9,0.2s-0.5,0.3-0.6,0.6c-0.1,0.1-0.1,0.4-0.1,0.7v3c0,0.5,0,0.8,0.1,0.9
		c0.1,0.1,0.2,0.3,0.5,0.5h-2.5c0.3-0.2,0.4-0.4,0.5-0.5c0.1-0.1,0.1-0.5,0.1-0.9v-3.9c0-0.5,0-0.8-0.1-0.9
		c-0.1-0.1-0.2-0.3-0.5-0.5h1c0.4,0,0.7-0.1,0.9-0.3v1.2c0.7-0.8,1.4-1.1,2.2-1.1c0.5,0,1,0.1,1.4,0.3c0.5,0.3,0.8,0.6,1,1
		c0.1,0.3,0.2,0.9,0.2,1.7v2.5c0,0.5,0,0.8,0.1,0.9C220.2,45.6,220.4,45.8,220.6,46z"/>
	<path fill="#FFFFFF" d="M224.2,46h-2.5c0.3-0.2,0.4-0.4,0.5-0.5c0.1-0.1,0.1-0.5,0.1-0.9v-3.9c0-0.5,0-0.8-0.1-0.9
		c-0.1-0.1-0.2-0.3-0.5-0.5h1c0.4,0,0.7-0.1,0.9-0.3v5.6c0,0.5,0,0.8,0.1,0.9C223.8,45.6,223.9,45.8,224.2,46z M223.9,37.4
		c0,0.3-0.1,0.5-0.3,0.7c-0.2,0.2-0.4,0.3-0.7,0.3c-0.3,0-0.5-0.1-0.6-0.3c-0.2-0.2-0.3-0.4-0.3-0.7c0-0.3,0.1-0.5,0.3-0.6
		c0.2-0.2,0.4-0.3,0.7-0.3c0.2,0,0.5,0.1,0.6,0.3C223.8,36.9,223.9,37.1,223.9,37.4z"/>
	<path fill="#FFFFFF" d="M230.9,43.9c0,0.7-0.3,1.3-0.9,1.7c-0.6,0.4-1.4,0.6-2.4,0.6c-0.7,0-1.3-0.1-2-0.4l-0.5-1.5
		c1,0.6,1.9,0.9,2.8,0.9c0.5,0,0.8-0.1,1.1-0.3c0.3-0.2,0.5-0.4,0.5-0.7c0-0.3-0.1-0.5-0.3-0.7c-0.2-0.1-0.6-0.3-1.4-0.6
		c-0.8-0.3-1.4-0.6-1.7-0.9c-0.3-0.3-0.5-0.7-0.5-1.1c0-0.6,0.3-1.1,0.8-1.5c0.5-0.3,1.2-0.5,2.1-0.5c0.6,0,1.2,0.1,1.7,0.2v1.3
		c-0.6-0.4-1.2-0.6-1.8-0.6c-0.4,0-0.7,0.1-1,0.2c-0.3,0.2-0.4,0.4-0.4,0.6c0,0.2,0.1,0.4,0.3,0.5c0.2,0.2,0.6,0.3,1.2,0.5
		c0.9,0.3,1.5,0.6,1.8,0.9C230.7,43,230.9,43.4,230.9,43.9z"/>
	<path fill="#FFFFFF" d="M235.9,45.1l-0.8,1.1c-0.2,0.1-0.3,0.1-0.5,0.1c-0.6,0-1.1-0.2-1.5-0.6c-0.3-0.3-0.4-0.6-0.5-1
		c0-0.2,0-0.6,0-1.1v-3.3h-1v-0.5c0.5-0.1,0.9-0.3,1.2-0.6c0.4-0.4,0.5-1,0.5-1.8V37h0.6v2.2h1.1c0.4,0,0.7,0,0.9-0.1v1.3
		c-0.2-0.2-0.5-0.3-0.9-0.3h-1.1v3.1c0,0.7,0.1,1.2,0.3,1.4c0.3,0.3,0.6,0.5,1.1,0.5C235.4,45.2,235.7,45.1,235.9,45.1z"/>
	<path fill="#FFFFFF" d="M240.8,40.4c-0.2-0.2-0.4-0.2-0.7-0.2c-0.6,0-1,0.2-1.3,0.6c-0.2,0.3-0.3,0.7-0.3,1.3v2.4
		c0,0.5,0,0.8,0.1,0.9c0.1,0.1,0.2,0.3,0.5,0.5h-2.5c0.3-0.2,0.4-0.4,0.5-0.5c0.1-0.1,0.1-0.5,0.1-0.9v-3.9c0-0.5,0-0.8-0.1-0.9
		c-0.1-0.1-0.2-0.3-0.5-0.5h1c0.4,0,0.7-0.1,0.9-0.3v1.2c0.4-0.8,1-1.1,1.8-1.1c0.1,0,0.3,0,0.5,0.1V40.4z"/>
	<path fill="#FFFFFF" d="M248.1,45.1l-0.7,1c-0.7,0-1.1-0.2-1.4-0.3c-0.3-0.2-0.4-0.4-0.5-0.7c0-0.2-0.1-0.5-0.1-0.9v-1.9
		c-0.3,0.2-1,0.3-1.9,0.6c-0.7,0.2-1.1,0.5-1.1,1.1c0,0.4,0.1,0.7,0.4,0.9c0.3,0.2,0.7,0.3,1.2,0.3c0.3,0,0.7-0.1,1.1-0.2l-0.9,1.1
		c-0.3,0.1-0.5,0.1-0.8,0.1c-0.7,0-1.3-0.2-1.8-0.6c-0.5-0.4-0.8-1-0.8-1.6c0-0.7,0.3-1.2,0.8-1.5c0.4-0.2,1-0.4,1.9-0.6
		c0.7-0.1,1.1-0.3,1.3-0.4s0.3-0.3,0.3-0.6c0-0.3-0.1-0.5-0.4-0.7s-0.6-0.3-1-0.3c-0.5,0-1.2,0.2-2,0.6l1-1.5c0.3-0.1,0.7-0.1,1-0.1
		c1.3,0,2.1,0.3,2.5,1c0.2,0.3,0.3,0.9,0.3,1.8v1.9c0,0.4,0,0.6,0,0.8c0.1,0.2,0.2,0.4,0.4,0.6C247.5,45.1,247.8,45.1,248.1,45.1z"
		/>
	<path fill="#FFFFFF" d="M252.9,45.1l-0.8,1.1c-0.2,0.1-0.3,0.1-0.5,0.1c-0.6,0-1.1-0.2-1.5-0.6c-0.3-0.3-0.4-0.6-0.5-1
		c0-0.2,0-0.6,0-1.1v-3.3h-1v-0.5c0.5-0.1,0.9-0.3,1.2-0.6c0.4-0.4,0.5-1,0.5-1.8V37h0.6v2.2h1.1c0.4,0,0.7,0,0.9-0.1v1.3
		c-0.2-0.2-0.5-0.3-0.9-0.3h-1.1v3.1c0,0.7,0.1,1.2,0.3,1.4c0.3,0.3,0.6,0.5,1.1,0.5C252.5,45.2,252.7,45.1,252.9,45.1z"/>
	<path fill="#FFFFFF" d="M256.1,46h-2.5c0.3-0.2,0.4-0.4,0.5-0.5c0.1-0.1,0.1-0.5,0.1-0.9v-3.9c0-0.5,0-0.8-0.1-0.9
		c-0.1-0.1-0.2-0.3-0.5-0.5h1c0.4,0,0.7-0.1,0.9-0.3v5.6c0,0.5,0,0.8,0.1,0.9C255.7,45.6,255.8,45.8,256.1,46z M255.7,37.4
		c0,0.3-0.1,0.5-0.3,0.7c-0.2,0.2-0.4,0.3-0.7,0.3c-0.3,0-0.5-0.1-0.6-0.3c-0.2-0.2-0.3-0.4-0.3-0.7c0-0.3,0.1-0.5,0.3-0.6
		c0.2-0.2,0.4-0.3,0.7-0.3c0.2,0,0.5,0.1,0.6,0.3C255.7,36.9,255.7,37.1,255.7,37.4z"/>
	<path fill="#FFFFFF" d="M264.6,39.2l-3.4,7.4c-0.6-0.3-0.9-0.6-1.1-0.8s-0.4-0.6-0.6-1l-1.7-4c-0.2-0.5-0.4-0.8-0.5-1
		s-0.4-0.3-0.8-0.6h1c0.5,0,0.8-0.1,1.1-0.3c0,0.2,0.1,0.4,0.2,0.7l2.2,5.1l1.8-3.9c0.2-0.4,0.3-0.7,0.3-0.9c0-0.3-0.2-0.5-0.5-0.7
		H264.6z"/>
	<path fill="#FFFFFF" d="M271.9,44.4l-0.8,1.4c-0.6,0.2-1.3,0.4-2,0.4c-1.2,0-2.2-0.3-3-1c-0.8-0.7-1.2-1.5-1.2-2.6
		c0-1.1,0.4-2,1.2-2.7c0.6-0.6,1.4-0.9,2.5-0.9c1,0,1.8,0.3,2.4,0.9c0.6,0.6,1,1.4,1,2.3v0.2h-5.4c0,0.9,0.3,1.5,0.8,2
		s1.2,0.7,2.1,0.7C270.3,45.2,271.1,45,271.9,44.4z M270.3,41.5c-0.2-1.1-0.8-1.7-1.9-1.7c-1.1,0-1.7,0.6-1.9,1.7H270.3z"/>
	<path fill="#FFFFFF" d="M285.3,44.1l-0.7,1.7c-0.7,0.3-1.5,0.4-2.3,0.4c-1.7,0-3-0.5-4.1-1.4c-1-0.9-1.5-2.2-1.5-3.7
		c0-1.5,0.5-2.7,1.5-3.7s2.2-1.5,3.8-1.5c0.7,0,1.6,0.1,2.7,0.4v1.7c-0.9-0.5-1.8-0.8-2.7-0.8c-1,0-1.9,0.3-2.5,1
		c-0.7,0.7-1,1.5-1,2.6c0,1.2,0.4,2.1,1.1,2.9S281,45,282,45C283,45,284.1,44.7,285.3,44.1z"/>
	<path fill="#FFFFFF" d="M293.7,42.5c0,1-0.4,1.9-1.1,2.6c-0.8,0.7-1.7,1.1-2.8,1.1c-1.1,0-2-0.3-2.7-1c-0.7-0.7-1.1-1.5-1.1-2.6
		c0-1.2,0.5-2.1,1.4-2.8c0.7-0.5,1.6-0.8,2.6-0.8c1,0,1.9,0.3,2.6,1C293.4,40.6,293.7,41.5,293.7,42.5z M292.2,42.8
		c0-0.8-0.2-1.5-0.7-2c-0.4-0.5-1-0.8-1.8-0.8c-0.7,0-1.2,0.2-1.6,0.7c-0.4,0.5-0.6,1.1-0.6,1.8c0,0.8,0.2,1.5,0.7,2
		c0.5,0.5,1,0.8,1.7,0.8c0.7,0,1.2-0.2,1.7-0.7S292.2,43.5,292.2,42.8z"/>
	<path fill="#FFFFFF" d="M306.7,46h-2.6c0.3-0.2,0.4-0.4,0.5-0.5c0.1-0.1,0.1-0.5,0.1-0.9v-2.3c0-0.8-0.1-1.3-0.4-1.6
		c-0.3-0.4-0.7-0.6-1.3-0.6c-0.7,0-1.2,0.3-1.5,0.8c-0.1,0.2-0.2,0.6-0.2,1.1v2.5c0,0.5,0,0.8,0.1,0.9c0.1,0.1,0.2,0.3,0.5,0.5h-2.5
		c0.3-0.2,0.4-0.4,0.5-0.5c0.1-0.1,0.1-0.5,0.1-0.9v-2.4c0-0.7-0.2-1.2-0.5-1.5c-0.3-0.3-0.7-0.5-1.2-0.5c-0.7,0-1.2,0.3-1.5,0.8
		c-0.1,0.2-0.2,0.5-0.2,1v2.6c0,0.5,0,0.8,0.1,0.9c0.1,0.1,0.2,0.3,0.5,0.5h-2.5c0.3-0.2,0.4-0.4,0.5-0.5c0.1-0.1,0.1-0.5,0.1-0.9
		v-3.9c0-0.5,0-0.8-0.1-0.9c-0.1-0.1-0.2-0.3-0.5-0.5h1c0.4,0,0.6-0.1,0.8-0.3v1.2c0.6-0.8,1.3-1.2,2.2-1.2c1,0,1.7,0.4,2.3,1.3
		c0.4-0.5,0.7-0.8,1.1-1c0.4-0.2,0.8-0.3,1.3-0.3c0.5,0,1,0.1,1.4,0.3c0.5,0.2,0.8,0.6,1,1c0.1,0.3,0.2,0.8,0.2,1.6v2.6
		c0,0.4,0,0.7,0.1,0.9C306.2,45.7,306.4,45.9,306.7,46z"/>
	<path fill="#FFFFFF" d="M315.4,42.5c0,1.1-0.3,1.9-1,2.7c-0.7,0.7-1.5,1.1-2.5,1.1c-0.4,0-0.8-0.1-1.1-0.2l-0.8-1.2
		c0.6,0.3,1.1,0.4,1.7,0.4c0.7,0,1.3-0.2,1.7-0.7c0.4-0.5,0.6-1.1,0.6-1.9c0-0.8-0.2-1.4-0.6-1.9c-0.4-0.5-1-0.7-1.6-0.7
		c-0.7,0-1.3,0.3-1.7,0.8c-0.2,0.3-0.4,0.8-0.4,1.4v5.5c0,0.4,0,0.7,0.1,0.8c0.1,0.3,0.2,0.5,0.5,0.6h-2.5c0.3-0.2,0.4-0.4,0.5-0.6
		c0-0.1,0.1-0.4,0.1-0.8v-7c0-0.5,0-0.8-0.1-0.9c-0.1-0.1-0.2-0.3-0.5-0.5h1c0.4,0,0.7-0.1,0.9-0.3v1.1c0.6-0.7,1.4-1.1,2.4-1.1
		c1,0,1.8,0.3,2.5,1C315.1,40.6,315.4,41.5,315.4,42.5z"/>
	<path fill="#FFFFFF" d="M323.7,46h-1.8v-1c-0.4,0.4-0.7,0.8-1,0.9s-0.7,0.2-1.2,0.2c-1,0-1.8-0.3-2.2-1c-0.3-0.4-0.4-1-0.4-1.9
		v-2.6c0-0.5,0-0.8-0.1-0.9s-0.2-0.3-0.5-0.5h1c0.4,0,0.7-0.1,0.9-0.3V43c0,0.7,0.1,1.2,0.4,1.5c0.3,0.4,0.7,0.6,1.3,0.6
		c0.5,0,0.9-0.2,1.2-0.5c0.3-0.3,0.5-0.7,0.5-1.3v-2.6c0-0.5,0-0.8-0.1-0.9c-0.1-0.1-0.2-0.3-0.5-0.5h1c0.4,0,0.7-0.1,0.9-0.3v5.6
		c0,0.5,0,0.8,0.1,0.9C323.3,45.6,323.4,45.8,323.7,46z"/>
	<path fill="#FFFFFF" d="M329,45.1l-0.8,1.1c-0.2,0.1-0.3,0.1-0.5,0.1c-0.6,0-1.1-0.2-1.5-0.6c-0.3-0.3-0.4-0.6-0.5-1
		c0-0.2,0-0.6,0-1.1v-3.3h-1v-0.5c0.5-0.1,0.9-0.3,1.2-0.6c0.4-0.4,0.5-1,0.5-1.8V37h0.6v2.2h1.1c0.4,0,0.7,0,0.9-0.1v1.3
		c-0.2-0.2-0.5-0.3-0.9-0.3h-1.1v3.1c0,0.7,0.1,1.2,0.3,1.4c0.3,0.3,0.6,0.5,1.1,0.5C328.5,45.2,328.7,45.1,329,45.1z"/>
	<path fill="#FFFFFF" d="M332.1,46h-2.5c0.3-0.2,0.4-0.4,0.5-0.5c0.1-0.1,0.1-0.5,0.1-0.9v-3.9c0-0.5,0-0.8-0.1-0.9
		c-0.1-0.1-0.2-0.3-0.5-0.5h1c0.4,0,0.7-0.1,0.9-0.3v5.6c0,0.5,0,0.8,0.1,0.9C331.7,45.6,331.9,45.8,332.1,46z M331.8,37.4
		c0,0.3-0.1,0.5-0.3,0.7c-0.2,0.2-0.4,0.3-0.7,0.3c-0.3,0-0.5-0.1-0.6-0.3c-0.2-0.2-0.3-0.4-0.3-0.7c0-0.3,0.1-0.5,0.3-0.6
		c0.2-0.2,0.4-0.3,0.7-0.3c0.2,0,0.5,0.1,0.6,0.3C331.7,36.9,331.8,37.1,331.8,37.4z"/>
	<path fill="#FFFFFF" d="M340.4,46H338c0.3-0.2,0.4-0.4,0.5-0.5c0.1-0.1,0.1-0.5,0.1-0.9v-2.4c0-0.7-0.1-1.2-0.3-1.5
		c-0.3-0.4-0.8-0.6-1.5-0.6c-0.3,0-0.6,0.1-0.9,0.2s-0.5,0.3-0.6,0.6c-0.1,0.1-0.1,0.4-0.1,0.7v3c0,0.5,0,0.8,0.1,0.9
		c0.1,0.1,0.2,0.3,0.5,0.5h-2.5c0.3-0.2,0.4-0.4,0.5-0.5c0.1-0.1,0.1-0.5,0.1-0.9v-3.9c0-0.5,0-0.8-0.1-0.9
		c-0.1-0.1-0.2-0.3-0.5-0.5h1c0.4,0,0.7-0.1,0.9-0.3v1.2c0.7-0.8,1.4-1.1,2.2-1.1c0.5,0,1,0.1,1.4,0.3c0.5,0.3,0.8,0.6,1,1
		c0.1,0.3,0.2,0.9,0.2,1.7v2.5c0,0.5,0,0.8,0.1,0.9C340,45.6,340.2,45.8,340.4,46z"/>
	<path fill="#FFFFFF" d="M349.6,39l-0.4,1c-0.1,0.1-0.2,0.2-0.4,0.2c-0.3,0-0.8-0.1-1.6-0.2c0.7,0.5,1.1,1.1,1.1,1.8
		c0,0.9-0.6,1.6-1.7,2c-0.4,0.1-0.9,0.2-1.5,0.3c-0.4,0.1-0.6,0.2-0.6,0.4c0,0.2,0.2,0.3,0.6,0.3c1.1,0,2,0.1,2.5,0.2
		c0.6,0.2,1.1,0.5,1.4,0.9c0.2,0.3,0.3,0.6,0.3,1.1c0,0.9-0.5,1.5-1.4,2c-0.8,0.4-1.6,0.6-2.6,0.6c-1.1,0-2.1-0.2-2.9-0.6
		c-0.8-0.4-1.2-0.9-1.2-1.5c0-0.4,0.1-0.7,0.4-0.9c0.2-0.2,0.6-0.3,1-0.3c0.3,0,0.5,0.1,0.8,0.2c-0.4,0.1-0.7,0.3-0.7,0.7
		c0,0.5,0.2,0.9,0.7,1.2c0.5,0.3,1.1,0.4,1.8,0.4c0.8,0,1.4-0.1,1.9-0.4s0.7-0.7,0.7-1.2c0-0.9-1-1.4-3-1.4c-0.3,0-0.6,0-0.7,0
		s-0.2,0-0.3,0c-0.3,0-0.5-0.1-0.7-0.3c-0.2-0.2-0.3-0.5-0.3-0.8c0-0.1,0.1-0.3,0.2-0.4s0.5-0.2,1-0.4c-0.4-0.1-0.8-0.3-1.1-0.5
		c-0.5-0.5-0.8-1.1-0.8-1.8c0-0.7,0.3-1.3,0.9-1.8s1.3-0.7,2.2-0.7c0.2,0,0.6,0,1.3,0.1c0.5,0,1,0.1,1.4,0.1
		C348.3,39.1,348.9,39.1,349.6,39z M346.8,41.6c0-0.5-0.2-0.9-0.5-1.3c-0.4-0.3-0.8-0.5-1.3-0.5c-0.4,0-0.8,0.1-1.1,0.4
		c-0.3,0.3-0.4,0.6-0.4,1c0,0.5,0.2,1,0.6,1.3s0.8,0.6,1.3,0.6c0.4,0,0.8-0.1,1.1-0.4S346.8,42.1,346.8,41.6z"/>
	<path fill="#FFFFFF" d="M360.9,43.2c0,0.7-0.3,1.4-0.9,2c-0.8,0.7-1.8,1.1-3.1,1.1c-0.9,0-1.8-0.2-2.6-0.5l-0.4-1.8
		c1,0.8,2.1,1.2,3.2,1.2c0.6,0,1.2-0.1,1.6-0.4s0.6-0.6,0.6-1.1c0-0.4-0.2-0.8-0.5-1c-0.3-0.2-0.9-0.6-1.9-1c-1-0.4-1.7-0.8-2-1.2
		c-0.5-0.5-0.8-1-0.8-1.7c0-0.8,0.3-1.4,1-1.9c0.7-0.5,1.6-0.7,2.7-0.7c0.7,0,1.5,0.1,2.3,0.3V38c-0.7-0.6-1.4-1-2.3-1
		c-0.6,0-1,0.1-1.4,0.4s-0.5,0.6-0.5,1c0,0.4,0.1,0.7,0.4,0.9c0.3,0.2,0.9,0.6,1.8,1c1.1,0.5,1.8,0.9,2.2,1.2
		C360.6,42,360.9,42.5,360.9,43.2z"/>
	<path fill="#FFFFFF" d="M369,44.4l-0.8,1.4c-0.6,0.2-1.3,0.4-2,0.4c-1.2,0-2.2-0.3-3-1c-0.8-0.7-1.2-1.5-1.2-2.6
		c0-1.1,0.4-2,1.2-2.7c0.6-0.6,1.4-0.9,2.5-0.9c1,0,1.8,0.3,2.4,0.9c0.6,0.6,1,1.4,1,2.3v0.2h-5.4c0,0.9,0.3,1.5,0.8,2
		c0.5,0.5,1.2,0.7,2.1,0.7C367.4,45.2,368.3,45,369,44.4z M367.4,41.5c-0.2-1.1-0.8-1.7-1.9-1.7c-1.1,0-1.7,0.6-1.9,1.7H367.4z"/>
	<path fill="#FFFFFF" d="M374.3,40.4c-0.2-0.2-0.4-0.2-0.7-0.2c-0.6,0-1,0.2-1.3,0.6c-0.2,0.3-0.3,0.7-0.3,1.3v2.4
		c0,0.5,0,0.8,0.1,0.9c0.1,0.1,0.2,0.3,0.5,0.5h-2.5c0.3-0.2,0.4-0.4,0.5-0.5c0.1-0.1,0.1-0.5,0.1-0.9v-3.9c0-0.5,0-0.8-0.1-0.9
		c-0.1-0.1-0.2-0.3-0.5-0.5h1c0.4,0,0.7-0.1,0.9-0.3v1.2c0.4-0.8,1-1.1,1.8-1.1c0.1,0,0.3,0,0.5,0.1V40.4z"/>
	<path fill="#FFFFFF" d="M382.9,39.2l-3.4,7.4c-0.6-0.3-0.9-0.6-1.1-0.8s-0.4-0.6-0.6-1l-1.7-4c-0.2-0.5-0.4-0.8-0.5-1
		s-0.4-0.3-0.8-0.6h1c0.5,0,0.8-0.1,1.1-0.3c0,0.2,0.1,0.4,0.2,0.7l2.2,5.1l1.8-3.9c0.2-0.4,0.3-0.7,0.3-0.9c0-0.3-0.2-0.5-0.5-0.7
		H382.9z"/>
	<path fill="#FFFFFF" d="M386,46h-2.5c0.3-0.2,0.4-0.4,0.5-0.5c0.1-0.1,0.1-0.5,0.1-0.9v-3.9c0-0.5,0-0.8-0.1-0.9
		c-0.1-0.1-0.2-0.3-0.5-0.5h1c0.4,0,0.7-0.1,0.9-0.3v5.6c0,0.5,0,0.8,0.1,0.9C385.5,45.6,385.7,45.8,386,46z M385.6,37.4
		c0,0.3-0.1,0.5-0.3,0.7c-0.2,0.2-0.4,0.3-0.7,0.3c-0.3,0-0.5-0.1-0.6-0.3c-0.2-0.2-0.3-0.4-0.3-0.7c0-0.3,0.1-0.5,0.3-0.6
		c0.2-0.2,0.4-0.3,0.7-0.3c0.2,0,0.5,0.1,0.6,0.3C385.5,36.9,385.6,37.1,385.6,37.4z"/>
	<path fill="#FFFFFF" d="M393.9,44.5l-0.9,1.4c-0.4,0.2-1.1,0.3-1.9,0.3c-1.2,0-2.1-0.3-2.9-1c-0.8-0.6-1.1-1.5-1.1-2.5
		c0-1.1,0.4-2,1.2-2.7c0.8-0.7,1.8-1,3-1c0.5,0,1.1,0.1,1.6,0.2v1.5c-0.5-0.5-1.1-0.7-1.8-0.7s-1.3,0.2-1.8,0.7
		c-0.4,0.4-0.7,1-0.7,1.8c0,0.8,0.3,1.5,0.9,2c0.6,0.5,1.3,0.8,2.2,0.8C392.4,45.2,393.1,45,393.9,44.5z"/>
	<path fill="#FFFFFF" d="M401.4,44.4l-0.8,1.4c-0.6,0.2-1.3,0.4-2,0.4c-1.2,0-2.2-0.3-3-1c-0.8-0.7-1.2-1.5-1.2-2.6
		c0-1.1,0.4-2,1.2-2.7c0.6-0.6,1.4-0.9,2.5-0.9c1,0,1.8,0.3,2.4,0.9c0.6,0.6,1,1.4,1,2.3v0.2H396c0,0.9,0.3,1.5,0.8,2
		s1.2,0.7,2.1,0.7C399.8,45.2,400.7,45,401.4,44.4z M399.8,41.5c-0.2-1.1-0.8-1.7-1.9-1.7c-1.1,0-1.7,0.6-1.9,1.7H399.8z"/>
	<path fill="#FFFFFF" d="M408.1,43.9c0,0.7-0.3,1.3-0.9,1.7c-0.6,0.4-1.4,0.6-2.4,0.6c-0.7,0-1.3-0.1-2-0.4l-0.5-1.5
		c1,0.6,1.9,0.9,2.8,0.9c0.5,0,0.8-0.1,1.1-0.3c0.3-0.2,0.5-0.4,0.5-0.7c0-0.3-0.1-0.5-0.3-0.7c-0.2-0.1-0.6-0.3-1.4-0.6
		c-0.8-0.3-1.4-0.6-1.7-0.9c-0.3-0.3-0.5-0.7-0.5-1.1c0-0.6,0.3-1.1,0.8-1.5c0.5-0.3,1.2-0.5,2.1-0.5c0.6,0,1.2,0.1,1.7,0.2v1.3
		c-0.6-0.4-1.2-0.6-1.8-0.6c-0.4,0-0.7,0.1-1,0.2c-0.3,0.2-0.4,0.4-0.4,0.6c0,0.2,0.1,0.4,0.3,0.5c0.2,0.2,0.6,0.3,1.2,0.5
		c0.9,0.3,1.5,0.6,1.8,0.9C407.9,43,408.1,43.4,408.1,43.9z"/>
</g>
</svg>
