<svg xmlns="http://www.w3.org/2000/svg" viewBox="0 0 419.9 88.6" enable-background="new 0 0 419.9 88.6"><radialGradient id="a" cx="-1400.023" cy="578.893" r="10.849" gradientTransform="matrix(3.085 0 0 2.946 4353.786 -1663.813)" gradientUnits="userSpaceOnUse"><stop offset=".166" stop-color="#fff"/><stop offset=".865" stop-color="#C9AB80"/></radialGradient><path fill="url(#a)" d="M59.8 30.6c-.4-4-1.4-7.6-2.6-10.6 0-.1-.2-.4-.2-.5-1.1-2.3-2.4-4.4-3.9-5.9-2.8-2.9-6.2-4.5-10-4.6H43c-.6-1.3-2.3-2.2-3.7-2.4 0 0-.9-3.4-4.5-3.4s-4.5 3.4-4.5 3.4c-1.5.2-3.1 1.1-3.7 2.4h-.1c-3.8 0-7.2 1.6-10 4.6-1.5 1.6-2.8 3.6-3.9 5.9 0 0-.2.4-.2.5-1.3 3-2.3 6.6-2.6 10.6-2.1 19.8 7.2 44.1 24 47.8.2.4.9 1.1 1.2 1.1.3 0 .9-.7 1.2-1.1 16.4-3.7 25.7-28 23.6-47.8z"/><path fill="#272425" d="M59.8 30.6c-.4-4-1.4-7.6-2.6-10.6 0-.1-.2-.4-.2-.5-1.1-2.3-2.4-4.4-3.9-5.9-2.8-2.9-6.2-4.5-10-4.6H43c-.6-1.3-2.3-2.2-3.7-2.4 0 0-.9-3.4-4.5-3.4s-4.5 3.4-4.5 3.4c-1.5.2-3.1 1.1-3.7 2.4h-.1c-3.8 0-7.2 1.6-10 4.6-1.5 1.6-2.8 3.6-3.9 5.9 0 0-.2.4-.2.5-1.3 3-2.3 6.6-2.6 10.6-2.1 19.8 7.2 44.1 24 47.8.2.4.9 1.1 1.2 1.1.3 0 .9-.7 1.2-1.1 16.4-3.7 25.7-28 23.6-47.8zm-.7.1v.7c-.8 0-1.6.1-2.3.4-.5-6.1-2.3-11.2-4.9-14.7.5-.6 1.2-1.1 2-1.4 2.7 3.7 4.5 8.8 5.2 15zM26.4 16.5c-.6.1-.6 1.1-.5 1.8.1.7.5 1.5.9 1.4.8-.1 1.5-1.8 1.4-3-.1-1.8-1.1-2.2-1.7-2.2-1 0-1.8 1.5-1.8 3.5s.7 3.5 1.8 3.5c.4 0 8.1 1 7.4-5.4-.3-3-2.2-5.2-4-6.2 1.7-1 3.9.7 4.5 2.8.1.4.4.4.5 0 .7-2.2 2.6-3.7 4.3-2.8-1.8 1-3.5 3.2-3.8 6.2-.5 6.5 7.2 5.5 7.5 5.4 1 0 1.8-1.5 1.8-3.5s-.8-3.5-1.8-3.5c-.6 0-1.6.5-1.7 2.2 0 1.3.6 2.9 1.4 3 .4 0 .8-.7.9-1.4.1-.7 0-1.6-.5-1.8-.2 0-.4 0-.4.2 0 .1.4.4.3 1.2 0 1.1-1.2.6-1-1.2.1-1.5 1-1.4 1-1.4.4 0 1.2.9 1.2 2.6 0 1.5-.8 3.2-2.3 2.3-1.2-.9-1.7-2.9-1.4-4.4.1-.7.8-2.6 2.9-2.6 2.9 0 5.7 1.4 7.9 4.2-.2.7-1.4 3.4-6.4 6.1-1.7-1-3.6-1.4-5.3-1.4-2.7 0-3.6.8-4.8.8-1.2 0-2.1-.8-4.8-.8-1.8 0-3.7.4-5.3 1.4-4.9-2.7-6.1-5.3-6.4-6.1 2.2-2.8 5-4.3 8-4.3 2.1 0 2.7 1.9 2.8 2.6.3 1.5-.1 3.6-1.4 4.4-1.5.8-2.3-.8-2.3-2.3 0-1.7.7-2.6 1.2-2.6 0 0 .9-.1 1 1.5.1 1.7-1 2.3-1 1.2 0-.7.4-1 .3-1.2 0-.1-.2-.3-.4-.2zm25.2 1.4c2.5 3.4 4.3 8.4 4.6 14.8-.9.5-2.8 1.3-5.3 1.5-.6-3.3-2-7.8-5.5-10.3 4.4-2.6 5.8-4.9 6.2-6zM24 23.8c-3.5 2.5-4.9 7-5.5 10.3-2.5-.2-4.4-1-5.3-1.5.4-6.4 2.1-11.4 4.6-14.7.4 1.1 1.8 3.4 6.2 5.9zm-5.5 10.8c-.2 1.2-.2 2.2-.3 2.9V41.3c.1 2 .4 4 .9 6v.2c.8 3.5 1.9 6.1 2.4 7 .8 1.6 1.6 3.1 2.4 4.4-1.6 1.4-3.9 1.9-4.7 2.1-4.3-8-6.4-18.4-5.9-27.8.9.4 2.7 1.2 5.2 1.4zM24 59.4c2.8 4.6 5.6 7.4 7.7 8.8-.8 1.9-2.6 3.3-3.2 3.8-3.7-2.3-6.8-6.1-9.2-10.6 1-.2 3.2-.7 4.7-2zm8.2 9.1c1.2.8 2.4 1.3 2.5 1.3.1 0 1.3-.5 2.4-1.3.8 1.8 2.4 3.2 3.2 3.8-1.1.7-2.2 1.2-3.3 1.6v-.1c-.2-1.2-1.9-1.4-2.4-1.4-.6 0-2.2.2-2.4 1.4v.1c-1.1-.4-2.2-.9-3.3-1.5.8-.7 2.5-2.1 3.3-3.9zm5.4-.3c2.1-1.5 4.9-4.3 7.7-8.8 1.5 1.3 3.6 1.9 4.7 2.1-2.4 4.5-5.5 8.2-9.1 10.6-.7-.6-2.5-2.1-3.3-3.9zm8-9.3c.8-1.3 1.6-2.8 2.3-4.3.4-.9 1.6-3.5 2.4-7l.1-.2c.4-2 .7-4 .9-6v-3.8c0-.7-.1-1.7-.3-2.9 2.4-.2 4.3-.9 5.2-1.4.3 9.4-1.8 19.7-6 27.8-.9-.3-3.1-.9-4.6-2.2zm-2.8-49c4.3 0 8 2 10.8 5.5-.7.3-1.4.8-2 1.4-2.3-2.8-5.1-4.4-8.3-4.4-2 0-3.3 1.4-3.7 3.2-.3 1.4 0 3.3 1 4.4.5.5.2.7.1.7-1.3 0-4.9-.7-4.6-4.7.2-2.6 1.6-4.3 3-5.3 1.5-.7 3.1-.8 3.7-.8zm-8.1-6c2.9 0 3.6 2.7 3.6 2.8-.2 0-.4 0-.6.1l-.5.1c-1 .3-1.9 1-2.4 1.9 0 0 0 .1-.1.1l-.1-.1c-.5-.9-1.4-1.5-2.4-1.9l-.5-.1c-.2 0-.4 0-.6-.1 0 0 .6-2.8 3.6-2.8zm-3.9 3.3c1.7 0 3.1 1 3.6 2.5.1.4.3.4.5 0 .5-1.5 2-2.5 3.6-2.5 1.4 0 2.7.8 3.4 2-.5.1-1 .2-1.6.4-1-.8-1.9-.8-2.5-.6-1.4.4-2.5 1.7-3.1 2.9-.6-1.1-1.7-2.4-3.1-2.9-.7-.2-1.6-.2-2.6.6-.5-.2-1.1-.3-1.6-.4.7-1.2 2-2 3.4-2zm-4.2 2.7c.6 0 2.2.1 3.6.9 1.5 1 2.8 2.7 3 5.3.3 3.9-3.9 4.6-4.7 4.6-.1 0-.2-.1.2-.5 1-1.2 1.3-3 1-4.4-.4-1.8-1.7-3.2-3.7-3.2-3.2 0-6 1.6-8.3 4.4-.5-.6-1.2-1.1-2-1.4 2.9-3.8 6.6-5.7 10.9-5.7zM10.3 30.7c.7-6.3 2.5-11.4 5.2-15 .7.3 1.4.8 2 1.5-2.6 3.4-4.4 8.5-4.9 14.7-.7-.3-1.5-.4-2.3-.4-.1-.2 0-.5 0-.8zM15 60c-3.9-8.5-5.6-18.6-4.8-28 .8 0 1.6.1 2.3.4v.6c-.6 9.4 1.6 19.7 5.7 27.9-.8.2-1.6.5-2.3 1L15 60zm1.1 2.2c.7-.5 1.5-.8 2.3-1 2.4 4.6 5.6 8.5 9.3 11-.6.5-1.2 1.2-1.5 1.9-4-2.6-7.4-6.6-10.1-11.9zm10.4 12.3c.3-.8.9-1.4 1.5-1.9 1.3.8 2.7 1.5 4.1 2 0 1 .2 2 .6 2.7-2.1-.6-4.2-1.5-6.2-2.8zm8.5 3.9s-.1.2-.3.2c-.1 0-.3-.2-.3-.2-.7-.8-1.8-2.5-1.4-4.5.1-.6 1.1-.8 1.7-.8.6 0 1.6.2 1.7.8.4 2-.7 3.6-1.4 4.5zm1.6-1.1c.4-.7.6-1.7.6-2.7 1.4-.5 2.8-1.2 4.1-2.1.6.5 1.2 1.2 1.5 1.9-2 1.4-4.1 2.3-6.2 2.9zm6.6-3.1c-.3-.7-.9-1.4-1.5-1.9 3.7-2.5 6.8-6.4 9.2-11 .8.1 1.6.5 2.3 1-2.7 5.1-6.1 9.2-10 11.9zM54.4 60l-.9 1.8c-.7-.5-1.5-.8-2.3-1 4.2-8.1 6.3-18.5 5.7-27.8v-.6c.7-.3 1.5-.4 2.3-.4.7 9.4-1 19.5-4.8 28z"/><linearGradient id="b" gradientUnits="userSpaceOnUse" x1="-1406.735" y1="564.633" x2="-1406.735" y2="550.377" gradientTransform="matrix(3.204 0 0 3.204 4541.446 -1740.188)"><stop offset="0" stop-color="#781B21"/><stop offset=".048" stop-color="#8A1E24"/><stop offset=".121" stop-color="#9D2228"/><stop offset=".205" stop-color="#AB252A"/><stop offset=".31" stop-color="#B3272C"/><stop offset=".502" stop-color="#B5272C"/><stop offset=".674" stop-color="#B2262C"/><stop offset=".783" stop-color="#AA252A"/><stop offset=".875" stop-color="#9B2227"/><stop offset=".957" stop-color="#861E24"/><stop offset="1" stop-color="#781B21"/></linearGradient><path fill="url(#b)" d="M50.3 37.7c-.1-2.3-.8-10.3-5.9-13.4-1.1-.7-2.5-1.2-4-1.2-2.5-.1-4.4.8-5.6.8-1.3 0-3.1-1-5.6-.8-1.5.1-2.9.6-4 1.2-5.1 3.1-5.8 11-5.9 13.4-.3 8.3 2.4 14.8 3.2 16.6 3.5 7.4 7.8 12.5 12 14.3l.3.1.3-.1c4.2-1.8 8.5-6.9 12-14.3.8-1.9 3.5-8.4 3.2-16.6z"/><path fill="#fff" d="M42.3 31.8v1.6h.4c.2 0 .5 0 .7.2s.2.5.2 1c0 0-3.4 14.2-4.1 16.8-.7-3.4-4.8-22-4.8-22v-.1H34v.1s-2.9 18.1-3.5 21.7c-.8-3.1-4.1-16.6-4.1-16.6v-.2c0-.4.1-.7.3-.8.2-.2.6-.2.6-.2h.3v-1.6H22v1.5h.2c.1 0 .8.2.9.7 0 0 6.7 27.4 7 28.5v.1h1v-.1c.1-.2 2.7-17.2 3.3-20.3.6 3.2 4.1 20.2 4.2 20.3v.1h.9L46 34.2c.1-.6.7-.7.9-.7h.3v-1.6l-4.9-.1z"/><radialGradient id="c" cx="-1400.072" cy="578.893" r="10.848" gradientTransform="matrix(3.085 0 0 2.946 4353.786 -1663.813)" gradientUnits="userSpaceOnUse"><stop offset=".166" stop-color="#fff"/><stop offset=".865" stop-color="#C9AB80"/></radialGradient><path fill="url(#c)" d="M59.6 30.6c-.4-4-1.4-7.6-2.6-10.6 0-.1-.2-.4-.2-.5-1.1-2.3-2.4-4.4-3.9-5.9-2.8-2.9-6.2-4.5-10-4.6h-.1c-.6-1.3-2.3-2.2-3.7-2.4 0 0-.9-3.4-4.5-3.4s-4.5 3.4-4.5 3.4c-1.5.2-3.1 1.1-3.7 2.4h-.1c-3.8 0-7.2 1.6-10 4.6-1.5 1.6-2.8 3.6-3.9 5.9 0 0-.2.4-.2.5-1.3 3-2.3 6.6-2.6 10.6-2.1 19.8 7.2 44.1 24 47.8.2.4.9 1.1 1.2 1.1.3 0 .9-.7 1.2-1.1 16.4-3.7 25.8-28 23.6-47.8z"/><path fill="#272425" d="M59.6 30.6c-.4-4-1.4-7.6-2.6-10.6 0-.1-.2-.4-.2-.5-1.1-2.3-2.4-4.4-3.9-5.9-2.8-2.9-6.2-4.5-10-4.6h-.1c-.6-1.3-2.3-2.2-3.7-2.4 0 0-.9-3.4-4.5-3.4s-4.5 3.4-4.5 3.4c-1.5.2-3.1 1.1-3.7 2.4h-.1c-3.8 0-7.2 1.6-10 4.6-1.5 1.6-2.8 3.6-3.9 5.9 0 0-.2.4-.2.5-1.3 3-2.3 6.6-2.6 10.6-2.1 19.8 7.2 44.1 24 47.8.2.4.9 1.1 1.2 1.1.3 0 .9-.7 1.2-1.1 16.4-3.7 25.8-28 23.6-47.8zm-.7.1v.7c-.8 0-1.6.1-2.3.4-.5-6.1-2.3-11.2-4.9-14.7.5-.6 1.2-1.1 2-1.4 2.7 3.7 4.6 8.8 5.2 15zM26.2 16.5c-.6.1-.6 1.1-.5 1.8.1.7.5 1.5.9 1.4.8-.1 1.5-1.8 1.4-3-.1-1.8-1.1-2.2-1.7-2.2-1 0-1.8 1.5-1.8 3.5s.7 3.5 1.8 3.5c.4 0 8.1 1 7.4-5.4-.3-3-2.2-5.2-4-6.2 1.7-1 3.9.7 4.5 2.8.1.4.4.4.5 0 .7-2.2 2.6-3.7 4.3-2.8-1.8 1-3.5 3.2-3.8 6.2-.5 6.5 7.2 5.5 7.5 5.4 1 0 1.8-1.5 1.8-3.5s-.8-3.5-1.8-3.5c-.6 0-1.6.5-1.7 2.2 0 1.3.6 2.9 1.4 3 .4 0 .8-.7.9-1.4.1-.7 0-1.6-.5-1.8-.2 0-.4 0-.4.2 0 .1.4.4.3 1.2 0 1.1-1.2.6-1-1.2.1-1.5 1-1.4 1-1.4.4 0 1.2.9 1.2 2.6 0 1.5-.8 3.2-2.3 2.3-1.2-.9-1.7-2.9-1.4-4.4.1-.7.8-2.6 2.9-2.6 2.9 0 5.7 1.4 7.9 4.2-.2.7-1.4 3.4-6.4 6.1-1.7-1-3.6-1.4-5.3-1.4-2.7 0-3.6.8-4.8.8-1.2 0-2.1-.8-4.8-.8-1.8 0-3.7.4-5.3 1.4-4.9-2.7-6.1-5.3-6.4-6.1 2.2-2.8 5-4.3 8-4.3 2.1 0 2.7 1.9 2.8 2.6.3 1.5-.1 3.6-1.4 4.4-1.5.8-2.3-.8-2.3-2.3 0-1.7.7-2.6 1.2-2.6 0 0 .9-.1 1 1.5.1 1.7-1 2.3-1 1.2 0-.7.4-1 .3-1.2 0-.1-.2-.3-.4-.2zm25.2 1.4c2.5 3.4 4.3 8.4 4.6 14.8-.9.5-2.8 1.3-5.3 1.5-.6-3.3-2-7.8-5.5-10.3 4.4-2.6 5.8-4.9 6.2-6zm-27.5 5.9c-3.5 2.5-4.9 7-5.5 10.3-2.5-.2-4.4-1-5.3-1.5.4-6.4 2.1-11.4 4.6-14.7.4 1.1 1.8 3.4 6.2 5.9zm-5.6 10.8c-.2 1.2-.2 2.2-.3 2.9V41.3c.1 2 .4 4 .9 6v.2c.8 3.5 1.9 6.1 2.4 7 .8 1.6 1.6 3.1 2.4 4.4-1.6 1.4-3.9 1.9-4.7 2.1-4.3-8-6.4-18.4-5.9-27.8.9.4 2.7 1.2 5.2 1.4zm5.6 24.8c2.8 4.6 5.6 7.4 7.7 8.8-.8 1.9-2.6 3.3-3.2 3.8-3.7-2.3-6.8-6.1-9.2-10.6.9-.2 3.1-.7 4.7-2zm8.2 9.1c1.2.8 2.4 1.3 2.5 1.3.1 0 1.3-.5 2.4-1.3.8 1.8 2.4 3.2 3.2 3.8-1.1.7-2.2 1.2-3.3 1.6v-.1c-.2-1.2-1.9-1.4-2.4-1.4-.6 0-2.2.2-2.4 1.4v.1c-1.1-.4-2.2-.9-3.3-1.5.8-.7 2.4-2.1 3.3-3.9zm5.4-.3c2.1-1.5 4.9-4.3 7.7-8.8 1.5 1.3 3.6 1.9 4.7 2.1-2.4 4.5-5.5 8.2-9.1 10.6-.8-.6-2.6-2.1-3.3-3.9zm7.9-9.3c.8-1.3 1.6-2.8 2.3-4.3.4-.9 1.6-3.5 2.4-7v-.2c.4-2 .7-4 .9-6v-3.8c0-.7-.1-1.7-.3-2.9 2.4-.2 4.3-.9 5.2-1.4.3 9.4-1.8 19.7-6 27.8-.8-.3-3-.9-4.5-2.2zm-2.8-49c4.3 0 8 2 10.8 5.5-.7.3-1.4.8-2 1.4-2.3-2.8-5.1-4.4-8.3-4.4-2 0-3.3 1.4-3.7 3.2-.3 1.4 0 3.3 1 4.4.5.5.2.7.1.7-1.3 0-4.9-.7-4.6-4.7.2-2.6 1.6-4.3 3-5.3 1.5-.7 3.1-.8 3.7-.8zm-8.1-6c2.9 0 3.6 2.7 3.6 2.8-.2 0-.4 0-.6.1l-.5.1c-1 .3-1.9 1-2.4 1.9 0 0 0 .1-.1.1l-.1-.1c-.5-.9-1.4-1.5-2.4-1.9l-.5-.1c-.2 0-.4 0-.6-.1 0 0 .7-2.8 3.6-2.8zm-3.9 3.3c1.7 0 3.1 1 3.6 2.5.1.4.3.4.5 0 .5-1.5 2-2.5 3.6-2.5 1.4 0 2.7.8 3.4 2-.5.1-1 .2-1.6.4-1-.8-1.9-.8-2.5-.6-1.4.4-2.5 1.7-3.1 2.9-.6-1.1-1.7-2.4-3.1-2.9-.6-.2-1.6-.2-2.5.6-.5-.2-1.1-.3-1.6-.4.6-1.2 1.9-2 3.3-2zm-4.2 2.7c.6 0 2.2.1 3.6.9 1.5 1 2.8 2.7 3 5.3.3 3.9-3.9 4.6-4.7 4.6-.1 0-.2-.1.2-.5 1-1.2 1.3-3 1-4.4-.4-1.8-1.7-3.2-3.7-3.2-3.2 0-6 1.6-8.3 4.4-.5-.6-1.2-1.1-2-1.4 2.9-3.8 6.6-5.7 10.9-5.7zM10.1 30.7c.7-6.3 2.5-11.4 5.2-15 .7.3 1.4.8 2 1.5-2.6 3.4-4.4 8.5-4.9 14.7-.7-.3-1.5-.4-2.3-.4v-.8zM14.8 60C11 51.5 9.2 41.4 10 32c.8 0 1.6.1 2.3.4v.6c-.6 9.4 1.6 19.7 5.7 27.9-.8.2-1.6.5-2.3 1l-.9-1.9zm1.1 2.2c.7-.5 1.5-.8 2.3-1 2.4 4.6 5.6 8.5 9.3 11-.6.5-1.2 1.2-1.5 1.9-3.9-2.6-7.3-6.6-10.1-11.9zm10.5 12.3c.3-.8.9-1.4 1.5-1.9 1.3.8 2.7 1.5 4.1 2 0 1 .2 2 .6 2.7-2.2-.6-4.2-1.5-6.2-2.8zm8.4 3.9s-.1.2-.3.2c-.1 0-.3-.2-.3-.2-.7-.8-1.8-2.5-1.4-4.5.1-.6 1.1-.8 1.7-.8.6 0 1.6.2 1.7.8.4 2-.7 3.6-1.4 4.5zm1.6-1.1c.4-.7.6-1.7.6-2.7 1.4-.5 2.8-1.2 4.1-2.1.6.5 1.2 1.2 1.5 1.9-1.9 1.4-4 2.3-6.2 2.9zm6.7-3.1c-.3-.7-.9-1.4-1.5-1.9 3.7-2.5 6.8-6.4 9.2-11 .8.1 1.6.5 2.3 1-2.7 5.1-6.1 9.2-10 11.9zM54.2 60l-.9 1.8c-.7-.5-1.5-.8-2.3-1 4.2-8.1 6.3-18.5 5.7-27.8v-.6c.7-.3 1.5-.4 2.3-.4.8 9.4-.9 19.5-4.8 28z"/><linearGradient id="d" gradientUnits="userSpaceOnUse" x1="-1406.782" y1="564.633" x2="-1406.782" y2="550.377" gradientTransform="matrix(3.204 0 0 3.204 4541.446 -1740.188)"><stop offset="0" stop-color="#781B21"/><stop offset=".048" stop-color="#8A1E24"/><stop offset=".121" stop-color="#9D2228"/><stop offset=".205" stop-color="#AB252A"/><stop offset=".31" stop-color="#B3272C"/><stop offset=".502" stop-color="#B5272C"/><stop offset=".674" stop-color="#B2262C"/><stop offset=".783" stop-color="#AA252A"/><stop offset=".875" stop-color="#9B2227"/><stop offset=".957" stop-color="#861E24"/><stop offset="1" stop-color="#781B21"/></linearGradient><path fill="url(#d)" d="M50.1 37.7c-.1-2.3-.8-10.3-5.9-13.4-1.1-.7-2.5-1.2-4-1.2-2.5-.1-4.4.8-5.6.8-1.3 0-3.1-1-5.6-.8-1.5.1-2.9.6-4 1.2-5.1 3.1-5.8 11-5.9 13.4-.3 8.3 2.4 14.8 3.2 16.6 3.5 7.4 7.8 12.5 12 14.3l.3.1.3-.1c4.2-1.8 8.5-6.9 12-14.3.8-1.9 3.6-8.4 3.2-16.6z"/><path fill="#fff" d="M42.1 31.8v1.6h.4c.2 0 .5 0 .7.2.2.2.2.5.2 1 0 0-3.4 14.2-4.1 16.8-.7-3.4-4.8-22-4.8-22v-.1h-.8v.1s-2.9 18.1-3.5 21.7c-.8-3.1-4.1-16.6-4.1-16.6v-.2c0-.4.1-.7.3-.8.2-.2.6-.2.6-.2h.3v-1.6h-5.7v1.5h.2c.1 0 .8.2.9.7 0 0 6.7 27.4 7 28.5v.1h1v-.1c0-.2 2.7-17.2 3.3-20.3.6 3.2 4.1 20.2 4.2 20.3v.1h.9l6.6-28.6c.1-.6.7-.7.9-.7h.3v-1.6l-4.8.2z"/><g enable-background="new" fill="#DBA9A9"><path d="M76.9 65.4h-1.8v-.9c-.6.7-1.4 1.1-2.5 1.1-.7 0-1.2-.1-1.7-.4-.6-.3-.9-.8-1.1-1.4-.1-.3-.1-.8-.1-1.4V57.8c-.1-.3-.2-.6-.5-.7h2.4c-.3.2-.4.4-.5.7V62.4c0 .7.1 1.3.4 1.6.4.5.9.7 1.6.7.8 0 1.4-.3 1.8-.9.2-.2.2-.6.2-1v-5c-.1-.3-.2-.6-.5-.7H77c-.3.2-.4.4-.5.7v6.9c0 .3.1.5.4.7zM86.5 57c-.3.2-.5.4-.5.6-.1.2-.1.5-.1.9v7.3c-.6-.2-1.2-.6-1.7-1.3l-4.4-5.6V64c0 .4 0 .7.1.9s.3.4.5.6h-2.3c.3-.2.5-.4.5-.6.1-.2.1-.5.1-.9v-5.4c0-.4 0-.7-.1-.9-.1-.2-.3-.4-.5-.6h1.8s.1.2.3.5l4.7 6v-5c0-.4 0-.7-.1-.9-.1-.2-.3-.4-.5-.6l2.2-.1zM90 65.4h-2.4c.3-.1.4-.4.5-.7v-6.9c-.1-.3-.2-.6-.5-.7H90c-.3.1-.4.4-.5.7v6.9c.1.3.2.5.5.7zM98.4 57L95 65.8c-.6-.4-.9-.7-1.1-.9-.1-.2-.3-.5-.5-1.1l-1.7-4.6c-.3-.8-.5-1.4-.6-1.5-.1-.2-.3-.4-.5-.6h1.8v.1c0 .2.1.5.3 1l2.1 5.7 1.8-4.7c.3-.7.4-1.2.4-1.4 0-.4-.2-.6-.5-.7 0 0 1.9 0 1.9-.1zM105 63.7l-.6 1.7h-5.3c.3-.1.4-.4.5-.7v-6.9c-.1-.3-.2-.6-.5-.7h4.2c.2 0 .3 0 .5-.1v1.5c-.2-.2-.5-.4-.7-.4-.2-.1-.5-.1-.8-.1-.5 0-1 0-1.3.1v2.4h1.7c.2 0 .3 0 .4-.1v1.3c-.2-.2-.5-.3-1-.3H101v3c.5.1 1.1.1 1.6.1.9 0 1.7-.3 2.4-.8zM113.2 65.4c-.6 0-1 .1-1.2.1-.4 0-.7-.1-.9-.3-.3-.2-.6-.5-1-1-.8-1-1.5-2-2.2-3.1 1.4-.2 2.1-.8 2.1-1.8 0-.4-.1-.8-.4-1-.3-.3-.7-.4-1.1-.4-.2 0-.5 0-.9.1v6.7c.1.3.2.6.5.7h-2.4c.3-.1.4-.4.5-.7v-6.9c-.1-.3-.2-.6-.5-.7h3c.8 0 1.4.2 1.9.5.6.4.8 1 .8 1.6 0 .5-.2.9-.6 1.3-.4.4-.9.7-1.5.8.9 1.3 1.7 2.2 2.3 2.8.6.6 1.1 1 1.6 1.3zM119.2 63c0 .6-.3 1.2-.8 1.7-.6.6-1.5.9-2.7.9-.8 0-1.5-.1-2.2-.4l-.4-1.6c.9.7 1.8 1 2.8 1 .5 0 1-.1 1.3-.4s.5-.6.5-.9c0-.4-.1-.7-.4-.9-.2-.2-.8-.5-1.6-.9s-1.4-.7-1.7-1c-.4-.4-.7-.9-.7-1.5 0-.7.3-1.2.9-1.6.6-.4 1.3-.6 2.3-.6.6 0 1.3.1 1.9.3v1.4c-.6-.6-1.2-.8-2-.8-.5 0-.9.1-1.2.3s-.5.5-.5.9c0 .3.1.6.4.8s.7.5 1.5.8c.9.4 1.5.8 1.8 1 .6.4.8.9.8 1.5zM122.7 65.4h-2.4c.3-.1.4-.4.5-.7v-6.9c-.1-.3-.2-.6-.5-.7h2.4c-.3.1-.4.4-.5.7v6.9c0 .3.2.5.5.7zM129.8 57l-.4 1.5c-.1-.2-.3-.4-.5-.4-.1 0-.4-.1-.7-.1H127.1v5.9c0 .4 0 .7.1.9.1.2.3.4.5.6h-2.5c.3-.1.4-.4.5-.7V58h-1c-.4 0-.7 0-.9.1-.2.1-.5.2-.8.4l.5-1.5c.2.1.4.1.6.1h5.3c.2-.1.3-.1.4-.1zM137.9 57l-3.1 4.7v2.2c0 .4 0 .7.1.8.1.2.3.4.5.7H133c.3-.2.4-.4.5-.7v-2.9l-2.2-3.5c-.2-.3-.4-.6-.5-.7-.1-.1-.3-.3-.6-.5h1.4c.2 0 .3 0 .4.1.1.1.2.2.4.5l1.9 3.1 1.6-2.4c.2-.2.2-.4.2-.6 0-.3-.2-.5-.5-.6l2.3-.2zM150.9 61.2c0 1.2-.5 2.3-1.4 3.1-.9.9-2 1.3-3.3 1.3-1.3 0-2.4-.4-3.3-1.3-.9-.8-1.3-1.9-1.3-3.1 0-1.3.5-2.3 1.4-3.2.9-.8 2.1-1.3 3.4-1.3 1.3 0 2.4.4 3.2 1.2.4.4.7.9.9 1.4.2.7.4 1.3.4 1.9zm-1.5.2c0-1-.3-1.8-.9-2.5-.6-.7-1.4-1.1-2.4-1.1-.9 0-1.7.3-2.3.9-.6.6-.9 1.4-.9 2.4s.3 1.9 1 2.7c.6.6 1.3.9 2.2.9.9 0 1.7-.3 2.3-.9.7-.6 1-1.4 1-2.4zM156.7 58.4c-.2-.2-.5-.3-.7-.4-.2 0-.5-.1-.8-.1-.5 0-1 0-1.3.1v2.4h1.7c.2 0 .3 0 .4-.1v1.3c-.2-.2-.5-.3-1-.3h-1.1v3.4c.1.3.2.6.5.7H152c.3-.1.4-.4.5-.7v-6.9c-.1-.3-.2-.6-.5-.7h4.2c.2 0 .3 0 .5-.1v1.4zM172 57l-2.7 8.7c-.1 0-.2-.2-.5-.3-.4-.3-.6-.5-.8-.6s-.3-.5-.4-1l-1.4-4.5-2 6.4c-.2-.1-.3-.2-.6-.4s-.6-.4-.7-.6c-.1-.2-.2-.5-.4-.9l-1.6-5c-.2-.6-.4-1-.5-1.2s-.3-.4-.5-.6h1.8v.2c0 .1 0 .3.1.6l2 6.1 1.6-5c.1-.5.2-.8.2-1.1 0-.3-.2-.5-.5-.8h1.8v.2c0 .2.1.5.2.9l1.8 5.7 1.5-4.9c.2-.5.3-.9.3-1.1 0-.4-.2-.7-.7-.9l2 .1zM175.2 65.4h-2.4c.3-.1.4-.4.5-.7v-6.9c-.1-.3-.2-.6-.5-.7h2.4c-.3.1-.4.4-.5.7v6.9c0 .3.2.5.5.7zM182.3 63c0 .6-.3 1.2-.8 1.7-.6.6-1.5.9-2.7.9-.8 0-1.5-.1-2.2-.4l-.4-1.6c.9.7 1.8 1 2.8 1 .5 0 1-.1 1.4-.4s.5-.6.5-.9c0-.4-.1-.7-.4-.9-.2-.2-.8-.5-1.6-.9s-1.4-.7-1.7-1c-.4-.4-.7-.9-.7-1.5 0-.7.3-1.2.9-1.6.6-.4 1.3-.6 2.3-.6.6 0 1.3.1 1.9.3v1.4c-.6-.6-1.2-.8-2-.8-.5 0-.9.1-1.2.3-.3.2-.5.5-.5.9 0 .3.1.6.4.8s.7.5 1.5.8c.9.4 1.5.8 1.8 1 .5.4.7.9.7 1.5zM190.6 63.7l-.6 1.5c-.6.2-1.3.4-2 .4-1.4 0-2.6-.4-3.5-1.2-.9-.8-1.3-1.8-1.3-3.2 0-1.3.4-2.3 1.3-3.1.8-.8 1.9-1.2 3.2-1.2.6 0 1.4.1 2.3.3v1.5c-.8-.5-1.6-.7-2.3-.7-.9 0-1.6.3-2.2.9-.6.6-.8 1.3-.8 2.2 0 1 .3 1.8.9 2.5.6.7 1.4 1 2.3 1 .8 0 1.7-.3 2.7-.9zM200.4 61.2c0 1.2-.5 2.3-1.4 3.1-.9.9-2 1.3-3.3 1.3-1.3 0-2.4-.4-3.3-1.3-.9-.8-1.3-1.9-1.3-3.1 0-1.3.5-2.3 1.4-3.2.9-.8 2.1-1.3 3.4-1.3 1.3 0 2.4.4 3.2 1.2.4.4.7.9.9 1.4.2.7.4 1.3.4 1.9zm-1.5.2c0-1-.3-1.8-.9-2.5-.6-.7-1.4-1.1-2.4-1.1-.9 0-1.7.3-2.3.9-.6.6-.9 1.4-.9 2.4s.3 1.9 1 2.7c.6.6 1.3.9 2.2.9.9 0 1.7-.3 2.3-.9.7-.6 1-1.4 1-2.4zM209.8 57c-.3.2-.5.4-.5.6-.1.2-.1.5-.1.9v7.3c-.6-.2-1.2-.6-1.7-1.3l-4.4-5.6V64c0 .4 0 .7.1.9.1.2.3.4.5.6h-2.3c.3-.2.5-.4.5-.6s.1-.5.1-.9v-5.4c0-.4 0-.7-.1-.9-.1-.2-.3-.4-.5-.6h1.8s.1.2.3.5l4.7 6v-5c0-.4 0-.7-.1-.9s-.3-.4-.5-.6l2.2-.1zM216.8 63c0 .6-.3 1.2-.8 1.7-.6.6-1.5.9-2.7.9-.8 0-1.5-.1-2.2-.4l-.4-1.6c.9.7 1.8 1 2.8 1 .5 0 1-.1 1.4-.4s.5-.6.5-.9c0-.4-.1-.7-.4-.9-.2-.2-.8-.5-1.6-.9s-1.4-.7-1.7-1c-.4-.4-.7-.9-.7-1.5 0-.7.3-1.2.9-1.6.6-.4 1.3-.6 2.3-.6.6 0 1.3.1 1.9.3v1.4c-.6-.6-1.2-.8-2-.8-.5 0-.9.1-1.2.3s-.5.5-.5.9c0 .3.1.6.4.8s.7.5 1.5.8c.9.4 1.5.8 1.8 1 .5.4.7.9.7 1.5zM220.3 65.4h-2.4c.3-.1.4-.4.5-.7v-6.9c-.1-.3-.2-.6-.5-.7h2.4c-.3.1-.4.4-.5.7v6.9c0 .3.2.5.5.7zM229.9 57c-.3.2-.5.4-.5.6-.1.2-.1.5-.1.9v7.3c-.6-.2-1.2-.6-1.7-1.3l-4.4-5.6V64c0 .4 0 .7.1.9.1.2.3.4.5.6h-2.3c.3-.2.5-.4.5-.6s.1-.5.1-.9v-5.4c0-.4 0-.7-.1-.9-.1-.2-.3-.4-.5-.6h1.8s.1.2.3.5l4.7 6v-5c0-.4 0-.7-.1-.9-.1-.2-.3-.4-.5-.6l2.2-.1zM234.7 61.6l-.7.9c-.1.2-.3.2-.5.2H232c-.5 0-.8.1-1.2.2l.7-.9c.1-.1.3-.2.6-.2h1.3c.5 0 1-.1 1.3-.2zM246.8 65.4h-2.4c.4-.2.5-.5.5-1 0-.2 0-.4-.1-.7l-.7-5.4-2.8 7.3-.6-.6c-.1-.2-.3-.4-.4-.8l-2.5-5.9-.7 5.6c0 .3-.1.5-.1.7 0 .3.2.6.5.8h-2.1c.4-.3.6-.9.7-1.7l.7-5.3c0-.4.1-.6.1-.6 0-.3-.1-.5-.4-.7h2.2c0 .1 0 .3.1.4l2.4 5.7 2.1-5.3c.2-.4.2-.7.2-.9h2.2c-.3.1-.4.4-.4.8v.5l.8 5.6c.1.4.1.8.2.9.1.2.3.4.5.6zM256.3 65.4h-2.6c.3-.2.5-.4.5-.5 0-.1-.1-.3-.2-.7l-.7-1.9H250l-.7 1.9c-.1.3-.1.5-.1.6 0 .2.1.4.5.6h-2.3c.3-.2.5-.4.6-.6.1-.2.3-.6.5-1.1l2.2-5.6c.1-.2.1-.4.1-.6 0-.2-.1-.4-.4-.5h2l2.7 6.6c.2.5.4.9.6 1.1.1.3.3.5.6.7zm-3.5-4l-1.3-3.3-1.3 3.3h2.6zM264.8 61.1c0 .8-.2 1.6-.7 2.3-.4.7-1 1.2-1.8 1.5-.6.3-1.7.4-3.4.4h-2c.3-.2.4-.4.5-.6.1-.2.1-.6.1-1.1v-5.9c-.1-.3-.2-.6-.5-.7h3.1c1.4 0 2.4.3 3.3 1 .9.9 1.4 1.9 1.4 3.1zm-1.4.2c0-1-.3-1.8-.9-2.4-.6-.6-1.4-1-2.5-1-.3 0-.7 0-1.2.1v6.3c.3.1.6.1.9.1 1.1 0 1.9-.2 2.4-.6.9-.6 1.3-1.4 1.3-2.5zM268.3 65.4h-2.4c.3-.1.4-.4.5-.7v-6.9c-.1-.3-.2-.6-.5-.7h2.4c-.3.1-.4.4-.5.7v6.9c0 .3.2.5.5.7zM275.4 63c0 .6-.3 1.2-.8 1.7-.6.6-1.5.9-2.7.9-.8 0-1.5-.1-2.2-.4l-.4-1.6c.9.7 1.8 1 2.8 1 .5 0 1-.1 1.4-.4.4-.2.5-.6.5-.9 0-.4-.1-.7-.4-.9-.2-.2-.8-.5-1.6-.9s-1.4-.7-1.7-1c-.4-.4-.7-.9-.7-1.5 0-.7.3-1.2.9-1.6.6-.4 1.3-.6 2.3-.6.6 0 1.3.1 1.9.3v1.4c-.6-.6-1.2-.8-2-.8-.5 0-.9.1-1.2.3-.3.2-.5.5-.5.9 0 .3.1.6.4.8s.7.5 1.5.8c.9.4 1.5.8 1.8 1 .5.4.7.9.7 1.5zM285.6 61.2c0 1.2-.5 2.3-1.4 3.1-.9.9-2 1.3-3.3 1.3-1.3 0-2.4-.4-3.3-1.3-.9-.8-1.3-1.9-1.3-3.1 0-1.3.5-2.3 1.4-3.2.9-.8 2.1-1.3 3.4-1.3 1.3 0 2.4.4 3.2 1.2.4.4.7.9.9 1.4.3.7.4 1.3.4 1.9zm-1.4.2c0-1-.3-1.8-.9-2.5-.6-.7-1.4-1.1-2.4-1.1-.9 0-1.7.3-2.3.9-.6.6-.9 1.4-.9 2.4s.3 1.9 1 2.7c.6.6 1.3.9 2.2.9.9 0 1.7-.3 2.3-.9.7-.6 1-1.4 1-2.4zM295.1 57c-.3.2-.5.4-.5.6-.1.2-.1.5-.1.9v7.3c-.6-.2-1.2-.6-1.7-1.3l-4.4-5.6V64c0 .4 0 .7.1.9.1.2.3.4.5.6h-2.3c.3-.2.5-.4.5-.6s.1-.5.1-.9v-5.4c0-.4 0-.7-.1-.9-.1-.2-.3-.4-.5-.6h1.8s.1.2.3.5l4.7 6v-5c0-.4 0-.7-.1-.9-.1-.2-.3-.4-.5-.6l2.2-.1z"/></g><g enable-background="new" fill="#fff"><path d="M92.6 42.7l-2.1 4.8c-2 .8-4.1 1.2-6.4 1.2-4.7 0-8.5-1.3-11.3-3.9-2.8-2.6-4.3-6-4.3-10.3 0-4.1 1.4-7.5 4.1-10.2s6.2-4.1 10.5-4.1c2.1 0 4.5.4 7.4 1.1V26c-2.6-1.5-5.1-2.3-7.5-2.3-2.9 0-5.2.9-7.1 2.8-1.8 1.9-2.7 4.3-2.7 7.2 0 3.2 1 6 3 8.2 2 2.2 4.5 3.4 7.4 3.4 2.6 0 5.6-.8 9-2.6zM122.9 48h-8.5c1-.6 1.5-1.1 1.5-1.6 0-.3-.2-1.1-.7-2.3l-2.4-6.3h-10.4l-2.3 6.3c-.3.8-.5 1.5-.5 2.1 0 .7.5 1.3 1.5 1.8h-7.6c.9-.6 1.6-1.2 2.1-1.9.4-.6 1-1.9 1.8-3.7l7.3-18.1c.3-.8.5-1.4.5-1.9 0-.6-.4-1.2-1.2-1.6h6.6l8.7 21.6c.6 1.6 1.2 2.8 1.8 3.6.2.8.9 1.5 1.8 2zm-11.2-12.9l-4.2-10.8-4.2 10.8h8.4zM144 42.5l-2.2 5.5H125c.9-.5 1.4-1.2 1.7-2.3.1-.5.2-1.5.2-3V26.2c0-1.5-.1-2.5-.2-3-.2-1.1-.8-1.8-1.7-2.3h7.8c-.9.5-1.4 1.2-1.7 2.3-.1.5-.2 1.5-.2 3v18.5c1.9.3 3.8.4 5.5.4 1.5 0 2.8-.2 3.8-.5 1.2-.4 2.4-1.1 3.8-2.1zM166.1 40.1c0 2.1-.8 3.9-2.5 5.6-2.1 2-5 3-8.6 3-2.5 0-4.9-.4-7.3-1.3l-1.2-5.1c2.8 2.2 5.8 3.3 9 3.3 1.7 0 3.2-.4 4.4-1.2 1.2-.8 1.8-1.8 1.8-3 0-1.1-.5-2.1-1.4-2.9-.8-.7-2.5-1.6-5.3-2.9-2.7-1.2-4.6-2.3-5.7-3.3-1.4-1.3-2.1-2.9-2.1-4.8 0-2.2.9-4 2.8-5.3 1.9-1.3 4.3-2 7.5-2 2.1 0 4.1.3 6.3.9v4.7c-1.8-1.8-4-2.7-6.5-2.7-1.6 0-2.9.4-3.9 1.1-1 .7-1.5 1.6-1.5 2.8 0 1 .4 1.9 1.2 2.6.8.7 2.4 1.6 4.9 2.8 2.9 1.4 4.9 2.5 6 3.3 1.4 1.1 2.1 2.6 2.1 4.4z"/></g><g enable-background="new" fill="#fff"><path d="M181.4 31.4h-2.8c.3-.2.5-.4.6-.8 0-.2.1-.5.1-1.1v-6c0-.5 0-.9-.1-1.1-.1-.4-.3-.7-.6-.8h2.8c-.3.2-.5.4-.6.8 0 .2-.1.5-.1 1.1v6c0 .5 0 .9.1 1.1.1.3.3.6.6.8zM189.9 31.4h-2.5c.3-.2.4-.4.5-.5.1-.1.1-.5.1-.9v-2.4c0-.7-.1-1.2-.3-1.5-.3-.4-.8-.6-1.5-.6-.3 0-.6.1-.9.2s-.5.3-.6.6c-.1.1-.1.4-.1.7v3c0 .5 0 .8.1.9.1.1.2.3.5.5h-2.5c.3-.2.4-.4.5-.5.1-.1.1-.5.1-.9v-4c0-.5 0-.8-.1-.9s-.2-.3-.5-.5h1c.4 0 .7-.1.9-.3v1.2c.7-.8 1.4-1.1 2.2-1.1.5 0 1 .1 1.4.3.5.3.8.6 1 1 .1.3.2.9.2 1.7v2.5c0 .5 0 .8.1.9 0 .2.2.4.4.6zM195.9 21.4l-1 1.1c-.2-.2-.5-.2-.8-.2-.4 0-.7.1-.9.4-.1.1-.1.4-.1.9v.9h1.5c.2 0 .4 0 .5-.1v1.3c-.1-.2-.4-.2-.8-.2H193v3.9c0 .7.1 1.2.2 1.5.1.2.3.4.4.5h-2.5c.3-.2.4-.4.5-.5.1-.1.1-.5.1-.9v-4.4h-.7l.7-1v-.7c0-.8.3-1.4.8-1.8.5-.5 1.3-.7 2.4-.7.3-.1.6 0 1 0zM203.2 27.9c0 1-.4 1.9-1.1 2.6-.8.7-1.7 1.1-2.8 1.1-1.1 0-2-.3-2.7-1-.7-.7-1.1-1.5-1.1-2.6 0-1.2.5-2.1 1.4-2.8.7-.5 1.6-.8 2.6-.8s1.9.3 2.6 1c.7.6 1.1 1.5 1.1 2.5zm-1.5.2c0-.8-.2-1.5-.7-2-.4-.5-1-.8-1.8-.8-.7 0-1.2.2-1.6.7-.4.5-.6 1.1-.6 1.8 0 .8.2 1.5.7 2s1 .8 1.7.8 1.2-.2 1.7-.7.6-1 .6-1.8zM208.6 25.8c-.2-.2-.4-.2-.7-.2-.6 0-1 .2-1.3.6-.2.3-.3.7-.3 1.3v2.4c0 .5 0 .8.1.9.1.1.2.3.5.5h-2.5c.3-.2.4-.4.5-.5.1-.1.1-.5.1-.9V26c0-.5 0-.8-.1-.9s-.2-.3-.5-.5h1c.4 0 .7-.1.9-.3v1.2c.4-.8 1-1.1 1.8-1.1.1 0 .3 0 .5.1v1.3zM221.3 31.4h-2.6c.3-.2.4-.4.5-.5.1-.1.1-.5.1-.9v-2.3c0-.8-.1-1.3-.4-1.6-.3-.4-.7-.6-1.3-.6-.7 0-1.2.3-1.5.8-.1.2-.2.6-.2 1.1v2.5c0 .5 0 .8.1.9.1.1.2.3.5.5H214c.3-.2.4-.4.5-.5.1-.1.1-.5.1-.9v-2.4c0-.7-.2-1.2-.5-1.5-.3-.3-.7-.5-1.2-.5-.7 0-1.2.3-1.5.8-.1.2-.2.5-.2 1v2.6c0 .5 0 .8.1.9.1.1.2.3.5.5h-2.5c.3-.2.4-.4.5-.5.1-.1.1-.5.1-.9V26c0-.5 0-.8-.1-.9s-.2-.3-.5-.5h1c.4 0 .6-.1.8-.3v1.2c.6-.8 1.3-1.2 2.2-1.2 1 0 1.7.4 2.3 1.3.4-.5.7-.8 1.1-1 .3-.2.8-.3 1.3-.3s1 .1 1.4.3c.5.2.8.6 1 1 .1.3.2.8.2 1.6v2.6c0 .4 0 .7.1.9.1.4.3.6.6.7zM229.4 30.5l-.7 1c-.7 0-1.1-.2-1.4-.3-.3-.2-.4-.4-.5-.7 0-.2-.1-.5-.1-.9v-1.9c-.3.2-1 .3-1.9.6-.7.2-1.1.5-1.1 1.1 0 .4.1.7.4.9s.7.3 1.2.3c.3 0 .7-.1 1.1-.2l-.9 1.1c-.3.1-.5.1-.8.1-.7 0-1.3-.2-1.8-.6-.5-.4-.8-1-.8-1.6 0-.7.3-1.2.8-1.5.4-.2 1-.4 1.9-.6.7-.1 1.1-.3 1.3-.4.2-.1.3-.3.3-.6s-.1-.5-.4-.7c-.3-.2-.6-.3-1-.3-.5 0-1.2.2-2 .6l1-1.5c.3-.1.7-.1 1-.1 1.2 0 2.1.3 2.5 1 .2.3.3.9.3 1.8v2.7c.1.2.2.4.4.6.5.1.8.1 1.2.1zM234.2 30.4l-.8 1.1c-.2.1-.3.1-.5.1-.6 0-1.1-.2-1.5-.6-.3-.3-.4-.6-.5-1v-4.4h-1V25c.5-.1.9-.3 1.2-.6.4-.4.5-1 .5-1.8v-.2h.6v2.2h1.1c.4 0 .7 0 .9-.1v1.3c-.2-.2-.5-.3-.9-.3h-1.1v3.1c0 .7.1 1.2.3 1.4.3.3.6.5 1.1.5.2.1.4 0 .6-.1zM237.3 31.4h-2.5c.3-.2.4-.4.5-.5.1-.1.1-.5.1-.9v-4c0-.5 0-.8-.1-.9-.1-.1-.2-.3-.5-.5h1c.4 0 .7-.1.9-.3v5.6c0 .5 0 .8.1.9.1.2.3.4.5.6zm-.3-8.7c0 .3-.1.5-.3.7-.2.2-.4.3-.7.3-.3 0-.5-.1-.6-.3-.2-.2-.3-.4-.3-.7 0-.3.1-.5.3-.6.2-.2.4-.3.7-.3.2 0 .5.1.6.3.2.2.3.4.3.6zM246.2 27.9c0 1-.4 1.9-1.1 2.6-.8.7-1.7 1.1-2.8 1.1-1.1 0-2-.3-2.7-1-.7-.7-1.1-1.5-1.1-2.6 0-1.2.5-2.1 1.4-2.8.7-.5 1.6-.8 2.6-.8s1.9.3 2.6 1c.7.6 1.1 1.5 1.1 2.5zm-1.6.2c0-.8-.2-1.5-.7-2-.4-.5-1-.8-1.8-.8-.7 0-1.2.2-1.6.7-.4.5-.6 1.1-.6 1.8 0 .8.2 1.5.7 2 .5.5 1 .8 1.7.8s1.2-.2 1.7-.7.6-1 .6-1.8zM254.5 31.4H252c.3-.2.4-.4.5-.5.1-.1.1-.5.1-.9v-2.4c0-.7-.1-1.2-.3-1.5-.3-.4-.8-.6-1.5-.6-.3 0-.6.1-.9.2s-.5.3-.6.6c-.1.1-.1.4-.1.7v3c0 .5 0 .8.1.9.1.1.2.3.5.5h-2.5c.3-.2.4-.4.5-.5.1-.1.1-.5.1-.9v-4c0-.5 0-.8-.1-.9-.1-.1-.2-.3-.5-.5h1c.4 0 .7-.1.9-.3v1.2c.7-.8 1.4-1.1 2.2-1.1.5 0 1 .1 1.4.3.5.3.8.6 1 1 .1.3.2.9.2 1.7v2.5c0 .5 0 .8.1.9 0 .2.1.4.4.6zM266.3 21.6l-.5 1.8c-.1-.3-.3-.4-.6-.5-.2 0-.4-.1-.8-.1h-1.3v6.8c0 .5.1.8.2 1.1s.3.5.6.7H261c.3-.2.5-.4.6-.8 0-.2.1-.5.1-1.1v-6.7h-1.2c-.4 0-.8 0-1 .1-.3.1-.6.2-.9.5l.5-1.8c.2.1.4.1.8.1H266.1c0-.1.1-.1.2-.1zM272.9 29.8l-.8 1.4c-.6.2-1.3.4-2 .4-1.2 0-2.2-.3-3-1-.8-.7-1.2-1.5-1.2-2.6s.4-2 1.2-2.7c.6-.6 1.4-.9 2.5-.9 1 0 1.8.3 2.4.9.6.6 1 1.4 1 2.3v.2h-5.4c0 .9.3 1.5.8 2s1.2.7 2.1.7c.8.1 1.6-.2 2.4-.7zm-1.6-2.9c-.2-1.1-.8-1.7-1.9-1.7-1.1 0-1.7.6-1.9 1.7h3.8zM280.8 29.9l-.9 1.4c-.4.2-1.1.3-1.9.3-1.2 0-2.1-.3-2.9-1-.8-.6-1.1-1.5-1.1-2.5 0-1.1.4-2 1.2-2.7.8-.7 1.8-1 3-1 .5 0 1.1.1 1.6.2v1.5c-.5-.5-1.1-.7-1.8-.7s-1.3.2-1.8.7c-.4.4-.7 1-.7 1.8s.3 1.5.9 2c.6.5 1.3.8 2.2.8.7-.1 1.4-.3 2.2-.8zM288.4 31.4H286c.3-.2.4-.4.5-.5s.1-.5.1-.9v-2.6c0-.6-.1-1-.3-1.3-.3-.4-.8-.6-1.4-.6-.6 0-1.1.2-1.4.6-.1.1-.2.3-.2.4V30c0 .5 0 .8.1.9.1.1.2.3.5.5h-2.5c.3-.2.4-.4.5-.5.1-.1.1-.5.1-.9v-6.8c0-.5 0-.8-.1-.9-.1-.1-.2-.3-.5-.5h1c.4 0 .7-.1.9-.3v3.9c.5-.6 1.2-.9 2.2-.9 1 0 1.7.3 2.1 1 .2.3.4.8.4 1.5v3.1c0 .5 0 .8.1.9s.1.2.3.4zM296.7 31.4h-2.5c.3-.2.4-.4.5-.5s.1-.5.1-.9v-2.4c0-.7-.1-1.2-.3-1.5-.3-.4-.8-.6-1.5-.6-.3 0-.6.1-.9.2s-.5.3-.6.6c-.1.1-.1.4-.1.7v3c0 .5 0 .8.1.9.1.1.2.3.5.5h-2.5c.3-.2.4-.4.5-.5.1-.1.1-.5.1-.9v-4c0-.5 0-.8-.1-.9-.1-.1-.2-.3-.5-.5h1c.4 0 .7-.1.9-.3v1.2c.7-.8 1.4-1.1 2.2-1.1.5 0 1 .1 1.4.3.5.3.8.6 1 1 .1.3.2.9.2 1.7v2.5c0 .5 0 .8.1.9 0 .2.2.4.4.6zM305.5 27.9c0 1-.4 1.9-1.1 2.6-.8.7-1.7 1.1-2.8 1.1-1.1 0-2-.3-2.7-1-.7-.7-1.1-1.5-1.1-2.6 0-1.2.5-2.1 1.4-2.8.7-.5 1.6-.8 2.6-.8s1.9.3 2.6 1c.8.6 1.1 1.5 1.1 2.5zm-1.5.2c0-.8-.2-1.5-.7-2-.4-.5-1-.8-1.8-.8-.7 0-1.2.2-1.6.7-.4.5-.6 1.1-.6 1.8 0 .8.2 1.5.7 2 .5.5 1 .8 1.7.8s1.2-.2 1.7-.7.6-1 .6-1.8zM309.1 31.4h-2.5c.3-.2.4-.4.5-.5.1-.1.1-.5.1-.9v-6.8c0-.5 0-.8-.1-.9-.1-.1-.2-.3-.5-.5h1c.4 0 .7-.1.9-.3v8.6c0 .5 0 .8.1.9.1 0 .2.2.5.4zM317.9 27.9c0 1-.4 1.9-1.1 2.6-.8.7-1.7 1.1-2.8 1.1-1.1 0-2-.3-2.7-1-.7-.7-1.1-1.5-1.1-2.6 0-1.2.5-2.1 1.4-2.8.7-.5 1.6-.8 2.6-.8s1.9.3 2.6 1c.7.6 1.1 1.5 1.1 2.5zm-1.5.2c0-.8-.2-1.5-.7-2-.4-.5-1-.8-1.8-.8-.7 0-1.2.2-1.6.7-.4.5-.6 1.1-.6 1.8 0 .8.2 1.5.7 2 .5.5 1 .8 1.7.8s1.2-.2 1.7-.7.6-1 .6-1.8zM327.1 24.4l-.4 1c-.1.1-.2.2-.4.2-.3 0-.8-.1-1.6-.2.7.5 1.1 1.1 1.1 1.8 0 .9-.6 1.6-1.7 2-.4.1-.9.2-1.5.3-.4.1-.6.2-.6.4s.2.3.6.3c1.1 0 2 .1 2.5.2.6.2 1.1.5 1.4.9.2.3.3.6.3 1.1 0 .9-.5 1.5-1.4 2-.8.4-1.6.6-2.6.6-1.1 0-2.1-.2-2.9-.6-.8-.4-1.2-.9-1.2-1.5 0-.4.1-.7.4-.9.2-.2.6-.3 1-.3.3 0 .5.1.8.2-.4.1-.7.3-.7.7 0 .5.2.9.7 1.2.5.3 1.1.4 1.8.4.8 0 1.4-.1 1.9-.4s.7-.7.7-1.2c0-.9-1-1.4-3-1.4h-1c-.3 0-.5-.1-.7-.3-.2-.2-.3-.5-.3-.8 0-.1.1-.3.2-.4s.5-.2 1-.4c-.4-.1-.8-.3-1.1-.5-.5-.5-.8-1.1-.8-1.8s.3-1.3.9-1.8 1.3-.7 2.2-.7c.2 0 .6 0 1.3.1.5 0 1 .1 1.4.1.4-.2 1-.2 1.7-.3zm-2.8 2.6c0-.5-.2-.9-.5-1.3-.4-.3-.8-.5-1.3-.5-.4 0-.8.1-1.1.4-.3.3-.4.6-.4 1 0 .5.2 1 .6 1.3s.8.6 1.3.6c.4 0 .8-.1 1.1-.4s.3-.6.3-1.1zM334.9 24.6l-3.2 7.5c-.3.8-.7 1.3-1.1 1.7-.5.4-1.2.6-2 .6-.5 0-1.1-.1-1.8-.4l1.3-1c.3.2.6.3.8.3.8 0 1.3-.6 1.7-1.7l.1-.4c-.3-.3-.6-.7-.8-1.1l-2-4.3c-.2-.4-.4-.7-.5-.9s-.4-.3-.6-.4l1.4-.1h.4c.1 0 .2.2.3.5l2.3 5.1 1.6-3.9c.1-.4.2-.7.2-.9 0-.3-.1-.5-.4-.7h2.3z"/></g><g enable-background="new" fill="#fff"><path d="M187.9 46h-3.1c.4-.2.5-.4.5-.6 0-.1-.1-.4-.3-.8l-.9-2.3h-3.7l-.8 2.3c-.1.3-.2.6-.2.8 0 .3.2.5.5.7h-2.7c.3-.2.6-.4.7-.7.2-.2.4-.7.6-1.3l2.6-6.5c.1-.3.2-.5.2-.7 0-.2-.1-.4-.4-.6h2.4l3.1 7.7c.2.6.4 1 .6 1.3.3.3.6.5.9.7zm-4-4.6l-1.5-3.9-1.5 3.9h3zM195.8 46h-1.9v-4.4c-.1-.3-.2-.6-.4-.9-.4-.5-1-.8-1.7-.8-.6 0-1.2.2-1.6.7-.4.5-.6 1-.6 1.7 0 .8.2 1.5.7 2s1.1.8 1.8.8c.4 0 .9-.1 1.3-.4l-.9 1.3c-.2.1-.5.1-.7.1-.9 0-1.6-.2-2.2-.6-1-.7-1.6-1.7-1.6-3 0-1 .3-1.9 1-2.6.7-.7 1.5-1 2.5-1 .8 0 1.6.3 2.3.9v-2.1c0-.5 0-.8-.1-.9-.1-.1-.2-.3-.5-.5h1c.4 0 .7-.1.9-.3v8.6c0 .5 0 .8.1.9.2.1.3.3.6.5zM208.7 46h-2.6c.3-.2.4-.4.5-.5.1-.1.1-.5.1-.9v-2.3c0-.8-.1-1.3-.4-1.6-.3-.4-.7-.6-1.3-.6-.7 0-1.2.3-1.5.8-.1.2-.2.6-.2 1.1v2.5c0 .5 0 .8.1.9.1.1.2.3.5.5h-2.5c.3-.2.4-.4.5-.5s.1-.5.1-.9v-2.4c0-.7-.2-1.2-.5-1.5s-.7-.5-1.2-.5c-.7 0-1.2.3-1.5.8-.1.2-.2.5-.2 1v2.6c0 .5 0 .8.1.9s.2.3.5.5h-2.5c.3-.2.4-.4.5-.5.1-.1.1-.5.1-.9v-3.9c0-.5 0-.8-.1-.9s-.2-.3-.5-.5h1c.4 0 .6-.1.8-.3v1.2c.6-.8 1.3-1.2 2.2-1.2 1 0 1.7.4 2.3 1.3.4-.5.7-.8 1.1-1 .4-.2.8-.3 1.3-.3s1 .1 1.4.3c.5.2.8.6 1 1 .1.3.2.8.2 1.6v2.6c0 .4 0 .7.1.9.1.4.3.6.6.7zM212.3 46h-2.5c.3-.2.4-.4.5-.5.1-.1.1-.5.1-.9v-3.9c0-.5 0-.8-.1-.9s-.2-.3-.5-.5h1c.4 0 .7-.1.9-.3v5.6c0 .5 0 .8.1.9.1.1.2.3.5.5zm-.3-8.6c0 .3-.1.5-.3.7-.2.2-.4.3-.7.3-.3 0-.5-.1-.6-.3-.2-.2-.3-.4-.3-.7 0-.3.1-.5.3-.6.2-.2.4-.3.7-.3.2 0 .5.1.6.3.2.1.3.3.3.6zM220.6 46h-2.5c.3-.2.4-.4.5-.5.1-.1.1-.5.1-.9v-2.4c0-.7-.1-1.2-.3-1.5-.3-.4-.8-.6-1.5-.6-.3 0-.6.1-.9.2s-.5.3-.6.6c-.1.1-.1.4-.1.7v3c0 .5 0 .8.1.9.1.1.2.3.5.5h-2.5c.3-.2.4-.4.5-.5.1-.1.1-.5.1-.9v-3.9c0-.5 0-.8-.1-.9-.1-.1-.2-.3-.5-.5h1c.4 0 .7-.1.9-.3v1.2c.7-.8 1.4-1.1 2.2-1.1.5 0 1 .1 1.4.3.5.3.8.6 1 1 .1.3.2.9.2 1.7v2.5c0 .5 0 .8.1.9 0 .1.2.3.4.5zM224.2 46h-2.5c.3-.2.4-.4.5-.5.1-.1.1-.5.1-.9v-3.9c0-.5 0-.8-.1-.9-.1-.1-.2-.3-.5-.5h1c.4 0 .7-.1.9-.3v5.6c0 .5 0 .8.1.9.1.1.2.3.5.5zm-.3-8.6c0 .3-.1.5-.3.7-.2.2-.4.3-.7.3-.3 0-.5-.1-.6-.3-.2-.2-.3-.4-.3-.7 0-.3.1-.5.3-.6.2-.2.4-.3.7-.3.2 0 .5.1.6.3.2.1.3.3.3.6zM230.9 43.9c0 .7-.3 1.3-.9 1.7-.6.4-1.4.6-2.4.6-.7 0-1.3-.1-2-.4l-.5-1.5c1 .6 1.9.9 2.8.9.5 0 .8-.1 1.1-.3.3-.2.5-.4.5-.7 0-.3-.1-.5-.3-.7-.2-.1-.6-.3-1.4-.6-.8-.3-1.4-.6-1.7-.9-.3-.3-.5-.7-.5-1.1 0-.6.3-1.1.8-1.5.5-.3 1.2-.5 2.1-.5.6 0 1.2.1 1.7.2v1.3c-.6-.4-1.2-.6-1.8-.6-.4 0-.7.1-1 .2-.3.2-.4.4-.4.6 0 .2.1.4.3.5.2.2.6.3 1.2.5.9.3 1.5.6 1.8.9.4.5.6.9.6 1.4zM235.9 45.1l-.8 1.1c-.2.1-.3.1-.5.1-.6 0-1.1-.2-1.5-.6-.3-.3-.4-.6-.5-1v-4.4h-1v-.5c.5-.1.9-.3 1.2-.6.4-.4.5-1 .5-1.8V37h.6v2.2h1.1c.4 0 .7 0 .9-.1v1.3c-.2-.2-.5-.3-.9-.3h-1.1v3.1c0 .7.1 1.2.3 1.4.3.3.6.5 1.1.5.1.1.4 0 .6 0zM240.8 40.4c-.2-.2-.4-.2-.7-.2-.6 0-1 .2-1.3.6-.2.3-.3.7-.3 1.3v2.4c0 .5 0 .8.1.9.1.1.2.3.5.5h-2.5c.3-.2.4-.4.5-.5.1-.1.1-.5.1-.9v-3.9c0-.5 0-.8-.1-.9-.1-.1-.2-.3-.5-.5h1c.4 0 .7-.1.9-.3v1.2c.4-.8 1-1.1 1.8-1.1.1 0 .3 0 .5.1v1.3zM248.1 45.1l-.7 1c-.7 0-1.1-.2-1.4-.3-.3-.2-.4-.4-.5-.7 0-.2-.1-.5-.1-.9v-1.9c-.3.2-1 .3-1.9.6-.7.2-1.1.5-1.1 1.1 0 .4.1.7.4.9.3.2.7.3 1.2.3.3 0 .7-.1 1.1-.2l-.9 1.1c-.3.1-.5.1-.8.1-.7 0-1.3-.2-1.8-.6-.5-.4-.8-1-.8-1.6 0-.7.3-1.2.8-1.5.4-.2 1-.4 1.9-.6.7-.1 1.1-.3 1.3-.4s.3-.3.3-.6-.1-.5-.4-.7-.6-.3-1-.3c-.5 0-1.2.2-2 .6l1-1.5c.3-.1.7-.1 1-.1 1.3 0 2.1.3 2.5 1 .2.3.3.9.3 1.8v2.7c.1.2.2.4.4.6.6.1.9.1 1.2.1zM252.9 45.1l-.8 1.1c-.2.1-.3.1-.5.1-.6 0-1.1-.2-1.5-.6-.3-.3-.4-.6-.5-1v-4.4h-1v-.5c.5-.1.9-.3 1.2-.6.4-.4.5-1 .5-1.8V37h.6v2.2h1.1c.4 0 .7 0 .9-.1v1.3c-.2-.2-.5-.3-.9-.3h-1.1v3.1c0 .7.1 1.2.3 1.4.3.3.6.5 1.1.5.2.1.4 0 .6 0zM256.1 46h-2.5c.3-.2.4-.4.5-.5.1-.1.1-.5.1-.9v-3.9c0-.5 0-.8-.1-.9-.1-.1-.2-.3-.5-.5h1c.4 0 .7-.1.9-.3v5.6c0 .5 0 .8.1.9.1.1.2.3.5.5zm-.4-8.6c0 .3-.1.5-.3.7-.2.2-.4.3-.7.3-.3 0-.5-.1-.6-.3-.2-.2-.3-.4-.3-.7 0-.3.1-.5.3-.6.2-.2.4-.3.7-.3.2 0 .5.1.6.3.3.1.3.3.3.6zM264.6 39.2l-3.4 7.4c-.6-.3-.9-.6-1.1-.8s-.4-.6-.6-1l-1.7-4c-.2-.5-.4-.8-.5-1s-.4-.3-.8-.6h1c.5 0 .8-.1 1.1-.3 0 .2.1.4.2.7l2.2 5.1 1.8-3.9c.2-.4.3-.7.3-.9 0-.3-.2-.5-.5-.7h2zM271.9 44.4l-.8 1.4c-.6.2-1.3.4-2 .4-1.2 0-2.2-.3-3-1-.8-.7-1.2-1.5-1.2-2.6s.4-2 1.2-2.7c.6-.6 1.4-.9 2.5-.9 1 0 1.8.3 2.4.9.6.6 1 1.4 1 2.3v.2h-5.4c0 .9.3 1.5.8 2s1.2.7 2.1.7c.8.1 1.6-.1 2.4-.7zm-1.6-2.9c-.2-1.1-.8-1.7-1.9-1.7-1.1 0-1.7.6-1.9 1.7h3.8zM285.3 44.1l-.7 1.7c-.7.3-1.5.4-2.3.4-1.7 0-3-.5-4.1-1.4-1-.9-1.5-2.2-1.5-3.7s.5-2.7 1.5-3.7 2.2-1.5 3.8-1.5c.7 0 1.6.1 2.7.4V38c-.9-.5-1.8-.8-2.7-.8-1 0-1.9.3-2.5 1-.7.7-1 1.5-1 2.6 0 1.2.4 2.1 1.1 2.9S281 45 282 45s2.1-.3 3.3-.9zM293.7 42.5c0 1-.4 1.9-1.1 2.6-.8.7-1.7 1.1-2.8 1.1-1.1 0-2-.3-2.7-1-.7-.7-1.1-1.5-1.1-2.6 0-1.2.5-2.1 1.4-2.8.7-.5 1.6-.8 2.6-.8s1.9.3 2.6 1c.8.6 1.1 1.5 1.1 2.5zm-1.5.3c0-.8-.2-1.5-.7-2-.4-.5-1-.8-1.8-.8-.7 0-1.2.2-1.6.7-.4.5-.6 1.1-.6 1.8 0 .8.2 1.5.7 2 .5.5 1 .8 1.7.8s1.2-.2 1.7-.7.6-1.1.6-1.8zM306.7 46h-2.6c.3-.2.4-.4.5-.5.1-.1.1-.5.1-.9v-2.3c0-.8-.1-1.3-.4-1.6-.3-.4-.7-.6-1.3-.6-.7 0-1.2.3-1.5.8-.1.2-.2.6-.2 1.1v2.5c0 .5 0 .8.1.9.1.1.2.3.5.5h-2.5c.3-.2.4-.4.5-.5.1-.1.1-.5.1-.9v-2.4c0-.7-.2-1.2-.5-1.5-.3-.3-.7-.5-1.2-.5-.7 0-1.2.3-1.5.8-.1.2-.2.5-.2 1v2.6c0 .5 0 .8.1.9.1.1.2.3.5.5h-2.5c.3-.2.4-.4.5-.5.1-.1.1-.5.1-.9v-3.9c0-.5 0-.8-.1-.9-.1-.1-.2-.3-.5-.5h1c.4 0 .6-.1.8-.3v1.2c.6-.8 1.3-1.2 2.2-1.2 1 0 1.7.4 2.3 1.3.4-.5.7-.8 1.1-1 .4-.2.8-.3 1.3-.3s1 .1 1.4.3c.5.2.8.6 1 1 .1.3.2.8.2 1.6v2.6c0 .4 0 .7.1.9.1.4.3.6.6.7zM315.4 42.5c0 1.1-.3 1.9-1 2.7-.7.7-1.5 1.1-2.5 1.1-.4 0-.8-.1-1.1-.2l-.8-1.2c.6.3 1.1.4 1.7.4.7 0 1.3-.2 1.7-.7.4-.5.6-1.1.6-1.9 0-.8-.2-1.4-.6-1.9-.4-.5-1-.7-1.6-.7-.7 0-1.3.3-1.7.8-.2.3-.4.8-.4 1.4v5.5c0 .4 0 .7.1.8.1.3.2.5.5.6h-2.5c.3-.2.4-.4.5-.6 0-.1.1-.4.1-.8v-7c0-.5 0-.8-.1-.9-.1-.1-.2-.3-.5-.5h1c.4 0 .7-.1.9-.3v1.1c.6-.7 1.4-1.1 2.4-1.1s1.8.3 2.5 1c.5.5.8 1.4.8 2.4zM323.7 46h-1.8v-1c-.4.4-.7.8-1 .9s-.7.2-1.2.2c-1 0-1.8-.3-2.2-1-.3-.4-.4-1-.4-1.9v-2.6c0-.5 0-.8-.1-.9s-.2-.3-.5-.5h1c.4 0 .7-.1.9-.3V43c0 .7.1 1.2.4 1.5.3.4.7.6 1.3.6.5 0 .9-.2 1.2-.5.3-.3.5-.7.5-1.3v-2.6c0-.5 0-.8-.1-.9-.1-.1-.2-.3-.5-.5h1c.4 0 .7-.1.9-.3v5.6c0 .5 0 .8.1.9.1.1.2.3.5.5zM329 45.1l-.8 1.1c-.2.1-.3.1-.5.1-.6 0-1.1-.2-1.5-.6-.3-.3-.4-.6-.5-1v-4.4h-1v-.5c.5-.1.9-.3 1.2-.6.4-.4.5-1 .5-1.8V37h.6v2.2h1.1c.4 0 .7 0 .9-.1v1.3c-.2-.2-.5-.3-.9-.3H327v3.1c0 .7.1 1.2.3 1.4.3.3.6.5 1.1.5.1.1.3 0 .6 0zM332.1 46h-2.5c.3-.2.4-.4.5-.5.1-.1.1-.5.1-.9v-3.9c0-.5 0-.8-.1-.9-.1-.1-.2-.3-.5-.5h1c.4 0 .7-.1.9-.3v5.6c0 .5 0 .8.1.9l.5.5zm-.3-8.6c0 .3-.1.5-.3.7-.2.2-.4.3-.7.3-.3 0-.5-.1-.6-.3-.2-.2-.3-.4-.3-.7 0-.3.1-.5.3-.6.2-.2.4-.3.7-.3.2 0 .5.1.6.3.2.1.3.3.3.6zM340.4 46H338c.3-.2.4-.4.5-.5.1-.1.1-.5.1-.9v-2.4c0-.7-.1-1.2-.3-1.5-.3-.4-.8-.6-1.5-.6-.3 0-.6.1-.9.2s-.5.3-.6.6c-.1.1-.1.4-.1.7v3c0 .5 0 .8.1.9.1.1.2.3.5.5h-2.5c.3-.2.4-.4.5-.5.1-.1.1-.5.1-.9v-3.9c0-.5 0-.8-.1-.9-.1-.1-.2-.3-.5-.5h1c.4 0 .7-.1.9-.3v1.2c.7-.8 1.4-1.1 2.2-1.1.5 0 1 .1 1.4.3.5.3.8.6 1 1 .1.3.2.9.2 1.7v2.5c0 .5 0 .8.1.9-.1.1.1.3.3.5zM349.6 39l-.4 1c-.1.1-.2.2-.4.2-.3 0-.8-.1-1.6-.2.7.5 1.1 1.1 1.1 1.8 0 .9-.6 1.6-1.7 2-.4.1-.9.2-1.5.3-.4.1-.6.2-.6.4s.2.3.6.3c1.1 0 2 .1 2.5.2.6.2 1.1.5 1.4.9.2.3.3.6.3 1.1 0 .9-.5 1.5-1.4 2-.8.4-1.6.6-2.6.6-1.1 0-2.1-.2-2.9-.6-.8-.4-1.2-.9-1.2-1.5 0-.4.1-.7.4-.9.2-.2.6-.3 1-.3.3 0 .5.1.8.2-.4.1-.7.3-.7.7 0 .5.2.9.7 1.2.5.3 1.1.4 1.8.4.8 0 1.4-.1 1.9-.4s.7-.7.7-1.2c0-.9-1-1.4-3-1.4h-1c-.3 0-.5-.1-.7-.3-.2-.2-.3-.5-.3-.8 0-.1.1-.3.2-.4s.5-.2 1-.4c-.4-.1-.8-.3-1.1-.5-.5-.5-.8-1.1-.8-1.8s.3-1.3.9-1.8 1.3-.7 2.2-.7c.2 0 .6 0 1.3.1.5 0 1 .1 1.4.1.4-.2 1-.2 1.7-.3zm-2.8 2.6c0-.5-.2-.9-.5-1.3-.4-.3-.8-.5-1.3-.5-.4 0-.8.1-1.1.4-.3.3-.4.6-.4 1 0 .5.2 1 .6 1.3s.8.6 1.3.6c.4 0 .8-.1 1.1-.4s.3-.6.3-1.1zM360.9 43.2c0 .7-.3 1.4-.9 2-.8.7-1.8 1.1-3.1 1.1-.9 0-1.8-.2-2.6-.5l-.4-1.8c1 .8 2.1 1.2 3.2 1.2.6 0 1.2-.1 1.6-.4s.6-.6.6-1.1c0-.4-.2-.8-.5-1-.3-.2-.9-.6-1.9-1-1-.4-1.7-.8-2-1.2-.5-.5-.8-1-.8-1.7 0-.8.3-1.4 1-1.9s1.6-.7 2.7-.7c.7 0 1.5.1 2.3.3V38c-.7-.6-1.4-1-2.3-1-.6 0-1 .1-1.4.4s-.5.6-.5 1 .1.7.4.9c.3.2.9.6 1.8 1 1.1.5 1.8.9 2.2 1.2.3.5.6 1 .6 1.7zM369 44.4l-.8 1.4c-.6.2-1.3.4-2 .4-1.2 0-2.2-.3-3-1-.8-.7-1.2-1.5-1.2-2.6s.4-2 1.2-2.7c.6-.6 1.4-.9 2.5-.9 1 0 1.8.3 2.4.9.6.6 1 1.4 1 2.3v.2h-5.4c0 .9.3 1.5.8 2s1.2.7 2.1.7c.8.1 1.7-.1 2.4-.7zm-1.6-2.9c-.2-1.1-.8-1.7-1.9-1.7-1.1 0-1.7.6-1.9 1.7h3.8zM374.3 40.4c-.2-.2-.4-.2-.7-.2-.6 0-1 .2-1.3.6-.2.3-.3.7-.3 1.3v2.4c0 .5 0 .8.1.9.1.1.2.3.5.5h-2.5c.3-.2.4-.4.5-.5.1-.1.1-.5.1-.9v-3.9c0-.5 0-.8-.1-.9-.1-.1-.2-.3-.5-.5h1c.4 0 .7-.1.9-.3v1.2c.4-.8 1-1.1 1.8-1.1.1 0 .3 0 .5.1v1.3zM382.9 39.2l-3.4 7.4c-.6-.3-.9-.6-1.1-.8s-.4-.6-.6-1l-1.7-4c-.2-.5-.4-.8-.5-1s-.4-.3-.8-.6h1c.5 0 .8-.1 1.1-.3 0 .2.1.4.2.7l2.2 5.1 1.8-3.9c.2-.4.3-.7.3-.9 0-.3-.2-.5-.5-.7h2zM386 46h-2.5c.3-.2.4-.4.5-.5.1-.1.1-.5.1-.9v-3.9c0-.5 0-.8-.1-.9-.1-.1-.2-.3-.5-.5h1c.4 0 .7-.1.9-.3v5.6c0 .5 0 .8.1.9 0 .1.2.3.5.5zm-.4-8.6c0 .3-.1.5-.3.7-.2.2-.4.3-.7.3-.3 0-.5-.1-.6-.3-.2-.2-.3-.4-.3-.7 0-.3.1-.5.3-.6.2-.2.4-.3.7-.3.2 0 .5.1.6.3.2.1.3.3.3.6zM393.9 44.5l-.9 1.4c-.4.2-1.1.3-1.9.3-1.2 0-2.1-.3-2.9-1-.8-.6-1.1-1.5-1.1-2.5 0-1.1.4-2 1.2-2.7.8-.7 1.8-1 3-1 .5 0 1.1.1 1.6.2v1.5c-.5-.5-1.1-.7-1.8-.7s-1.3.2-1.8.7c-.4.4-.7 1-.7 1.8s.3 1.5.9 2c.6.5 1.3.8 2.2.8.7-.1 1.4-.3 2.2-.8zM401.4 44.4l-.8 1.4c-.6.2-1.3.4-2 .4-1.2 0-2.2-.3-3-1-.8-.7-1.2-1.5-1.2-2.6s.4-2 1.2-2.7c.6-.6 1.4-.9 2.5-.9 1 0 1.8.3 2.4.9.6.6 1 1.4 1 2.3v.2H396c0 .9.3 1.5.8 2s1.2.7 2.1.7c.9.1 1.8-.1 2.5-.7zm-1.6-2.9c-.2-1.1-.8-1.7-1.9-1.7-1.1 0-1.7.6-1.9 1.7h3.8zM408.1 43.9c0 .7-.3 1.3-.9 1.7-.6.4-1.4.6-2.4.6-.7 0-1.3-.1-2-.4l-.5-1.5c1 .6 1.9.9 2.8.9.5 0 .8-.1 1.1-.3.3-.2.5-.4.5-.7 0-.3-.1-.5-.3-.7-.2-.1-.6-.3-1.4-.6-.8-.3-1.4-.6-1.7-.9-.3-.3-.5-.7-.5-1.1 0-.6.3-1.1.8-1.5.5-.3 1.2-.5 2.1-.5.6 0 1.2.1 1.7.2v1.3c-.6-.4-1.2-.6-1.8-.6-.4 0-.7.1-1 .2-.3.2-.4.4-.4.6 0 .2.1.4.3.5.2.2.6.3 1.2.5.9.3 1.5.6 1.8.9.4.5.6.9.6 1.4z"/></g></svg>