<svg xmlns="http://www.w3.org/2000/svg" viewBox="0 0 612 616" enable-background="new 0 0 612 616"><circle fill="#75ABEA" cx="305.8" cy="306.3" r="303.8" xmlns:rdf="http://www.w3.org/1999/02/22-rdf-syntax-ns#" xmlns:cc="http://creativecommons.org/ns#" xmlns:dc="http://purl.org/dc/elements/1.1/"/><path fill="#95A5A6" d="M162 358.3v56.1c0 38.5 64.6 72.2 144.3 72.2s144.3-33.7 144.3-72.2v-56.1h-288.6z"/><path fill="#BDC3C7" d="M450.7 358.3c0 35.4-64.6 64.2-144.3 64.2s-144.4-28.8-144.4-64.2 64.6-64.2 144.3-64.2 144.4 28.7 144.4 64.2z"/><path fill="#7F8C8D" d="M163 414.4c-.7 1.6-1 4.8-1 8 0 35.3 64.6 64.2 144.3 64.2s144.3-28.9 144.3-64.2c0-3.2-.3-6.4-1-8-8.9 30.5-69.8 56.1-143.3 56.1-73.6 0-134.4-25.6-143.3-56.1z"/><path fill="#95A5A6" d="M162 278.1v56.1c0 38.5 64.6 72.2 144.3 72.2s144.3-33.7 144.3-72.2v-56.1h-288.6z"/><path fill="#BDC3C7" d="M450.7 278.1c0 35.4-64.6 64.2-144.3 64.2s-144.4-28.8-144.4-64.2 64.6-64.2 144.3-64.2 144.4 28.7 144.4 64.2z"/><path fill="#7F8C8D" d="M163 334.2c-.7 1.6-1 4.8-1 8 0 35.3 64.6 64.2 144.3 64.2s144.3-28.9 144.3-64.2c0-3.2-.3-6.4-1-8-8.9 30.5-69.8 56.1-143.3 56.1-73.6 0-134.4-25.6-143.3-56.1z"/><path fill="#95A5A6" d="M162 197.9v56.1c0 38.5 64.6 72.2 144.3 72.2s144.3-33.7 144.3-72.2v-56.1h-288.6z"/><path fill="#7F8C8D" d="M163 254c-.7 1.6-1 4.8-1 8 0 35.3 64.6 64.2 144.3 64.2s144.3-28.9 144.3-64.2c0-3.2-.3-6.4-1-8-8.9 30.5-69.8 56.1-143.3 56.1-73.6.1-134.4-25.6-143.3-56.1z"/><path fill="#BDC3C7" d="M306.4 358.3v128.3c79.7 0 144.3-33.7 144.3-72.2v-56.1h-144.3z"/><path fill="#ECF0F1" d="M306.4 294.1v128.3c79.7 0 144.3-28.7 144.3-64.2 0-35.4-64.6-64.1-144.3-64.1z"/><path fill="#BDC3C7" d="M306.4 278.1v128.3c79.7 0 144.3-32.3 144.3-72.2v-56.1h-144.3z"/><path fill="#95A5A6" d="M449.7 334.2c-8.9 31.6-69.8 56.1-143.3 56.1v16c79.7 0 144.3-28.7 144.3-64.2 0-2.6-.3-5.3-1-7.9z"/><path fill="#ECF0F1" d="M306.4 213.9v128.3c79.7 0 144.3-28.7 144.3-64.2 0-35.4-64.6-64.1-144.3-64.1z"/><path fill="#BDC3C7" d="M306.4 197.9v128.3c79.7 0 144.3-32.3 144.3-72.2v-56.1h-144.3z"/><path fill="#95A5A6" d="M449.7 254c-8.9 31.6-69.8 56.1-143.3 56.1v16c79.7 0 144.3-28.7 144.3-64.2 0-2.6-.3-5.3-1-7.9zM449.7 414.4c-8.9 30.5-69.8 56.1-143.3 56.1v16c79.7 0 144.3-28.9 144.3-64.2 0-3.1-.3-6.3-1-7.9z"/><path fill="#BDC3C7" d="M450.7 197.9c0 35.4-64.6 64.2-144.3 64.2s-144.4-28.8-144.4-64.2 64.6-64.2 144.3-64.2 144.4 28.8 144.4 64.2z"/></svg>