<?xml version="1.0" encoding="utf-8"?>
<!-- Generator: Adobe Illustrator 18.0.0, SVG Export Plug-In . SVG Version: 6.00 Build 0)  -->
<!DOCTYPE svg PUBLIC "-//W3C//DTD SVG 1.1//EN" "http://www.w3.org/Graphics/SVG/1.1/DTD/svg11.dtd">
<svg version="1.1" id="Layer_1" xmlns="http://www.w3.org/2000/svg" xmlns:xlink="http://www.w3.org/1999/xlink" x="0px" y="0px"
	 viewBox="0 0 612 616" enable-background="new 0 0 612 616" xml:space="preserve">
<g id="Layer_1_1_" xmlns:rdf="http://www.w3.org/1999/02/22-rdf-syntax-ns#" xmlns:cc="http://creativecommons.org/ns#" xmlns:dc="http://purl.org/dc/elements/1.1/">
	<g>
		<circle fill="#75ABEA" cx="305.8" cy="306.3" r="303.8"/>
	</g>
</g>
<g id="Layer_2">
</g>
<g transform="translate(0 -1028.4)">
	<path fill="#95A5A6" d="M162,1386.7v46.5v6.4v1.6c-0.1,0,0,0,0,1.6c0,38.5,64.6,72.2,144.3,72.2s144.3-33.7,144.3-72.2v-3.2v-4.8
		v-48.1H162z"/>
	<path fill="#BDC3C7" d="M450.7,1386.7c0,35.4-64.6,64.2-144.3,64.2S162,1422.1,162,1386.7s64.6-64.2,144.3-64.2
		S450.7,1351.2,450.7,1386.7z"/>
	<path fill="#7F8C8D" d="M163,1442.8c-0.7,1.6-1,4.8-1,8c0,35.3,64.6,64.2,144.3,64.2s144.3-28.9,144.3-64.2c0-3.2-0.3-6.4-1-8
		c-8.9,30.5-69.8,56.1-143.3,56.1C232.7,1498.9,171.9,1473.3,163,1442.8z"/>
	<path fill="#95A5A6" d="M162,1306.5v46.5v6.4v1.6c-0.1,0,0,0,0,1.6c0,38.5,64.6,72.2,144.3,72.2s144.3-33.7,144.3-72.2v-3.2v-4.8
		v-48.1H162z"/>
	<path fill="#BDC3C7" d="M450.7,1306.5c0,35.4-64.6,64.2-144.3,64.2S162,1341.9,162,1306.5s64.6-64.2,144.3-64.2
		S450.7,1271,450.7,1306.5z"/>
	<path fill="#7F8C8D" d="M163,1362.6c-0.7,1.6-1,4.8-1,8c0,35.3,64.6,64.2,144.3,64.2s144.3-28.9,144.3-64.2c0-3.2-0.3-6.4-1-8
		c-8.9,30.5-69.8,56.1-143.3,56.1C232.7,1418.7,171.9,1393.1,163,1362.6z"/>
	<path fill="#95A5A6" d="M162,1226.3v46.5v6.4v1.6c-0.1,0,0,0,0,1.6c0,38.5,64.6,72.2,144.3,72.2s144.3-33.7,144.3-72.2v-3.2v-4.8
		v-48.1H162z"/>
	<path fill="#7F8C8D" d="M163,1282.4c-0.7,1.6-1,4.8-1,8c0,35.3,64.6,64.2,144.3,64.2s144.3-28.9,144.3-64.2c0-3.2-0.3-6.4-1-8
		c-8.9,30.5-69.8,56.1-143.3,56.1C232.7,1338.6,171.9,1312.9,163,1282.4z"/>
	<path fill="#BDC3C7" d="M306.4,1386.7V1515c79.7,0,144.3-33.7,144.3-72.2v-3.2v-4.8v-48.1L306.4,1386.7L306.4,1386.7z"/>
	<g transform="translate(0,5)">
		<path fill="#ECF0F1" d="M306.4,1317.5v128.3c79.7,0,144.3-28.7,144.3-64.2C450.7,1346.2,386.1,1317.5,306.4,1317.5z"/>
		<path fill="#BDC3C7" d="M306.4,1301.5v128.3c79.7,0,144.3-32.3,144.3-72.2v-3v-5v-48.1H306.4z"/>
		<path fill="#95A5A6" d="M449.7,1357.6c-8.9,31.6-69.8,56.1-143.3,56.1v16c79.7,0,144.3-28.7,144.3-64.2
			C450.7,1362.9,450.4,1360.2,449.7,1357.6z"/>
	</g>
	<path fill="#ECF0F1" d="M306.4,1242.3v128.3c79.7,0,144.3-28.7,144.3-64.2C450.7,1271,386.1,1242.3,306.4,1242.3z"/>
	<path fill="#BDC3C7" d="M306.4,1226.3v128.3c79.7,0,144.3-32.3,144.3-72.2v-3v-5v-48.1L306.4,1226.3L306.4,1226.3z"/>
	<path fill="#95A5A6" d="M449.7,1282.4c-8.9,31.6-69.8,56.1-143.3,56.1v16c79.7,0,144.3-28.7,144.3-64.2
		C450.7,1287.7,450.4,1285,449.7,1282.4z"/>
	<path fill="#95A5A6" d="M449.7,1442.8c-8.9,30.5-69.8,56.1-143.3,56.1v16c79.7,0,144.3-28.9,144.3-64.2
		C450.7,1447.6,450.4,1444.4,449.7,1442.8z"/>
	<path fill="#BDC3C7" d="M450.7,1226.3c0,35.4-64.6,64.2-144.3,64.2S162,1261.7,162,1226.3s64.6-64.2,144.3-64.2
		S450.7,1190.9,450.7,1226.3z"/>
</g>
</svg>
