<svg height="12" viewBox="0 0 22 12" width="22" xmlns="http://www.w3.org/2000/svg" xmlns:xlink="http://www.w3.org/1999/xlink"><title/><defs><path d="M.5 0C.225 0 0 .214 0 .505v.99C0 1.775.218 2 .5 2h21c.276 0 .5-.214.5-.505v-.99c0-.28-.218-.505-.5-.505H.5zm0 5c-.276 0-.5.214-.5.505v.99C0 6.775.218 7 .5 7h21c.276 0 .5-.214.5-.505v-.99c0-.28-.218-.505-.5-.505H.5zm0 5c-.276 0-.5.214-.5.505v.99c0 .28.218.505.5.505h21c.276 0 .5-.214.5-.505v-.99c0-.28-.218-.505-.5-.505H.5z" id="a"/></defs><g fill="none"><use fill="#000" xlink:href="#a"/><use xlink:href="#a"/></g></svg>