<svg height="12" viewBox="0 0 22 12" width="22" xmlns="http://www.w3.org/2000/svg" xmlns:xlink="http://www.w3.org/1999/xlink"><title/><defs><path d="M.501 0c-.277 0-.501.214-.501.505v.991c0 .279.218.505.501.505h20.998c.277 0 .501-.214.501-.505v-.991c0-.279-.218-.505-.501-.505h-20.998zm0 5c-.277 0-.501.214-.501.505v.991c0 .279.218.505.501.505h20.998c.277 0 .501-.214.501-.505v-.991c0-.279-.218-.505-.501-.505h-20.998zm0 5c-.277 0-.501.214-.501.505v.991c0 .279.218.505.501.505h20.998c.277 0 .501-.214.501-.505v-.991c0-.279-.218-.505-.501-.505h-20.998z" id="a"/></defs><g fill="none"><use fill="#000" xlink:href="#a"/><use xlink:href="#a"/></g></svg>