<svg height="100" viewBox="0 0 100 100" width="100" xmlns="http://www.w3.org/2000/svg"><path d="M50 0c27.614 0 50 22.385 50 50 0 27.613-22.386 50-50 50S0 77.613 0 50C0 22.385 22.386 0 50 0z" fill="#EFC75E"/><path d="M4.624 70.998H24v-43L.05 51.948C.31 58.735 1.92 65.17 4.623 71z" fill="#D7B354"/><path d="M7.927 77C16.82 90.83 32.335 100 50 100s33.18-9.17 42.073-23H7.927z" fill="#923604"/><path d="M92.073 77H7.927c.658 1.023 1.343 2.03 2.073 3h80c.73-.97 1.415-1.977 2.073-3z" fill="#7B2B00"/><path d="M60.82 92.377c1.49-.873 2.173-1.27 1.687-3.248-.906-3.69.327-8.804 1.386-12.134h-2.04c-1.077 3.605-2.298 9.225-.787 11.232.28.37.204.898-.172 1.176s-.907.2-1.188-.17c-1.982-2.633-.67-8.654.375-12.238h-.874c-.746 2.465-1.82 6.752-2.296 12.207-.57 6.543-1.265 9.545-4.382 10.79 1.312-.067 2.606-.198 3.89-.364.253-4.812 2.64-6.224 4.403-7.253zm6.332-15.38h-1.47c-1.03 3.124-2.38 8.267-1.527 11.733.784 3.188-.944 4.2-2.472 5.094-1.615.943-3.28 1.92-3.558 5.56.802-.132 1.597-.282 2.385-.45.198-.955.577-1.826 1.186-2.555 1.677-2 3.986-2.44 6.337-1.2.47.248.935.568 1.385.94.656-.278 1.302-.575 1.943-.882-.65-.844-1.375-1.69-2.17-2.54-5.05-5.4-3.736-11.718-2.038-15.702zm-4.15 20.456c-.257.307-.45.66-.6 1.04 1.76-.45 3.477-1.003 5.155-1.636l-.32-.19c-1.645-.868-3.07-.603-4.235.786zM87.74 82.715c.623-.725 1.228-1.465 1.81-2.223.145-1.115.335-2.268.622-3.496h-1.89c.03 1.47-.053 3.54-.543 5.72zM55.22 89.06c.462-5.304 1.454-9.472 2.213-12.063h-2.236c-.39 3.162-1.807 8.824-6.97 11.672-3.756 2.07-5.066 5.51-4.416 7.84.473 1.692 1.923 2.624 3.98 2.562 5.897-.183 6.66-1.213 7.43-10.013zm30.247-12.064c.09.676.148 1.41.148 2.186 0 3.523-1.2 7.836-6.145 10.678-3.08 1.768-5.31 1.08-6.634.19-2.513-1.687-3.924-5.7-3.358-9.548.198-1.344.628-2.52 1.235-3.506h-1.75c-1.665 3.49-3.294 9.467 1.47 14.56.916.978 1.72 1.948 2.456 2.913 4.433-2.304 8.478-5.25 12.013-8.722 1.5-3.07 1.713-6.617 1.67-8.752h-1.106zm-47.63 0H34.9c-1.186.514-2.78.924-4.93.994-5.744.195-9.642.977-9.68.982-.46.094-.907-.2-1.002-.654-.09-.46.2-.898.66-.992.067-.012.777-.154 1.99-.33h-4.147c-.495 3.148-2.072 5.52-4.467 6.924.246.268.5.53.752.793l.14-.096c3.678-2.49 7.843-5.312 13.76-5.312 4.923 0 7.98-1.09 9.862-2.31zm54.078 0l-.043.2.128-.2h-.085zm-49.74 19.96c-.826-2.964.706-7.265 5.23-9.76 4.35-2.4 5.675-7.323 6.073-10.2H52.41c-.778 5.125-3.924 7.543-6.74 9.705-3.553 2.728-6.623 5.073-5.85 12.124l.03.193c1.377.285 2.777.502 4.192.672-.89-.65-1.542-1.57-1.866-2.733zm2.454-11.583c2.733-2.1 5.333-4.104 6.06-8.377h-2.196c-.837 2.934-3.52 7.54-12.02 10.143-4.96 1.52-9.307 3.5-12.486 5.577.382.234.772.455 1.16.68 1.442-.47 3.014-.594 4.432-.102 1.19.412 2.65 1.402 3.31 3.738 1.695.62 3.437 1.143 5.212 1.578-.704-7.663 2.965-10.505 6.527-13.237zm-28.557-8.377h-2.83c.17.588.065 1.23-.33 1.828-.45.684-1.3 1.318-2.413 1.734.545.71 1.108 1.4 1.69 2.076 2.688-1.452 3.586-4.05 3.883-5.638zM29.02 94.88c-.476-.163-.994-.226-1.526-.212 1.04.527 2.092 1.03 3.17 1.486-.41-.607-.958-1.035-1.644-1.273zM11.494 77.905c.214-.324.123-.473.09-.53-.072-.118-.227-.25-.48-.378H7.996c.464.725.944 1.438 1.444 2.135 1.026-.288 1.76-.78 2.054-1.226zm62.475 7.51c.197.234.8.947 2.565.156 3.29-1.477 4.438-5.22 3.447-7.783-.113-.293-.253-.553-.408-.79h-2.45c1.37.87 1.794 2.022 1.91 2.726.23 1.37-.348 2.857-1.436 3.686-.37.28-.904.214-1.19-.155-.285-.367-.215-.895.156-1.178.598-.455.922-1.312.796-2.082-.152-.918-.888-1.627-2.126-2.047-.303-.102-.63.094-.97.588-1.15 1.66-1.514 5.437-.295 6.878zm-27.25-8.418h-2.01c-1.447 2.387-4.517 5.658-10.717 6.578-4.407.652-10.048 3.068-14.3 6.176.89.684 1.802 1.34 2.738 1.965 3.815-2.613 8.968-4.78 13.544-6.182 7.337-2.248 9.874-6.015 10.746-8.537zm27.068 11.662c1.344.9 2.97.816 4.83-.254 5.388-3.094 5.676-8.146 5.176-11.408h-2.31l.082.19c1.263 3.267-.036 7.99-4.333 9.915-2.556 1.147-3.957.11-4.565-.608-1.737-2.057-1.337-6.695.197-8.908.156-.227.325-.416.5-.588h-.538c-.854.902-1.44 2.186-1.67 3.75-.468 3.184.66 6.59 2.63 7.912zM42.67 76.996h-2.165c-1.87 1.875-5.53 3.99-12.53 3.99-5.336 0-9.244 2.61-12.69 4.943.986.96 2.006 1.886 3.068 2.76 4.552-3.417 10.652-6.077 15.39-6.78 4.81-.715 7.482-2.978 8.927-4.914z" fill="#9B481A"/><path d="M7.927 76.998h84.146c1.23-1.914 2.337-3.918 3.302-6H4.625c.965 2.082 2.07 4.086 3.302 6z" fill="#A34A1B"/><path d="M85 67v1c0 1.656-1.343 3-3 3H18c-1.657 0-3-1.344-3-3v-1h70z" fill="#F3F3F3"/><path d="M45.5 66h9c.828 0 1.5.672 1.5 1.5s-.672 1.5-1.5 1.5h-9c-.828 0-1.5-.672-1.5-1.5s.672-1.5 1.5-1.5z" fill="#D5D5D5"/><path d="M24 28h52c1.104 0 2 .895 2 2v37H22V30c0-1.105.896-2 2-2z" fill="#36434F"/><path d="M25 31h50v33H25V31z" fill="#465765"/><path d="M38 60h24c1.657 0 3 1.342 3 3v1l-30.11-.01L35 63c0-1.658 1.343-3 3-3z" fill="#7E8A94"/><path d="M41 58c1.104 0 2 .895 2 2 0 1.104-.896 2-2 2s-2-.896-2-2c0-1.105.896-2 2-2z" fill="#E4E7E7"/><path d="M47 58c1.104 0 2 .895 2 2 0 1.104-.896 2-2 2s-2-.896-2-2c0-1.105.896-2 2-2z" fill="#EFC75E"/><path d="M53 58c1.104 0 2 .895 2 2 0 1.104-.896 2-2 2s-2-.896-2-2c0-1.105.896-2 2-2zm6 0c1.104 0 2 .895 2 2 0 1.104-.896 2-2 2s-2-.896-2-2c0-1.105.896-2 2-2z" fill="#E4E7E7"/><path d="M67.83 80h1.747c.224-1.133.606-2.143 1.135-3h-1.75c-.412.863-.82 1.88-1.132 3zm7.404-2.053c-.303-.102-.63.094-.97.588-.27.39-.492.9-.665 1.465h3.76v-.006c-.152-.918-.887-1.627-2.126-2.047zM71.316 80h.53c.228-.928.574-1.775 1.02-2.416.154-.225.322-.414.497-.584h-.538c-.71.752-1.22 1.777-1.51 3zm10.25-2.814c.333.86.482 1.826.45 2.814h1.917c.07-1.082-.003-2.11-.14-3h-2.31l.083.186zm-2.532 2.537l.026.277h1.25c.036-.777-.066-1.537-.328-2.213-.113-.29-.252-.55-.406-.787h-2.448c1.368.87 1.79 2.02 1.906 2.723zM9.44 79.13c1.025-.288 1.76-.78 2.054-1.226.214-.324.123-.473.09-.53-.072-.116-.226-.25-.477-.374H8c.462.723.942 1.434 1.44 2.13zM42.668 77h-2.165c-1.066 1.068-2.718 2.21-5.233 3h4.037c1.528-.916 2.613-2 3.36-3zm-26.594 0h-2.828c.168.586.063 1.227-.332 1.824-.282.426-.734.828-1.293 1.176h3.32c.65-1.072.977-2.172 1.133-3zm21.76 0H34.89c-1.184.512-2.773.92-4.92.99-5.744.195-9.642.977-9.68.982-.46.094-.907-.2-1.002-.654-.09-.46.2-.898.66-.992.067-.012.77-.152 1.972-.326h-4.13c-.173 1.1-.485 2.098-.912 3h6.16c1.51-.432 3.14-.695 4.937-.695 4.92 0 7.973-1.088 9.857-2.305zm23.23 3h1.99c.263-1.086.556-2.11.84-3h-2.04c-.27.902-.55 1.932-.79 3zm25.383 0c.12-1.137.145-2.176.128-3h-1.107c.09.674.148 1.406.148 2.182 0 .268-.01.54-.024.818h.856zm3.725-3h-1.888c.018.834-.013 1.87-.122 3h1.464c.136-.963.302-1.95.547-3zm-47.987 3h2.855c.854-1.074 1.373-2.115 1.68-3h-2.01c-.563.93-1.38 1.992-2.525 3zm49.73-3l-.04.197.125-.197h-.084zm-44.79 3h2.594c.436-.87.777-1.848.974-3h-2.196c-.253.88-.677 1.916-1.37 3zm7.477 0h2.05c.27-1.148.538-2.164.782-3h-2.235c-.106.852-.29 1.89-.597 3zm3.8 0h.914c.236-1.09.51-2.12.766-3h-.875c-.244.807-.523 1.826-.806 3zm-6.823 0h1.237c.34-1.102.544-2.143.663-3H52.41c-.173 1.123-.462 2.11-.833 3zm13.23 0h1.332c.274-1.092.63-2.107 1.012-3h-1.47c-.287.867-.594 1.898-.875 3z" fill="#88411A"/><path d="M37.215 71H33.65c-1.415.78-3.09 1.504-5.1 2.115-3.618 1.098-6.914 2.438-9.673 3.88h12.466c1.28-2.497 3.365-4.085 5.41-5.64l.462-.355zm10.195 4.03c.126-1.433.292-2.774.48-4.03h-3.443c-1 1.396-2.316 2.68-4.072 3.64-1.227.67-2.19 1.483-2.914 2.356h9.758c.065-.613.13-1.256.192-1.965zm7.33.07c-.308-1.244-.356-2.654-.263-4.1h-1.892c-.02 1.348.17 2.498.705 3.2.28.372.204.897-.174 1.175-.378.275-.912.2-1.194-.172-.77-1.012-1.04-2.523-1.03-4.203h-1.273c-.202 1.3-.38 2.688-.51 4.174-.058.645-.116 1.244-.178 1.822h5.77c.23-.437.26-1 .04-1.896zm-26.693-3.586c.536-.162 1.04-.336 1.526-.514h-8.948c-3.775 1.38-7.68 3.53-10.59 5.996h5.44c3.704-2.3 8.377-4.21 12.572-5.482zM4.83 71.48l.73-.48h-.948l.218.48zm34.715 1.694c1.085-.594 1.98-1.34 2.725-2.174h-2.353c-.7.6-1.418 1.146-2.118 1.68-1.75 1.328-3.38 2.572-4.5 4.316h2.085c.896-1.435 2.263-2.787 4.16-3.822zM16.402 71h-7.8c-.505.328-1 .66-1.483.984-.513.344-1.02.674-1.525 1 .68 1.3 1.414 2.566 2.203 3.797 2.306-2.202 5.378-4.214 8.604-5.78zm65.304 0h-2.263c-.557 1.496-1.347 2.965-2.475 4.248-.437.498-.797 1.1-1.114 1.748h6.862c-.56-1.775-.934-3.754-1.01-5.996zm11.91 3.393c.48-.852.93-1.727 1.36-2.61-.025-.263-.037-.524-.037-.782h-2.105c.067 1.035.312 2.18.78 3.393zm-4.35 2.603h2.786l.478-.795c-.91-1.864-1.337-3.624-1.42-5.2h-3.58c.103 1.895.736 3.98 1.735 5.996zm-29.137 0c-1.374-1.973-2.016-4.018-2.187-5.996h-1.755c-.095 1.322-.062 2.6.21 3.7.233.938.242 1.683.105 2.296h3.626zM85.796 71h-2.402c.078 2.262.482 4.238 1.09 5.996h2.852c-.908-2.008-1.46-4.064-1.54-5.996zm-11.795 5.996c.436-1.086.985-2.057 1.675-2.842.834-.95 1.457-2.033 1.93-3.154h-.973c-.936 1.78-2.446 3.473-4.826 4.826-3.1 1.764-5.34 1.076-6.675.19-1.52-1.013-2.628-2.868-3.155-5.017h-2.35c.214 1.987.982 4.046 2.642 5.995h11.732zm-9.04-4.525c-.342-.4-.6-.907-.784-1.47h-.434c.455 1.572 1.27 2.912 2.346 3.63 1.353.897 2.987.813 4.86-.253 1.706-.973 2.902-2.137 3.727-3.377h-2.284c-.734.838-1.672 1.56-2.836 2.078-2.572 1.143-3.982.11-4.594-.607zm3.892-.92c.35-.155.663-.35.965-.55h-3.786c.076.135.145.283.24.395.198.234.804.945 2.58.156z" fill="#AC5C32"/></svg>