<svg height="128" viewBox="0 0 128 128" width="128" xmlns="http://www.w3.org/2000/svg"><circle cx="64" cy="64" fill="#686868" r="64"/><path d="M91.39 44.762c-.777-3.659-1.681-7.958-2.696-13.145-.11-.54-.601-1.16-1.11-1.38-1.151-.482-2.668-1.091-3.771-1.509-.748.635-1.384 1.156-2.709 1.041-2.171-.188-4.184-1.294-6.33-1.298-2.319-.003-4.618.078-6.935-.044-3.742-.196-8.409-.89-11.886.847-2.838 1.417-5.497-.107-6.64-2.286l-.701.209c-2.6.819-5.32 1.83-8.19 3.04-.51.22-1.01.84-1.12 1.38-.956 4.888-1.812 8.98-2.56 12.5.894 1.017 1.308 2.446.771 4.169-1.948 6.248-2.17 12.855-3.915 19.124l.034.227c.05.311.11.62.19.931v.01l.079.316c2.099-1.879 5.434-2.139 6.826 1.123 1.992 4.665 2.875 10.086 5.39 14.482 2.749 4.807 7.813 6.192 11.26 10.26 1.854 2.188 1.354 4.845-.108 6.558l.453.431.795.746c1.168-.97 2.771-1.401 4.302-.953.263.077.53.146.798.206l.491.038c1.33-1.866 4.265-2.26 6.16-1.15.243.143.452.308.654.477l.16-.153c4.354-4.157 9.958-9.944 14.606-16.145 1.18-5.731.988-11.698 2.027-17.481 1.015-5.652 2.243-11.359.803-17.043-.687-2.72.853-4.719 2.872-5.528z" fill="#EAD57D"/><path d="M85.253 44.167v41.212c5.229-6.86 9.37-14.29 9.37-20.59 0-5.253-1.221-10.546-3.354-20.622h-6.016zM59.613 103.517l1.14 1.03.34.311.37.329c.36.32.69.61.98.86.84.73 2.21.74 3.05.01.96-.83 2.31-2.029 3.91-3.52.54-.49 1.1-1.021 1.68-1.58v-36.6l-13.36 37.39c.671.63 1.3 1.22 1.89 1.77zM36.733 44.167c-1.2 5.67-2.12 9.82-2.68 13.31-.07.391-.13.761-.18 1.141-.09.569-.16 1.13-.22 1.68l-.08.76c-.09.82-.14 1.61-.17 2.4l-.02.67-.01.66.02.7c.01.279.03.56.06.84l.05.439c.03.29.08.58.13.87.05.311.11.62.19.931l8.72-24.4h-5.81z" fill="#D6C169"/><path d="M56.914 44.167v56.81l.81.771 13.36-37.39v-20.19h-14.17zM42.543 44.167l-8.72 24.4v.01c.07.33.15.67.25 1 .06.26.14.51.22.77.19.641.42 1.28.67 1.931l.26.649c.09.24.19.471.3.71.11.261.23.521.35.771l.34.71c.21.43.43.859.66 1.29.49.939 1.03 1.88 1.61 2.81.22.36.44.72.67 1.07 1.1 1.72 2.32 3.439 3.6 5.12v-41.24h-.21z" fill="#F0DB83"/><path d="M64.483 24.647c-.16-.03-.32-.011-.48-.011l-.49-.02c-4.8.069-9.62.92-14.9 2.58l-6.07 16.97h.21v41.24c4.56 5.979 9.95 11.54 14.16 15.569v-56.81h14.17v20.19l12.73-35.62c-7.069-2.678-13.209-4.018-19.33-4.088z" fill="#FFEF97"/><path d="M70.82 34.125c-4.19 1.254-5.207 2.27-6.46 6.461-1.253-4.191-2.27-5.207-6.46-6.461 4.19-1.254 5.207-2.27 6.46-6.461 1.253 4.191 2.269 5.207 6.46 6.461z" fill="#F0DB83"/></svg>