<svg height="128" viewBox="0 0 128 128" width="128" xmlns="http://www.w3.org/2000/svg"><circle cx="64" cy="64" fill="#686868" r="64"/><path d="M91.39 44.762c-.777-3.66-1.68-7.958-2.696-13.145-.11-.54-.6-1.16-1.11-1.38-1.15-.482-2.668-1.09-3.77-1.51-.75.636-1.385 1.157-2.71 1.042-2.17-.19-4.184-1.295-6.33-1.3-2.32-.002-4.618.08-6.935-.043-3.743-.196-8.41-.89-11.887.847-2.838 1.417-5.497-.107-6.64-2.286-.234.07-.465.135-.7.21-2.6.818-5.32 1.83-8.19 3.04-.51.22-1.01.84-1.12 1.38-.957 4.887-1.813 8.98-2.56 12.5.893 1.016 1.307 2.445.77 4.168-1.948 6.248-2.17 12.855-3.915 19.124.013.075.02.15.034.227.05.31.11.62.19.93v.01c.022.105.055.21.08.317 2.098-1.88 5.433-2.14 6.825 1.123 1.992 4.665 2.875 10.086 5.39 14.482 2.75 4.806 7.813 6.19 11.26 10.26 1.854 2.187 1.354 4.844-.108 6.557.15.145.307.29.452.43.273.258.535.504.795.747 1.168-.97 2.77-1.4 4.302-.953.262.078.53.147.797.207l.49.038c1.33-1.866 4.266-2.26 6.16-1.15.244.143.453.308.655.477l.16-.153c4.354-4.158 9.958-9.945 14.606-16.146 1.18-5.73.988-11.698 2.027-17.48 1.015-5.653 2.243-11.36.803-17.044-.687-2.72.853-4.72 2.872-5.528z" fill="#EAD57D"/><path d="M85.253 44.167V85.38c5.23-6.86 9.37-14.29 9.37-20.59 0-5.254-1.22-10.547-3.354-20.623h-6.017zM59.613 103.517c.4.36.78.7 1.14 1.03l.34.31c.13.11.25.22.37.33.36.32.69.61.98.86.84.73 2.21.74 3.05.01.96-.83 2.31-2.03 3.91-3.52.54-.49 1.1-1.02 1.68-1.58v-36.6l-13.36 37.39c.67.63 1.3 1.22 1.89 1.77zM36.733 44.167c-1.2 5.67-2.12 9.82-2.68 13.31-.07.39-.13.76-.18 1.14-.09.57-.16 1.13-.22 1.68-.03.26-.06.51-.08.76-.09.82-.14 1.61-.17 2.4-.01.22-.02.44-.02.67-.01.22-.01.44-.01.66 0 .23.01.47.02.7.01.28.03.56.06.84.01.14.03.29.05.44.03.29.08.58.13.87.05.31.11.62.19.93l8.72-24.4h-5.81z" fill="#D6C169"/><path d="M56.914 44.167v56.81c.28.26.55.52.81.77l13.36-37.39v-20.19h-14.17zM42.543 44.167l-8.72 24.4v.01c.07.33.15.67.25 1 .06.26.14.51.22.77.19.64.42 1.28.67 1.93.08.22.17.43.26.65.09.24.19.47.3.71.11.26.23.52.35.77.11.24.22.47.34.71.21.43.43.86.66 1.29.49.94 1.03 1.88 1.61 2.81.22.36.44.72.67 1.07 1.1 1.72 2.32 3.44 3.6 5.12v-41.24h-.21z" fill="#F0DB83"/><path d="M64.483 24.647c-.16-.03-.32-.01-.48-.01s-.33-.02-.49-.02c-4.8.068-9.62.92-14.9 2.58l-6.07 16.97h.21v41.24c4.56 5.978 9.95 11.54 14.16 15.568v-56.81h14.17v20.19l12.73-35.62c-7.07-2.678-13.21-4.018-19.33-4.088z" fill="#FFEF97"/><path d="M70.82 34.125c-4.19 1.254-5.207 2.27-6.46 6.46-1.253-4.19-2.27-5.206-6.46-6.46 4.19-1.254 5.207-2.27 6.46-6.46 1.253 4.19 2.27 5.206 6.46 6.46z" fill="#F0DB83"/></svg>