<?xml version="1.0" encoding="utf-8"?>
<!-- Generator: Adobe Illustrator 18.0.0, SVG Export Plug-In . SVG Version: 6.00 Build 0)  -->
<!DOCTYPE svg PUBLIC "-//W3C//DTD SVG 1.1//EN" "http://www.w3.org/Graphics/SVG/1.1/DTD/svg11.dtd">
<svg version="1.1" xmlns="http://www.w3.org/2000/svg" xmlns:xlink="http://www.w3.org/1999/xlink" x="0px" y="0px"
	 viewBox="-9 -10 42.1 41.9" enable-background="new -9 -10 42.1 41.9" xml:space="preserve">
<g id="Layer_1" xmlns:cc="http://creativecommons.org/ns#" xmlns:dc="http://purl.org/dc/elements/1.1/" xmlns:rdf="http://www.w3.org/1999/02/22-rdf-syntax-ns#">
	<g>
		<circle fill="#75ABEA" cx="12" cy="10.9" r="20.9"/>
		<path fill="#ACE877" d="M32,17c-4.8-3-12-5-20-5C4,12-3.2,13.9-8,17c2.6,8.6,10.6,14.8,20,14.8C21.5,31.8,29.4,25.6,32,17z"/>
		<g transform="translate(0 -1028.4)">
			<rect x="17" y="1029.4" fill="#C0392B" width="3" height="6"/>
			<path fill="#BDC3C7" d="M12,1029.4l-9,9v1.8v5.4v1.8h1h8h8h1v-1.8v-5.4v-1.8C21,1038.4,12,1029.4,12,1029.4z"/>
			<path fill="#95A5A6" d="M12,1030l-9,8.9v1.9v0.1l9-9l9,9v-0.1v-1.9L12,1030z"/>
			<g>
				<path fill="#E74C3C" d="M12,1027.4l-11.3,11.3l1.4,1.4l9.9-9.9l9.9,9.9l1.4-1.4C23.3,1038.7,12,1027.4,12,1027.4z"/>
				<path fill="#3498DB" d="M14,1036.4c0,1.1-0.9,2-2,2s-2-0.9-2-2s0.9-2,2-2S14,1035.3,14,1036.4z"/>
				<rect x="10" y="1041.4" fill="#E67E22" width="4" height="6"/>
				<path fill="#D35400" d="M13.5,1044.9c0,0.3-0.2,0.5-0.5,0.5s-0.5-0.2-0.5-0.5s0.2-0.5,0.5-0.5S13.5,1044.6,13.5,1044.9z"/>
				<path fill="#2980B9" d="M12,1034.4c-1.1,0-2,0.9-2,2c0,0.1,0,0.3,0.1,0.5c0.2-0.9,1-1.5,1.9-1.5s1.7,0.6,1.9,1.5
					c0-0.2,0.1-0.4,0.1-0.5C14,1035.3,13.1,1034.4,12,1034.4z"/>
				<path fill="#F1C40F" d="M13.5,1044.4c0,0.3-0.2,0.5-0.5,0.5s-0.5-0.2-0.5-0.5s0.2-0.5,0.5-0.5S13.5,1044.1,13.5,1044.4z"/>
				<rect x="10" y="1040.4" fill="#D35400" width="4" height="1"/>
			</g>
		</g>
	</g>
</g>
<g id="Layer_2">
</g>
</svg>
